SplineFontDB: 3.0
FontName: Hack-BoldItalic
FullName: Hack Bold Italic
FamilyName: Hack
Weight: Regular
Copyright: Copyright (c) 2017 Source Foundry Authors / Copyright (c) 2003 by Bitstream, Inc. All Rights Reserved.
Version: 3.0
StyleMapFamilyName: 
FONDName: Hack
ItalicAngle: -11
UnderlinePosition: -220
UnderlineWidth: 90
Ascent: 1556
Descent: 492
InvalidEm: 0
UFOAscent: 1556
UFODescent: -492
LayerCount: 2
Layer: 0 0 "Back" 1
Layer: 1 0 "Fore" 0
StyleMap: 0x0021
FSType: 1
OS2Version: 0
OS2_WeightWidthSlopeOnly: 0
OS2_UseTypoMetrics: 0
CreationTime: 1513717471
ModificationTime: 1513717561
PfmFamily: 16
TTFWeight: 700
TTFWidth: 5
LineGap: 0
VLineGap: 0
Panose: 2 11 8 9 3 2 2 9 2 4
OS2TypoAscent: 1556
OS2TypoAOffset: 0
OS2TypoDescent: -492
OS2TypoDOffset: 0
OS2TypoLinegap: 410
OS2WinAscent: 1901
OS2WinAOffset: 0
OS2WinDescent: 483
OS2WinDOffset: 0
HheadAscent: 1901
HheadAOffset: 0
HheadDescent: -483
HheadDOffset: 0
OS2SubXSize: 1331
OS2SubYSize: 1228
OS2SubXOff: -29
OS2SubYOff: 153
OS2SupXSize: 1331
OS2SupYSize: 1228
OS2SupXOff: 136
OS2SupYOff: 716
OS2StrikeYSize: 102
OS2StrikeYPos: 530
OS2CapHeight: 1495
OS2XHeight: 1120
OS2Vendor: 'SRC '
OS2CodePages: 2000019f.dfd70000
OS2UnicodeRanges: a50006ef.000038fb.00000000.00000000
Lookup: 1 0 0 "'locl' Localized Forms in Latin lookup 0" { "'locl' Localized Forms in Latin lookup 0 subtable"  } ['locl' ('latn' <'MOL ' > ) ]
Lookup: 1 0 0 "'locl' Localized Forms in Latin lookup 1" { "'locl' Localized Forms in Latin lookup 1 subtable"  } ['locl' ('latn' <'ROM ' > ) ]
Lookup: 1 0 0 "'subs' Subscript in Latin lookup 2" { "'subs' Subscript in Latin lookup 2 subtable" ("inferior") } ['subs' ('latn' <'dflt' 'MOL ' 'ROM ' > 'DFLT' <'dflt' > ) ]
Lookup: 1 0 0 "'subs' Subscript in Latin lookup 3" { "'subs' Subscript in Latin lookup 3 subtable" ("inferior") } ['subs' ('latn' <'dflt' > ) ]

StartChar: .notdef
Encoding: 0 -1 0
GlifName: _notdef
Width: 1233
VWidth: 0
Flags: W
LayerCount: 2
Fore
SplineSet
104 1444 m 257
NamedP: "hr00"
 1128 1444 l 257
NamedP: "dv02"
 1128 -362 l 257
NamedP: "sh01"
 104 -362 l 257
 104 1444 l 257
NamedP: "hr00"
1014 -248 m 257
NamedP: "ah01"
 1014 1329 l 257
NamedP: "dv01"
 219 1329 l 257
NamedP: "sh02"
 219 -248 l 257
 1014 -248 l 257
NamedP: "ah01"
EndSplineSet
PickledDataWithLists: "(dp1
S'com.schriftgestaltung.Glyphs.lastChange'
p2
S'2017-07-11 17:15:08 +0000'
p3
s."
EndChar

StartChar: A
Encoding: 1 65 1
GlifName: A_
Width: 1233
VWidth: 0
Flags: W
LayerCount: 2
Fore
SplineSet
582 1493 m 257
NamedP: "hr00"
 942 1493 l 257
 1055 0 l 257
NamedP: "ab01"
 762 0 l 257
 748 369 l 257
NamedP: "dv01"
 348 369 l 257
 186 0 l 257
NamedP: "ab02"
 -113 0 l 257
 582 1493 l 257
NamedP: "hr00"
737 612 m 257
NamedP: "dv02"
 717 1219 l 257
 453 612 l 257
 737 612 l 257
NamedP: "dv02"
EndSplineSet
PickledDataWithLists: "(dp1
S'com.schriftgestaltung.Glyphs.lastChange'
p2
S'2017-07-11 17:15:08 +0000'
p3
s."
Substitution2: "Single Substitution lookup 14 subtable" ordfeminine
Substitution2: "Single Substitution lookup 11 subtable" ordfeminine
EndChar

StartChar: AE
Encoding: 2 198 2
GlifName: A_E_
Width: 1233
VWidth: 0
Flags: W
LayerCount: 2
Fore
SplineSet
502 1493 m 257
NamedP: "hr00"
 1311 1493 l 257
 1260 1233 l 257
NamedP: "sv01"
 969 1233 l 257
 909 922 l 257
 1169 922 l 257
NamedP: "dv04"
 1118 662 l 257
NamedP: "dv03"
 858 662 l 257
 780 260 l 257
NamedP: "sv02"
 1090 260 l 257
 1038 0 l 257
NamedP: "ab01"
 475 0 l 257
 547 362 l 257
NamedP: "dv01"
 264 362 l 257
 109 0 l 257
NamedP: "ab02"
 -150 0 l 257
 502 1493 l 257
NamedP: "hr00"
592 598 m 257
NamedP: "dv02"
 717 1233 l 257
NamedP: "sv03"
 637 1233 l 257
NamedP: "sv04"
 365 598 l 257
 592 598 l 257
NamedP: "dv02"
EndSplineSet
PickledDataWithLists: "(dp1
S'com.schriftgestaltung.Glyphs.lastChange'
p2
S'2017-07-11 17:15:08 +0000'
p3
s."
EndChar

StartChar: Aacute
Encoding: 3 193 3
GlifName: A_acute
Width: 1233
VWidth: 0
Flags: W
LayerCount: 2
Fore
SplineSet
862 1852 m 257
NamedP: "hr00"
 1143 1852 l 257
 823 1588 l 257
 616 1588 l 257
NamedP: "iv01"
 862 1852 l 257
NamedP: "hr00"
582 1493 m 257
NamedP: "at01"
 942 1493 l 257
 1055 0 l 257
NamedP: "ab01"
 762 0 l 257
 748 369 l 257
NamedP: "dv01"
 348 369 l 257
 186 0 l 257
NamedP: "ab02"
 -113 0 l 257
 582 1493 l 257
NamedP: "at01"
737 612 m 257
NamedP: "dv02"
 717 1219 l 257
 453 612 l 257
 737 612 l 257
NamedP: "dv02"
EndSplineSet
PickledDataWithLists: "(dp1
S'com.schriftgestaltung.Glyphs.lastChange'
p2
S'2017-07-11 17:15:08 +0000'
p3
s."
EndChar

StartChar: Abreve
Encoding: 4 258 4
GlifName: A_breve
Width: 1233
VWidth: 0
Flags: W
LayerCount: 2
Fore
SplineSet
796 1588 m 256
NamedP: "dv01"
 607 1588 508 1680 508 1848 c 258
 508 1852 l 257
 651 1852 l 257
NamedP: "sv01"
 662 1780 711 1737 816 1737 c 256
NamedP: "dv02"
 920 1737 989 1777 1022 1852 c 257
NamedP: "sv02"
 1176 1852 l 257
 1123 1676 977 1588 796 1588 c 256
NamedP: "dv01"
582 1493 m 257
NamedP: "at01"
 942 1493 l 257
 1055 0 l 257
NamedP: "ab01"
 762 0 l 257
 748 369 l 257
NamedP: "dv03"
 348 369 l 257
 186 0 l 257
NamedP: "ab02"
 -113 0 l 257
NamedP: "hr01"
 582 1493 l 257
NamedP: "at01"
737 612 m 257
NamedP: "hr02"
 717 1219 l 257
 453 612 l 257
 737 612 l 257
NamedP: "hr02"
EndSplineSet
PickledDataWithLists: "(dp1
S'com.schriftgestaltung.Glyphs.lastChange'
p2
S'2017-07-11 17:15:08 +0000'
p3
s."
EndChar

StartChar: Acircumflex
Encoding: 5 194 5
GlifName: A_circumflex
Width: 1233
VWidth: 0
Flags: W
LayerCount: 2
Fore
SplineSet
639 1852 m 257
NamedP: "hr00"
 987 1852 l 257
NamedP: "dv02"
 1138 1588 l 257
 969 1588 l 257
NamedP: "dv01"
 805 1749 l 257
 575 1588 l 257
NamedP: "sv01"
 395 1588 l 257
 639 1852 l 257
NamedP: "hr00"
582 1493 m 257
NamedP: "at01"
 942 1493 l 257
 1055 0 l 257
NamedP: "ab01"
 762 0 l 257
 748 369 l 257
NamedP: "dv03"
 348 369 l 257
 186 0 l 257
NamedP: "ab02"
 -113 0 l 257
 582 1493 l 257
NamedP: "at01"
737 612 m 257
NamedP: "dv04"
 717 1219 l 257
 453 612 l 257
 737 612 l 257
NamedP: "dv04"
EndSplineSet
PickledDataWithLists: "(dp1
S'com.schriftgestaltung.Glyphs.lastChange'
p2
S'2017-07-11 17:15:08 +0000'
p3
s."
EndChar

StartChar: Adieresis
Encoding: 6 196 6
GlifName: A_dieresis
Width: 1233
VWidth: 0
Flags: W
LayerCount: 2
Fore
SplineSet
487 1613 m 258
NamedP: "hr00"
 469 1613 460 1621 460 1637 c 256
 460 1641 460 1644 461 1646 c 258
 499 1832 l 258
 503 1850 514 1859 531 1859 c 258
NamedP: "dv01"
 706 1859 l 258
 724 1859 733 1851 733 1835 c 256
 733 1831 733 1828 732 1826 c 258
 695 1640 l 258
 692 1622 681 1613 663 1613 c 258
 487 1613 l 258
NamedP: "hr00"
883 1613 m 258
NamedP: "sv01"
 865 1613 856 1621 856 1637 c 256
 856 1641 856 1644 857 1646 c 258
 894 1832 l 257
 897 1850 907 1859 926 1859 c 258
NamedP: "sv02"
 1101 1859 l 258
 1121 1859 1132 1846 1128 1826 c 258
 1092 1640 l 258
 1089 1622 1078 1613 1060 1613 c 258
 883 1613 l 258
NamedP: "sv01"
582 1493 m 257
NamedP: "at01"
 942 1493 l 257
 1055 0 l 257
NamedP: "ab01"
 762 0 l 257
 748 369 l 257
NamedP: "dv02"
 348 369 l 257
 186 0 l 257
NamedP: "ab02"
 -113 0 l 257
 582 1493 l 257
NamedP: "at01"
737 612 m 257
NamedP: "dv03"
 717 1219 l 257
 453 612 l 257
 737 612 l 257
NamedP: "dv03"
EndSplineSet
PickledDataWithLists: "(dp1
S'com.schriftgestaltung.Glyphs.lastChange'
p2
S'2017-07-11 17:15:08 +0000'
p3
s."
EndChar

StartChar: Agrave
Encoding: 7 192 7
GlifName: A_grave
Width: 1233
VWidth: 0
Flags: W
LayerCount: 2
Fore
SplineSet
500 1852 m 257
NamedP: "hr00"
 764 1852 l 257
NamedP: "dv02"
 907 1588 l 257
 729 1588 l 257
NamedP: "dv01"
 500 1852 l 257
NamedP: "hr00"
582 1493 m 257
NamedP: "at01"
 942 1493 l 257
 1055 0 l 257
NamedP: "ab01"
 762 0 l 257
 748 369 l 257
NamedP: "dv03"
 348 369 l 257
 186 0 l 257
NamedP: "ab02"
 -113 0 l 257
 582 1493 l 257
NamedP: "at01"
737 612 m 257
NamedP: "dv04"
 717 1219 l 257
 453 612 l 257
 737 612 l 257
NamedP: "dv04"
EndSplineSet
PickledDataWithLists: "(dp1
S'com.schriftgestaltung.Glyphs.lastChange'
p2
S'2017-07-11 17:15:08 +0000'
p3
s."
EndChar

StartChar: Alpha
Encoding: 8 913 8
GlifName: A_lpha
Width: 1233
VWidth: 0
Flags: W
LayerCount: 2
Fore
SplineSet
590 1493 m 257
NamedP: "hr00"
 950 1493 l 257
 1063 0 l 257
NamedP: "ab01"
 770 0 l 257
 756 369 l 257
NamedP: "dv01"
 356 369 l 257
 194 0 l 257
NamedP: "ab02"
 -105 0 l 257
 590 1493 l 257
NamedP: "hr00"
745 612 m 257
NamedP: "dv02"
 725 1219 l 257
 461 612 l 257
 745 612 l 257
NamedP: "dv02"
EndSplineSet
PickledDataWithLists: "(dp1
S'com.schriftgestaltung.Glyphs.lastChange'
p2
S'2017-07-11 17:15:08 +0000'
p3
s."
EndChar

StartChar: Alphatonos
Encoding: 9 902 9
GlifName: A_lphatonos
Width: 1233
VWidth: 0
Flags: W
LayerCount: 2
Fore
SplineSet
262 1518 m 257
NamedP: "hr00"
 583 1518 l 257
 141 1142 l 257
NamedP: "at02"
 -56 1142 l 257
NamedP: "iv01"
 262 1518 l 257
NamedP: "hr00"
614 1493 m 257
NamedP: "at01"
 974 1493 l 257
 1087 0 l 257
NamedP: "ab01"
 794 0 l 257
 780 369 l 257
NamedP: "dv01"
 380 369 l 257
 218 0 l 257
NamedP: "ab02"
 -81 0 l 257
 614 1493 l 257
NamedP: "at01"
769 612 m 257
NamedP: "dv02"
 749 1219 l 257
 485 612 l 257
 769 612 l 257
NamedP: "dv02"
EndSplineSet
PickledDataWithLists: "(dp1
S'com.schriftgestaltung.Glyphs.lastChange'
p2
S'2017-07-11 17:15:08 +0000'
p3
s."
EndChar

StartChar: Amacron
Encoding: 10 256 10
GlifName: A_macron
Width: 1233
VWidth: 0
Flags: W
LayerCount: 2
Fore
SplineSet
519 1850 m 257
NamedP: "hr00"
 1150 1850 l 257
NamedP: "dv02"
 1114 1662 l 257
NamedP: "dv01"
 483 1662 l 257
 519 1850 l 257
NamedP: "hr00"
582 1493 m 257
NamedP: "at01"
 942 1493 l 257
 1055 0 l 257
NamedP: "ab01"
 762 0 l 257
 748 369 l 257
NamedP: "dv03"
 348 369 l 257
 186 0 l 257
NamedP: "ab02"
 -113 0 l 257
 582 1493 l 257
NamedP: "at01"
737 612 m 257
NamedP: "dv04"
 717 1219 l 257
 453 612 l 257
 737 612 l 257
NamedP: "dv04"
EndSplineSet
PickledDataWithLists: "(dp1
S'com.schriftgestaltung.Glyphs.lastChange'
p2
S'2017-07-11 17:15:08 +0000'
p3
s."
EndChar

StartChar: Aogonek
Encoding: 11 260 11
GlifName: A_ogonek
Width: 1233
VWidth: 0
Flags: W
LayerCount: 2
Fore
SplineSet
785 -182 m 256
NamedP: "hr00"
 785 -221 816 -254 885 -254 c 256
NamedP: "dv02"
 921 -254 978 -246 1041 -223 c 257
 1010 -379 l 257
 945 -394 882 -401 831 -401 c 256
NamedP: "dv01"
 694 -401 611 -350 611 -255 c 256
 611 -183 659 -95 767 0 c 257
NamedP: "ab01"
 762 0 l 257
 748 369 l 257
NamedP: "dv03"
 348 369 l 257
 186 0 l 257
NamedP: "ab02"
 -113 0 l 257
 582 1493 l 257
NamedP: "at01"
 942 1493 l 257
 1055 0 l 257
NamedP: "ab03"
 908 0 l 257
 858 -53 825 -92 809 -117 c 256
 793 -142 785 -162 785 -182 c 256
NamedP: "hr00"
737 612 m 257
NamedP: "dv04"
 717 1219 l 257
 453 612 l 257
 737 612 l 257
NamedP: "dv04"
EndSplineSet
PickledDataWithLists: "(dp1
S'com.schriftgestaltung.Glyphs.lastChange'
p2
S'2017-07-11 17:15:08 +0000'
p3
s."
EndChar

StartChar: Aring
Encoding: 12 197 12
GlifName: A_ring
Width: 1233
VWidth: 0
Flags: W
LayerCount: 2
Fore
SplineSet
547 1421 m 257
NamedP: "hr00"
 523 1445 504 1475 490 1510 c 256
 476 1545 469 1581 469 1618 c 256
NamedP: "sh01"
 469 1695 497 1761 553 1817 c 256
 606 1870 669 1901 753 1901 c 256
NamedP: "dv02"
 831 1901 898 1873 954 1817 c 256
 1010 1761 1038 1695 1038 1618 c 256
NamedP: "sh02"
 1038 1575 1030 1535 1015 1503 c 256
 999 1466 975 1433 948 1409 c 257
 1055 0 l 257
NamedP: "hr01"
 760 0 l 257
 739 369 l 257
NamedP: "dv03"
 344 369 l 257
 182 0 l 257
NamedP: "ab01"
 -113 0 l 257
 547 1421 l 257
NamedP: "hr00"
754 1485 m 256
 790 1485 821 1498 847 1524 c 256
 872 1549 885 1580 885 1616 c 256
NamedP: "ah01"
 885 1652 872 1683 846 1709 c 256
 819 1734 789 1747 754 1747 c 256
NamedP: "dv01"
 718 1747 687 1734 662 1709 c 256
 636 1683 623 1652 623 1616 c 256
NamedP: "sh03"
 623 1577 638 1547 661 1524 c 256
 687 1498 718 1485 754 1485 c 256
729 612 m 257
NamedP: "dv04"
 709 1223 l 257
NamedP: "ih01"
 451 612 l 257
 729 612 l 257
NamedP: "dv04"
EndSplineSet
PickledDataWithLists: "(dp1
S'com.schriftgestaltung.Glyphs.lastChange'
p2
S'2017-07-11 17:15:08 +0000'
p3
s."
EndChar

StartChar: Atilde
Encoding: 13 195 13
GlifName: A_tilde
Width: 1233
VWidth: 0
Flags: W
LayerCount: 2
Fore
SplineSet
422 1589 m 257
NamedP: "hr00"
 439 1675 470 1741 513 1786 c 256
 556 1831 608 1855 673 1855 c 256
NamedP: "dv02"
 698 1855 722 1851 744 1843 c 256
 763 1836 784 1824 811 1804 c 258
 864 1763 l 257
 873 1755 884 1748 898 1743 c 256
 909 1738 921 1736 932 1736 c 256
 959 1736 980 1746 997 1767 c 256
 1015 1788 1027 1818 1034 1855 c 257
NamedP: "sv01"
 1171 1855 l 257
 1154 1770 1124 1705 1080 1658 c 256
 1037 1612 984 1589 921 1589 c 256
NamedP: "sv02"
 867 1589 838 1598 782 1640 c 258
 733 1677 l 258
 714 1692 706 1696 691 1703 c 256
 678 1708 668 1709 660 1709 c 256
 632 1709 611 1695 596 1678 c 256
 575 1653 563 1612 559 1589 c 257
NamedP: "dv01"
 422 1589 l 257
NamedP: "hr00"
582 1493 m 257
NamedP: "at01"
 942 1493 l 257
 1055 0 l 257
NamedP: "ab01"
 762 0 l 257
 748 369 l 257
NamedP: "dv03"
 348 369 l 257
 186 0 l 257
NamedP: "ab02"
 -113 0 l 257
 582 1493 l 257
NamedP: "at01"
737 612 m 257
NamedP: "dv04"
 717 1219 l 257
 453 612 l 257
 737 612 l 257
NamedP: "dv04"
EndSplineSet
PickledDataWithLists: "(dp1
S'com.schriftgestaltung.Glyphs.lastChange'
p2
S'2017-07-11 17:15:08 +0000'
p3
s."
EndChar

StartChar: B
Encoding: 14 66 14
GlifName: B_
Width: 1233
VWidth: 0
Flags: W
LayerCount: 2
Fore
SplineSet
270 1495 m 257
NamedP: "at01"
 752 1495 l 258
 892 1495 998 1467 1071 1412 c 256
 1142 1357 1178 1274 1178 1164 c 256
NamedP: "sh01"
 1178 952 1046 811 813 786 c 257
NamedP: "ih02"
 901 779 978 748 1029 696 c 256
 1081 643 1106 568 1106 480 c 256
NamedP: "dh02"
 1106 416 1093 347 1068 284 c 256
 1044 224 1008 170 961 127 c 256
 862 38 720 0 461 0 c 258
NamedP: "hr01"
 -20 0 l 257
 270 1495 l 257
NamedP: "at01"
639 913 m 258
NamedP: "dv02"
 720 913 781 931 822 968 c 256
 861 1003 883 1054 883 1123 c 256
NamedP: "ih01"
 883 1176 869 1207 840 1228 c 256
 811 1249 766 1260 707 1260 c 258
NamedP: "sv01"
 510 1260 l 257
 442 913 l 257
NamedP: "hr02"
 639 913 l 258
NamedP: "dv02"
508 236 m 258
NamedP: "sv02"
 613 236 689 258 738 303 c 256
 787 348 811 418 811 501 c 256
NamedP: "dh01"
 811 573 793 610 758 637 c 256
NamedP: "hr03"
 723 664 668 678 594 678 c 258
NamedP: "dv01"
 397 678 l 257
 311 236 l 257
 508 236 l 258
NamedP: "sv02"
EndSplineSet
PickledDataWithLists: "(dp1
S'com.schriftgestaltung.Glyphs.lastChange'
p2
S'2017-07-11 17:15:08 +0000'
p3
s."
EndChar

StartChar: Beta
Encoding: 15 914 15
GlifName: B_eta
Width: 1233
VWidth: 0
Flags: W
LayerCount: 2
Fore
SplineSet
277 1495 m 257
NamedP: "at01"
 759 1495 l 258
 1042 1495 1185 1387 1185 1163 c 256
NamedP: "sh03"
 1185 951 1052 813 820 786 c 257
NamedP: "sh04"
 1000 770 1113 669 1113 477 c 256
NamedP: "sh05"
 1113 345 1060 211 968 127 c 256
 872 39 727 0 468 0 c 258
NamedP: "ab01"
 -13 0 l 257
 277 1495 l 257
NamedP: "at01"
646 913 m 258
NamedP: "hr01"
 807 913 890 990 890 1119 c 256
NamedP: "sh02"
 890 1219 841 1260 714 1260 c 258
NamedP: "sv01"
 517 1260 l 257
 449 913 l 257
 646 913 l 258
NamedP: "hr01"
515 236 m 258
NamedP: "sv02"
 716 236 818 321 818 496 c 256
NamedP: "sh01"
 818 612 772 678 601 678 c 258
NamedP: "hr02"
 404 678 l 257
 318 236 l 257
 515 236 l 258
NamedP: "sv02"
EndSplineSet
PickledDataWithLists: "(dp1
S'com.schriftgestaltung.Glyphs.lastChange'
p2
S'2017-07-11 17:15:08 +0000'
p3
s."
EndChar

StartChar: C
Encoding: 16 67 16
GlifName: C_
Width: 1233
VWidth: 0
Flags: W
LayerCount: 2
Fore
SplineSet
598 -29 m 256
NamedP: "hr00"
 451 -29 319 13 231 108 c 256
 142 204 105 345 105 517 c 256
NamedP: "dh01"
 105 653 128 803 176 948 c 256
 223 1088 286 1204 367 1296 c 256
 431 1368 505 1424 594 1463 c 256
 681 1501 775 1520 877 1520 c 256
NamedP: "at01"
 933 1520 985 1514 1038 1502 c 256
 1081 1491 1138 1475 1193 1448 c 257
 1129 1120 l 257
 1096 1166 1055 1200 1007 1223 c 256
 958 1246 901 1257 853 1257 c 256
NamedP: "sv01"
 798 1257 742 1243 689 1210 c 256
 633 1175 590 1123 558 1074 c 256
 511 1002 475 919 447 819 c 256
 416 711 404 617 404 537 c 256
NamedP: "dh02"
 404 442 422 364 467 308 c 256
 509 257 570 231 651 231 c 256
NamedP: "dv01"
 703 231 756 242 810 265 c 256
 867 289 923 324 984 371 c 257
 920 43 l 257
 867 18 812 0 763 -11 c 256
 709 -23 654 -29 598 -29 c 256
NamedP: "hr00"
EndSplineSet
PickledDataWithLists: "(dp1
S'com.schriftgestaltung.Glyphs.lastChange'
p2
S'2017-07-11 17:15:08 +0000'
p3
s."
EndChar

StartChar: Cacute
Encoding: 18 262 18
GlifName: C_acute
Width: 1233
VWidth: 0
Flags: W
LayerCount: 2
Fore
SplineSet
978 1852 m 257
NamedP: "hr00"
 1259 1852 l 257
 939 1588 l 257
 732 1588 l 257
NamedP: "iv01"
 978 1852 l 257
NamedP: "hr00"
598 -29 m 256
NamedP: "dv01"
 451 -29 319 13 231 108 c 256
 142 204 105 345 105 517 c 256
NamedP: "dh01"
 105 653 128 803 176 948 c 256
 223 1088 286 1204 367 1296 c 256
 431 1368 505 1424 594 1463 c 256
 682 1502 778 1520 879 1520 c 256
NamedP: "at01"
 935 1520 985 1514 1038 1502 c 256
 1081 1491 1138 1475 1193 1448 c 257
 1129 1120 l 257
 1096 1166 1055 1200 1007 1223 c 256
 958 1246 901 1257 853 1257 c 256
NamedP: "sv01"
 798 1257 742 1243 689 1210 c 256
 633 1175 590 1123 558 1074 c 256
 511 1002 475 919 447 819 c 256
 416 711 404 617 404 537 c 256
NamedP: "dh02"
 404 442 422 364 467 308 c 256
 509 257 570 231 651 231 c 256
NamedP: "dv02"
 703 231 756 242 810 265 c 256
 867 289 923 324 984 371 c 257
 920 43 l 257
 867 18 812 0 763 -11 c 256
 709 -23 654 -29 598 -29 c 256
NamedP: "dv01"
EndSplineSet
PickledDataWithLists: "(dp1
S'com.schriftgestaltung.Glyphs.lastChange'
p2
S'2017-07-11 17:15:08 +0000'
p3
s."
EndChar

StartChar: Ccaron
Encoding: 19 268 19
GlifName: C_caron
Width: 1233
VWidth: 0
Flags: W
LayerCount: 2
Fore
SplineSet
507 1853 m 257
NamedP: "hr00"
 677 1853 l 257
 826 1691 l 257
 1055 1853 l 257
NamedP: "dv04"
 1236 1853 l 257
 992 1589 l 257
NamedP: "dv03"
 644 1589 l 257
 507 1853 l 257
NamedP: "hr00"
598 -29 m 256
NamedP: "dv01"
 451 -29 319 13 231 108 c 256
 142 204 105 345 105 517 c 256
NamedP: "dh01"
 105 653 128 803 176 948 c 256
 223 1088 286 1204 367 1296 c 256
 431 1368 505 1424 594 1463 c 256
 682 1502 778 1520 879 1520 c 256
NamedP: "at01"
 935 1520 985 1514 1038 1502 c 256
 1081 1491 1138 1475 1193 1448 c 257
 1129 1120 l 257
 1096 1166 1055 1200 1007 1223 c 256
 958 1246 901 1257 853 1257 c 256
NamedP: "sv01"
 798 1257 742 1243 689 1210 c 256
 633 1175 590 1123 558 1074 c 256
 511 1002 475 919 447 819 c 256
 416 711 404 617 404 537 c 256
NamedP: "dh02"
 404 442 422 364 467 308 c 256
 509 257 570 231 651 231 c 256
NamedP: "dv02"
 703 231 756 242 810 265 c 256
 867 289 923 324 984 371 c 257
 920 43 l 257
 867 18 812 0 763 -11 c 256
 709 -23 654 -29 598 -29 c 256
NamedP: "dv01"
EndSplineSet
PickledDataWithLists: "(dp1
S'com.schriftgestaltung.Glyphs.lastChange'
p2
S'2017-07-11 17:15:08 +0000'
p3
s."
EndChar

StartChar: Ccedilla
Encoding: 20 199 20
GlifName: C_cedilla
Width: 1233
VWidth: 0
Flags: W
LayerCount: 2
Fore
SplineSet
1038 1502 m 256
NamedP: "hr00"
 1085 1491 1141 1473 1193 1448 c 257
 1129 1120 l 257
 1096 1166 1055 1200 1007 1223 c 256
 958 1246 901 1257 853 1257 c 256
NamedP: "sv01"
 798 1257 742 1243 689 1210 c 256
 633 1175 590 1123 558 1074 c 256
 511 1002 475 919 447 819 c 256
 416 711 404 617 404 537 c 256
NamedP: "dh02"
 404 442 422 364 467 308 c 256
 509 257 570 231 651 231 c 256
 703 231 756 242 810 265 c 256
 867 289 923 324 984 371 c 257
 920 43 l 257
 867 18 812 0 763 -11 c 256
 734 -18 705 -22 676 -25 c 257
 691 -48 703 -71 712 -94 c 256
 724 -125 730 -156 730 -185 c 256
 730 -248 706 -303 655 -342 c 256
 606 -381 535 -401 443 -401 c 256
NamedP: "dv01"
 408 -401 369 -398 344 -395 c 256
NamedP: "sv02"
 285 -387 268 -380 245 -375 c 257
 273 -219 l 257
 302 -230 330 -238 357 -245 c 256
 384 -251 409 -254 434 -254 c 256
NamedP: "dv02"
 479 -254 515 -244 538 -227 c 256
 562 -209 574 -184 574 -151 c 256
 574 -132 570 -112 561 -90 c 256
 554 -74 546 -53 531 -26 c 257
 410 -15 306 28 231 108 c 256
 142 204 105 345 105 517 c 256
NamedP: "dh01"
 105 653 128 803 176 948 c 256
 223 1088 286 1204 367 1296 c 256
 431 1368 505 1424 594 1463 c 256
 682 1502 782 1520 883 1520 c 256
NamedP: "at01"
 939 1520 985 1514 1038 1502 c 256
NamedP: "hr00"
EndSplineSet
PickledDataWithLists: "(dp1
S'com.schriftgestaltung.Glyphs.lastChange'
p2
S'2017-07-11 17:15:08 +0000'
p3
s."
EndChar

StartChar: Ccircumflex
Encoding: 21 264 21
GlifName: C_circumflex
Width: 1233
VWidth: 0
Flags: W
LayerCount: 2
Fore
SplineSet
786 1852 m 257
NamedP: "hr00"
 1095 1852 l 257
 1267 1588 l 257
 1089 1588 l 257
 921 1749 l 257
 692 1588 l 257
 514 1588 l 257
 786 1852 l 257
NamedP: "hr00"
98 489 m 256
 98 567 107 652 125 745 c 256
 158 914 210 1055 279 1169 c 256
 419 1400 630 1520 894 1520 c 256
 1010 1520 1109 1496 1191 1448 c 257
 1127 1120 l 257
 1043 1215 961 1255 857 1255 c 256
 644 1255 497 1080 432 745 c 257
 417 674 410 605 410 539 c 256
 410 339 494 236 659 236 c 256
 710 236 762 247 814 269 c 256
 866 290 914 319 981 371 c 257
 918 43 l 257
 815 -5 707 -29 593 -29 c 256
 269 -29 98 152 98 489 c 256
EndSplineSet
PickledDataWithLists: "(dp1
S'com.schriftgestaltung.Glyphs.lastChange'
p2
S'2017-07-11 17:15:08 +0000'
p3
s."
EndChar

StartChar: Cdotaccent
Encoding: 22 266 22
GlifName: C_dotaccent
Width: 1233
VWidth: 0
Flags: W
LayerCount: 2
Fore
SplineSet
763 1607 m 258
NamedP: "hr00"
 742 1607 732 1620 736 1640 c 258
 773 1826 l 257
 776 1844 786 1853 805 1853 c 258
NamedP: "dv03"
 1020 1853 l 258
 1041 1853 1051 1840 1047 1820 c 258
 1010 1634 l 258
 1007 1616 996 1607 978 1607 c 258
 763 1607 l 258
NamedP: "hr00"
596 -29 m 256
NamedP: "dv01"
 279 -29 106 151 106 522 c 256
NamedP: "dh01"
 106 805 208 1112 368 1296 c 256
 497 1444 673 1520 876 1520 c 256
NamedP: "at01"
 989 1520 1090 1496 1194 1448 c 257
 1130 1120 l 257
 1065 1209 961 1257 857 1257 c 256
NamedP: "sv01"
 732 1257 632 1188 559 1075 c 256
 469 937 405 711 405 536 c 256
NamedP: "dh02"
 405 332 491 231 652 231 c 256
NamedP: "dv02"
 756 231 860 274 985 371 c 257
 921 43 l 257
 817 -5 713 -29 596 -29 c 256
NamedP: "dv01"
EndSplineSet
PickledDataWithLists: "(dp1
S'com.schriftgestaltung.Glyphs.lastChange'
p2
S'2017-07-11 17:15:08 +0000'
p3
s."
EndChar

StartChar: Chi
Encoding: 23 935 23
GlifName: C_hi
Width: 1233
VWidth: 0
Flags: W
LayerCount: 2
Fore
SplineSet
471 782 m 257
NamedP: "hr00"
 184 1493 l 257
NamedP: "at01"
 475 1493 l 257
 662 1030 l 257
NamedP: "iv01"
 1022 1493 l 257
NamedP: "at02"
 1343 1493 l 257
 770 756 l 257
 1071 0 l 257
NamedP: "ab01"
 780 0 l 257
 580 512 l 257
NamedP: "iv02"
 180 0 l 257
NamedP: "ab02"
 -143 0 l 257
 471 782 l 257
NamedP: "hr00"
EndSplineSet
PickledDataWithLists: "(dp1
S'com.schriftgestaltung.Glyphs.lastChange'
p2
S'2017-07-11 17:15:08 +0000'
p3
s."
EndChar

StartChar: D
Encoding: 24 68 24
GlifName: D_
Width: 1233
VWidth: 0
Flags: W
LayerCount: 2
Fore
SplineSet
283 1493 m 257
NamedP: "hr00"
 598 1493 l 258
 783 1493 929 1454 1025 1370 c 256
 1118 1289 1165 1163 1165 996 c 256
NamedP: "dh02"
 1165 948 1161 877 1152 814 c 256
 1144 759 1127 668 1111 603 c 256
 1084 495 1050 407 1021 347 c 256
 982 267 936 210 897 171 c 256
 837 112 759 67 671 40 c 256
 586 13 470 0 322 0 c 258
NamedP: "ab01"
 -8 0 l 257
 283 1493 l 257
NamedP: "hr00"
434 266 m 258
NamedP: "sv01"
 509 266 572 281 623 310 c 256
 679 341 714 385 743 442 c 256
 775 506 807 599 828 695 c 256
 851 795 860 892 860 960 c 256
NamedP: "dh01"
 860 1057 839 1120 798 1163 c 256
 756 1206 692 1227 606 1227 c 258
NamedP: "sv02"
 524 1227 l 257
 338 266 l 257
 434 266 l 258
NamedP: "sv01"
EndSplineSet
PickledDataWithLists: "(dp1
S'com.schriftgestaltung.Glyphs.lastChange'
p2
S'2017-07-11 17:15:08 +0000'
p3
s."
EndChar

StartChar: Dcaron
Encoding: 25 270 25
GlifName: D_caron
Width: 1233
VWidth: 0
Flags: W
LayerCount: 2
Fore
SplineSet
383 1853 m 257
NamedP: "hr00"
 553 1853 l 257
 702 1691 l 257
 931 1853 l 257
NamedP: "dv02"
 1112 1853 l 257
NamedP: "ih01"
 868 1589 l 257
NamedP: "dv01"
 520 1589 l 257
 383 1853 l 257
NamedP: "hr00"
283 1493 m 257
NamedP: "at01"
 598 1493 l 258
 981 1493 1165 1330 1165 994 c 256
NamedP: "dh02"
 1165 889 1147 751 1110 602 c 256
 1056 385 990 262 897 172 c 256
 772 50 613 0 322 0 c 258
NamedP: "ab01"
 -8 0 l 257
 283 1493 l 257
NamedP: "at01"
434 266 m 258
NamedP: "sv01"
 587 266 682 323 743 442 c 256
 807 564 860 800 860 956 c 256
NamedP: "dh01"
 860 1143 783 1227 606 1227 c 258
NamedP: "sv02"
 524 1227 l 257
 338 266 l 257
 434 266 l 258
NamedP: "sv01"
EndSplineSet
PickledDataWithLists: "(dp1
S'com.schriftgestaltung.Glyphs.lastChange'
p2
S'2017-07-11 17:15:08 +0000'
p3
s."
EndChar

StartChar: Dcroat
Encoding: 26 272 26
GlifName: D_croat
Width: 1233
VWidth: 0
Flags: W
LayerCount: 2
Fore
SplineSet
121 664 m 257
NamedP: "hr00"
 -16 664 l 257
 31 901 l 257
 166 901 l 257
NamedP: "dv01"
 283 1493 l 257
NamedP: "at01"
 598 1493 l 258
 981 1493 1165 1330 1165 994 c 256
NamedP: "dh02"
 1165 889 1147 751 1110 602 c 256
 1056 385 990 262 897 172 c 256
 772 50 613 0 322 0 c 258
NamedP: "ab01"
 -8 0 l 257
 121 664 l 257
NamedP: "hr00"
434 266 m 258
NamedP: "sv01"
 587 266 682 323 743 442 c 256
 807 564 860 800 860 956 c 256
NamedP: "dh01"
 860 1143 783 1227 606 1227 c 258
NamedP: "sv02"
 524 1227 l 257
 461 901 l 257
NamedP: "sv03"
 672 901 l 257
 627 664 l 257
NamedP: "sv04"
 416 664 l 257
 338 266 l 257
 434 266 l 258
NamedP: "sv01"
EndSplineSet
PickledDataWithLists: "(dp1
S'com.schriftgestaltung.Glyphs.lastChange'
p2
S'2017-07-11 17:15:08 +0000'
p3
s."
EndChar

StartChar: E
Encoding: 27 69 27
GlifName: E_
Width: 1233
VWidth: 0
Flags: W
LayerCount: 2
Fore
SplineSet
317 1493 m 257
NamedP: "hr00"
 1249 1493 l 257
 1198 1233 l 257
NamedP: "sv01"
 563 1233 l 257
 500 911 l 257
 1075 911 l 257
NamedP: "dv02"
 1026 651 l 257
NamedP: "dv01"
 451 651 l 257
 375 260 l 257
NamedP: "sv02"
 1010 260 l 257
 958 0 l 257
NamedP: "ab01"
 29 0 l 257
 317 1493 l 257
NamedP: "hr00"
EndSplineSet
PickledDataWithLists: "(dp1
S'com.schriftgestaltung.Glyphs.lastChange'
p2
S'2017-07-11 17:15:08 +0000'
p3
s."
EndChar

StartChar: Eacute
Encoding: 28 201 28
GlifName: E_acute
Width: 1233
VWidth: 0
Flags: W
LayerCount: 2
Fore
SplineSet
899 1852 m 257
NamedP: "hr00"
 1180 1852 l 257
 860 1588 l 257
 653 1588 l 257
NamedP: "iv01"
 899 1852 l 257
NamedP: "hr00"
317 1493 m 257
NamedP: "at01"
 1249 1493 l 257
 1198 1233 l 257
NamedP: "sv01"
 563 1233 l 257
 500 911 l 257
 1075 911 l 257
NamedP: "dv02"
 1026 651 l 257
NamedP: "dv01"
 451 651 l 257
 375 260 l 257
NamedP: "sv02"
 1010 260 l 257
 958 0 l 257
NamedP: "ab01"
 29 0 l 257
 317 1493 l 257
NamedP: "at01"
EndSplineSet
PickledDataWithLists: "(dp1
S'com.schriftgestaltung.Glyphs.lastChange'
p2
S'2017-07-11 17:15:08 +0000'
p3
s."
EndChar

StartChar: Ecaron
Encoding: 29 282 29
GlifName: E_caron
Width: 1233
VWidth: 0
Flags: W
LayerCount: 2
Fore
SplineSet
509 1852 m 257
NamedP: "hr00"
 679 1852 l 257
 828 1690 l 257
 1057 1852 l 257
NamedP: "dv02"
 1238 1852 l 257
 994 1588 l 257
NamedP: "dv01"
 646 1588 l 257
 509 1852 l 257
NamedP: "hr00"
317 1493 m 257
NamedP: "at01"
 1249 1493 l 257
 1198 1233 l 257
NamedP: "sv01"
 563 1233 l 257
 500 911 l 257
 1075 911 l 257
NamedP: "dv04"
 1026 651 l 257
NamedP: "dv03"
 451 651 l 257
 375 260 l 257
NamedP: "sv02"
 1010 260 l 257
 958 0 l 257
NamedP: "ab01"
 29 0 l 257
 317 1493 l 257
NamedP: "at01"
EndSplineSet
PickledDataWithLists: "(dp1
S'com.schriftgestaltung.Glyphs.lastChange'
p2
S'2017-07-11 17:15:08 +0000'
p3
s."
EndChar

StartChar: Ecircumflex
Encoding: 30 202 30
GlifName: E_circumflex
Width: 1233
VWidth: 0
Flags: W
LayerCount: 2
Fore
SplineSet
666 1853 m 257
NamedP: "hr00"
 1014 1853 l 257
NamedP: "dv02"
 1165 1589 l 257
 996 1589 l 257
NamedP: "dv01"
 832 1750 l 257
 602 1589 l 257
NamedP: "sv01"
 422 1589 l 257
 666 1853 l 257
NamedP: "hr00"
317 1493 m 257
NamedP: "at01"
 1249 1493 l 257
 1198 1233 l 257
NamedP: "sv02"
 563 1233 l 257
 500 911 l 257
 1075 911 l 257
NamedP: "dv04"
 1026 651 l 257
NamedP: "dv03"
 451 651 l 257
 375 260 l 257
NamedP: "sv03"
 1010 260 l 257
 958 0 l 257
NamedP: "ab01"
 29 0 l 257
 317 1493 l 257
NamedP: "at01"
EndSplineSet
PickledDataWithLists: "(dp1
S'com.schriftgestaltung.Glyphs.lastChange'
p2
S'2017-07-11 17:15:08 +0000'
p3
s."
EndChar

StartChar: Edieresis
Encoding: 31 203 31
GlifName: E_dieresis
Width: 1233
VWidth: 0
Flags: W
LayerCount: 2
Fore
SplineSet
514 1607 m 258
NamedP: "hr00"
 496 1607 487 1615 487 1631 c 256
 487 1635 487 1638 488 1640 c 258
 526 1826 l 258
 530 1844 541 1853 558 1853 c 258
NamedP: "dv01"
 733 1853 l 258
 751 1853 760 1845 760 1829 c 256
 760 1825 760 1822 759 1820 c 258
 722 1634 l 258
 719 1616 708 1607 690 1607 c 258
 514 1607 l 258
NamedP: "hr00"
910 1607 m 258
NamedP: "sv01"
 892 1607 883 1615 883 1631 c 256
 883 1635 883 1638 884 1640 c 258
 921 1826 l 257
 924 1844 934 1853 953 1853 c 258
NamedP: "sv02"
 1128 1853 l 258
 1148 1853 1159 1840 1155 1820 c 258
 1119 1634 l 258
 1116 1616 1105 1607 1087 1607 c 258
 910 1607 l 258
NamedP: "sv01"
317 1493 m 257
NamedP: "at01"
 1249 1493 l 257
 1198 1233 l 257
NamedP: "sv03"
 563 1233 l 257
 500 911 l 257
 1075 911 l 257
NamedP: "dv03"
 1026 651 l 257
NamedP: "dv02"
 451 651 l 257
 375 260 l 257
NamedP: "sv04"
 1010 260 l 257
 958 0 l 257
NamedP: "ab01"
 29 0 l 257
 317 1493 l 257
NamedP: "at01"
EndSplineSet
PickledDataWithLists: "(dp1
S'com.schriftgestaltung.Glyphs.lastChange'
p2
S'2017-07-11 17:15:08 +0000'
p3
s."
EndChar

StartChar: Edotaccent
Encoding: 32 278 32
GlifName: E_dotaccent
Width: 1233
VWidth: 0
Flags: W
LayerCount: 2
Fore
SplineSet
709 1606 m 258
NamedP: "hr00"
 688 1606 678 1619 682 1639 c 258
 719 1825 l 257
 722 1843 732 1852 751 1852 c 258
NamedP: "dv01"
 966 1852 l 258
 987 1852 997 1839 993 1819 c 258
 956 1633 l 258
 953 1615 942 1606 924 1606 c 258
 709 1606 l 258
NamedP: "hr00"
317 1493 m 257
NamedP: "at01"
 1249 1493 l 257
 1198 1233 l 257
NamedP: "sv01"
 563 1233 l 257
 500 911 l 257
 1075 911 l 257
NamedP: "dv03"
 1026 651 l 257
NamedP: "dv02"
 451 651 l 257
 375 260 l 257
NamedP: "sv02"
 1010 260 l 257
 958 0 l 257
NamedP: "ab01"
 29 0 l 257
 317 1493 l 257
NamedP: "at01"
EndSplineSet
PickledDataWithLists: "(dp1
S'com.schriftgestaltung.Glyphs.lastChange'
p2
S'2017-07-11 17:15:08 +0000'
p3
s."
EndChar

StartChar: Egrave
Encoding: 33 200 33
GlifName: E_grave
Width: 1233
VWidth: 0
Flags: W
LayerCount: 2
Fore
SplineSet
527 1853 m 257
NamedP: "hr00"
 791 1853 l 257
NamedP: "dv02"
 934 1589 l 257
 756 1589 l 257
NamedP: "dv01"
 527 1853 l 257
NamedP: "hr00"
317 1493 m 257
NamedP: "at01"
 1249 1493 l 257
 1198 1233 l 257
NamedP: "sv01"
 563 1233 l 257
 500 911 l 257
 1075 911 l 257
NamedP: "dv04"
 1026 651 l 257
NamedP: "dv03"
 451 651 l 257
 375 260 l 257
NamedP: "sv02"
 1010 260 l 257
 958 0 l 257
NamedP: "ab01"
 29 0 l 257
 317 1493 l 257
NamedP: "at01"
EndSplineSet
PickledDataWithLists: "(dp1
S'com.schriftgestaltung.Glyphs.lastChange'
p2
S'2017-07-11 17:15:08 +0000'
p3
s."
EndChar

StartChar: Emacron
Encoding: 34 274 34
GlifName: E_macron
Width: 1233
VWidth: 0
Flags: W
LayerCount: 2
Fore
SplineSet
540 1850 m 257
NamedP: "hr00"
 1171 1850 l 257
NamedP: "dv02"
 1135 1662 l 257
NamedP: "dv01"
 504 1662 l 257
 540 1850 l 257
NamedP: "hr00"
317 1493 m 257
NamedP: "at01"
 1249 1493 l 257
 1198 1233 l 257
NamedP: "sv01"
 563 1233 l 257
 500 911 l 257
 1075 911 l 257
NamedP: "dv04"
 1026 651 l 257
NamedP: "dv03"
 451 651 l 257
 375 260 l 257
NamedP: "sv02"
 1010 260 l 257
 958 0 l 257
NamedP: "ab01"
 29 0 l 257
 317 1493 l 257
NamedP: "at01"
EndSplineSet
PickledDataWithLists: "(dp1
S'com.schriftgestaltung.Glyphs.lastChange'
p2
S'2017-07-11 17:15:08 +0000'
p3
s."
EndChar

StartChar: Eng
Encoding: 35 330 35
GlifName: E_ng
Width: 1233
VWidth: 0
Flags: W
LayerCount: 2
Fore
SplineSet
447 -199 m 257
NamedP: "sv01"
 484 -199 l 258
 617 -199 678 -133 713 44 c 258
 902 1015 l 258
 909 1050 912 1082 912 1107 c 256
NamedP: "dh02"
 912 1210 861 1255 758 1255 c 256
NamedP: "sv02"
 600 1255 498 1145 463 972 c 257
 274 0 l 257
NamedP: "hr01"
 -21 0 l 257
 270 1493 l 257
NamedP: "at01"
 536 1493 l 257
NamedP: "sh01"
 518 1253 l 257
NamedP: "sh02"
 602 1425 741 1522 916 1522 c 256
NamedP: "sv03"
 1107 1522 1207 1407 1207 1172 c 256
NamedP: "sh03"
 1207 1105 1199 1029 1182 942 c 258
 1010 58 l 258
 940 -298 801 -426 524 -426 c 258
NamedP: "dh01"
 403 -426 l 257
 447 -199 l 257
NamedP: "sv01"
EndSplineSet
PickledDataWithLists: "(dp1
S'com.schriftgestaltung.Glyphs.lastChange'
p2
S'2017-07-11 17:15:08 +0000'
p3
s."
EndChar

StartChar: Eogonek
Encoding: 36 280 36
GlifName: E_ogonek
Width: 1233
VWidth: 0
Flags: W
LayerCount: 2
Fore
SplineSet
563 1233 m 257
NamedP: "hr00"
 500 911 l 257
 1075 911 l 257
NamedP: "dv04"
 1026 651 l 257
NamedP: "dv03"
 451 651 l 257
 375 260 l 257
NamedP: "sv01"
 1010 260 l 257
NamedP: "sv02"
 958 0 l 257
NamedP: "ab01"
 828 0 l 257
 778 -53 745 -92 729 -117 c 256
 713 -142 705 -162 705 -182 c 256
NamedP: "dh02"
 705 -221 736 -254 805 -254 c 256
NamedP: "dv02"
 841 -254 898 -246 961 -223 c 257
 930 -379 l 257
 865 -394 802 -401 751 -401 c 256
NamedP: "dv01"
 614 -401 531 -350 531 -255 c 256
NamedP: "dh01"
 531 -183 579 -95 687 0 c 257
NamedP: "ih01"
 29 0 l 257
 317 1493 l 257
NamedP: "at01"
 1249 1493 l 257
 1198 1233 l 257
 563 1233 l 257
NamedP: "hr00"
EndSplineSet
PickledDataWithLists: "(dp1
S'com.schriftgestaltung.Glyphs.lastChange'
p2
S'2017-07-11 17:15:08 +0000'
p3
s."
EndChar

StartChar: Epsilon
Encoding: 37 917 37
GlifName: E_psilon
Width: 1233
VWidth: 0
Flags: W
LayerCount: 2
Fore
SplineSet
317 1493 m 257
NamedP: "hr00"
 1249 1493 l 257
 1198 1233 l 257
NamedP: "sv01"
 563 1233 l 257
 500 911 l 257
 1075 911 l 257
NamedP: "dv02"
 1026 651 l 257
NamedP: "dv01"
 451 651 l 257
 375 260 l 257
NamedP: "sv02"
 1010 260 l 257
 958 0 l 257
NamedP: "ab01"
 29 0 l 257
 317 1493 l 257
NamedP: "hr00"
EndSplineSet
PickledDataWithLists: "(dp1
S'com.schriftgestaltung.Glyphs.lastChange'
p2
S'2017-07-11 17:15:08 +0000'
p3
s."
EndChar

StartChar: Epsilontonos
Encoding: 38 904 38
GlifName: E_psilontonos
Width: 1233
VWidth: 0
Flags: W
LayerCount: 2
Fore
SplineSet
-79 1502 m 257
NamedP: "at01"
 242 1502 l 257
 -200 1126 l 257
NamedP: "at03"
 -397 1126 l 257
NamedP: "iv01"
 -79 1502 l 257
NamedP: "at01"
297 1493 m 257
NamedP: "at02"
 1229 1493 l 257
 1178 1233 l 257
NamedP: "sv01"
 543 1233 l 257
 480 911 l 257
 1055 911 l 257
NamedP: "dv02"
 1006 651 l 257
NamedP: "dv01"
 431 651 l 257
 355 260 l 257
NamedP: "sv02"
 990 260 l 257
 938 0 l 257
NamedP: "hr01"
 9 0 l 257
 297 1493 l 257
NamedP: "at02"
EndSplineSet
PickledDataWithLists: "(dp1
S'com.schriftgestaltung.Glyphs.lastChange'
p2
S'2017-07-11 17:15:08 +0000'
p3
s."
EndChar

StartChar: Eta
Encoding: 39 919 39
GlifName: E_ta
Width: 1233
VWidth: 0
Flags: W
LayerCount: 2
Fore
SplineSet
283 1493 m 257
NamedP: "hr00"
 578 1493 l 257
 467 924 l 257
 836 924 l 257
NamedP: "dv02"
 946 1493 l 257
NamedP: "at01"
 1241 1493 l 257
 950 0 l 257
NamedP: "ab01"
 655 0 l 257
 784 664 l 257
NamedP: "dv01"
 416 664 l 257
 287 0 l 257
NamedP: "ab02"
 -8 0 l 257
 283 1493 l 257
NamedP: "hr00"
EndSplineSet
PickledDataWithLists: "(dp1
S'com.schriftgestaltung.Glyphs.lastChange'
p2
S'2017-07-11 17:15:08 +0000'
p3
s."
EndChar

StartChar: Etatonos
Encoding: 40 905 40
GlifName: E_tatonos
Width: 1233
VWidth: 0
Flags: W
LayerCount: 2
Fore
SplineSet
-82 1502 m 257
NamedP: "at01"
 239 1502 l 257
 -203 1126 l 257
NamedP: "at04"
 -400 1126 l 257
NamedP: "iv01"
 -82 1502 l 257
NamedP: "at01"
283 1493 m 257
NamedP: "at02"
 578 1493 l 257
 467 924 l 257
 836 924 l 257
NamedP: "dv02"
 946 1493 l 257
NamedP: "at03"
 1241 1493 l 257
 950 0 l 257
NamedP: "ab01"
 655 0 l 257
 784 664 l 257
NamedP: "dv01"
 416 664 l 257
 287 0 l 257
NamedP: "hr01"
 -8 0 l 257
 283 1493 l 257
NamedP: "at02"
EndSplineSet
PickledDataWithLists: "(dp1
S'com.schriftgestaltung.Glyphs.lastChange'
p2
S'2017-07-11 17:15:08 +0000'
p3
s."
EndChar

StartChar: Eth
Encoding: 41 208 41
GlifName: E_th
Width: 1233
VWidth: 0
Flags: W
LayerCount: 2
Fore
SplineSet
151 664 m 257
NamedP: "hr00"
 14 664 l 257
 61 901 l 257
 196 901 l 257
NamedP: "dv01"
 313 1493 l 257
NamedP: "at01"
 628 1493 l 258
 813 1493 959 1454 1055 1370 c 256
 1148 1289 1195 1163 1195 996 c 256
NamedP: "dh02"
 1195 948 1191 877 1182 814 c 256
 1174 759 1157 669 1141 603 c 256
 1114 495 1080 407 1051 347 c 256
 1011 264 967 210 927 171 c 256
 863 108 785 67 701 40 c 256
 609 12 497 0 352 0 c 258
NamedP: "ab01"
 22 0 l 257
 151 664 l 257
NamedP: "hr00"
464 266 m 258
NamedP: "sv01"
 539 266 602 281 653 310 c 256
 709 341 744 385 773 442 c 256
 805 506 837 599 858 695 c 256
 881 795 890 892 890 960 c 256
NamedP: "dh01"
 890 1057 869 1120 828 1163 c 256
 786 1206 722 1227 636 1227 c 258
NamedP: "sv02"
 554 1227 l 257
 491 901 l 257
NamedP: "sv03"
 702 901 l 257
 657 664 l 257
NamedP: "sv04"
 446 664 l 257
 368 266 l 257
 464 266 l 258
NamedP: "sv01"
EndSplineSet
PickledDataWithLists: "(dp1
S'com.schriftgestaltung.Glyphs.lastChange'
p2
S'2017-07-11 17:15:08 +0000'
p3
s."
EndChar

StartChar: Euro
Encoding: 42 8364 42
GlifName: E_uro
Width: 1233
VWidth: 0
Flags: W
LayerCount: 2
Fore
SplineSet
651 -29 m 256
NamedP: "hr00"
 492 -29 374 21 294 105 c 256
 210 194 168 320 168 477 c 258
 168 483 l 257
NamedP: "dv02"
 -33 483 l 257
 51 670 l 257
 178 670 l 257
NamedP: "dv03"
 182 707 185 724 190 751 c 256
 194 772 197 786 205 821 c 257
NamedP: "dv04"
 29 821 l 257
 113 1010 l 257
 260 1010 l 257
NamedP: "dv05"
 323 1176 411 1302 524 1389 c 256
 639 1476 772 1520 924 1520 c 256
NamedP: "at01"
 979 1520 1032 1514 1084 1502 c 256
 1135 1490 1186 1472 1235 1448 c 257
 1171 1120 l 257
 1132 1173 1086 1211 1046 1234 c 256
 999 1261 947 1272 896 1272 c 256
NamedP: "sv01"
 828 1272 763 1250 706 1205 c 256
 650 1161 602 1098 563 1010 c 257
NamedP: "sv02"
 965 1010 l 257
 883 821 l 257
NamedP: "sv03"
 498 821 l 257
 493 805 485 759 482 745 c 258
 467 670 l 257
NamedP: "sv04"
 813 670 l 257
 731 483 l 257
NamedP: "sv05"
 453 483 l 257
 458 400 482 335 524 289 c 256
 567 242 623 219 694 219 c 256
NamedP: "dv01"
 742 219 793 229 842 250 c 256
 889 270 947 307 1030 371 c 257
 967 43 l 257
 916 19 864 1 813 -11 c 256
 760 -23 706 -29 651 -29 c 256
NamedP: "hr00"
EndSplineSet
PickledDataWithLists: "(dp1
S'com.schriftgestaltung.Glyphs.lastChange'
p2
S'2017-07-11 17:15:08 +0000'
p3
s."
EndChar

StartChar: F
Encoding: 43 70 43
GlifName: F_
Width: 1233
VWidth: 0
Flags: W
LayerCount: 2
Fore
SplineSet
338 1493 m 257
NamedP: "hr00"
 1268 1493 l 257
 1217 1233 l 257
NamedP: "sv01"
 582 1233 l 257
 520 901 l 257
 1098 901 l 257
NamedP: "dv02"
 1047 641 l 257
NamedP: "dv01"
 469 641 l 257
 342 0 l 257
NamedP: "ab01"
 47 0 l 257
 338 1493 l 257
NamedP: "hr00"
EndSplineSet
PickledDataWithLists: "(dp1
S'com.schriftgestaltung.Glyphs.lastChange'
p2
S'2017-07-11 17:15:08 +0000'
p3
s."
EndChar

StartChar: G
Encoding: 44 71 44
GlifName: G_
Width: 1233
VWidth: 0
Flags: W
LayerCount: 2
Fore
SplineSet
611 -29 m 256
NamedP: "hr00"
 440 -29 319 24 235 115 c 256
 142 216 102 359 102 528 c 256
NamedP: "dh01"
 102 656 125 805 174 949 c 256
 217 1074 282 1197 367 1294 c 256
 427 1362 502 1422 595 1463 c 256
 682 1501 775 1520 876 1520 c 256
NamedP: "at01"
 932 1520 984 1514 1037 1502 c 256
 1080 1491 1137 1475 1192 1448 c 257
 1126 1120 l 257
 1092 1165 1052 1199 1006 1222 c 256
 959 1245 910 1257 857 1257 c 256
NamedP: "sv01"
 805 1257 760 1245 721 1228 c 256
 681 1209 644 1184 605 1141 c 256
 574 1108 552 1072 529 1031 c 256
 508 992 488 948 469 891 c 256
 449 831 431 762 420 702 c 256
 409 639 403 583 403 533 c 256
NamedP: "dh02"
 403 424 431 353 467 309 c 256
 512 253 576 231 648 231 c 256
NamedP: "dv01"
 673 231 692 233 715 240 c 256
 731 244 750 249 770 264 c 257
 827 555 l 257
 621 555 l 257
NamedP: "dv02"
 670 803 l 257
NamedP: "dv03"
 1130 803 l 257
 991 94 l 257
 943 54 887 24 823 3 c 256
 757 -18 686 -29 611 -29 c 256
NamedP: "hr00"
EndSplineSet
PickledDataWithLists: "(dp1
S'com.schriftgestaltung.Glyphs.lastChange'
p2
S'2017-07-11 17:15:08 +0000'
p3
s."
EndChar

StartChar: Gamma
Encoding: 45 915 45
GlifName: G_amma
Width: 1233
VWidth: 0
Flags: W
LayerCount: 2
Fore
SplineSet
342 1493 m 257
NamedP: "hr00"
 1272 1493 l 257
 1222 1233 l 257
NamedP: "sv01"
 587 1233 l 257
 347 0 l 257
NamedP: "ab01"
 52 0 l 257
 342 1493 l 257
NamedP: "hr00"
EndSplineSet
PickledDataWithLists: "(dp1
S'com.schriftgestaltung.Glyphs.lastChange'
p2
S'2017-07-11 17:15:08 +0000'
p3
s."
EndChar

StartChar: Gbreve
Encoding: 46 286 46
GlifName: G_breve
Width: 1233
VWidth: 0
Flags: W
LayerCount: 2
Fore
SplineSet
807 1588 m 256
NamedP: "dv03"
 711 1588 644 1611 595 1656 c 256
 546 1701 521 1765 521 1848 c 258
 521 1852 l 257
 664 1852 l 257
NamedP: "sv01"
 671 1812 688 1783 715 1765 c 256
 742 1746 781 1737 832 1737 c 256
NamedP: "dv04"
 885 1737 923 1747 959 1768 c 256
 995 1789 1020 1817 1035 1852 c 257
NamedP: "sv02"
 1189 1852 l 257
 1162 1766 1116 1701 1050 1656 c 256
 983 1611 902 1588 807 1588 c 256
NamedP: "dv03"
611 -29 m 256
NamedP: "dv01"
 440 -29 319 24 235 115 c 256
 142 216 102 359 102 528 c 256
NamedP: "dh01"
 102 656 125 805 174 949 c 256
 217 1074 282 1197 367 1294 c 256
 427 1362 502 1422 595 1463 c 256
 682 1501 775 1520 876 1520 c 256
NamedP: "at01"
 932 1520 984 1514 1037 1502 c 256
 1080 1491 1137 1475 1192 1448 c 257
 1126 1120 l 257
 1092 1165 1052 1199 1006 1222 c 256
 959 1245 910 1257 857 1257 c 256
NamedP: "sv03"
 805 1257 760 1245 721 1228 c 256
 681 1209 644 1184 605 1141 c 256
 574 1108 552 1072 529 1031 c 256
 508 992 488 948 469 891 c 256
 449 831 431 762 420 702 c 256
 409 639 403 583 403 533 c 256
NamedP: "dh02"
 403 424 431 353 467 309 c 256
 512 253 576 231 648 231 c 256
NamedP: "dv02"
 673 231 692 233 715 240 c 256
 731 244 750 249 770 264 c 257
 827 555 l 257
 621 555 l 257
NamedP: "hr01"
 670 803 l 257
NamedP: "dv05"
 1130 803 l 257
NamedP: "hr02"
 991 94 l 257
 943 54 887 24 823 3 c 256
 757 -18 686 -29 611 -29 c 256
NamedP: "dv01"
EndSplineSet
PickledDataWithLists: "(dp1
S'com.schriftgestaltung.Glyphs.lastChange'
p2
S'2017-07-11 17:15:08 +0000'
p3
s."
EndChar

StartChar: Gcaron
Encoding: 47 486 47
GlifName: G_caron
Width: 1233
VWidth: 0
Flags: W
LayerCount: 2
Fore
SplineSet
505 1853 m 257
NamedP: "hr00"
 675 1853 l 257
 824 1691 l 257
 1053 1853 l 257
NamedP: "dv04"
 1234 1853 l 257
 990 1589 l 257
NamedP: "dv03"
 642 1589 l 257
 505 1853 l 257
NamedP: "hr00"
610 -29 m 256
NamedP: "dv01"
 287 -29 102 168 102 533 c 256
NamedP: "dh01"
 102 805 204 1110 367 1294 c 256
 499 1443 674 1520 875 1520 c 256
NamedP: "at01"
 987 1520 1088 1496 1192 1448 c 257
 1126 1120 l 257
 1058 1209 964 1257 857 1257 c 256
NamedP: "sv01"
 764 1257 676 1221 604 1141 c 256
 545 1077 504 991 469 891 c 256
 429 777 403 638 403 533 c 256
NamedP: "dh02"
 403 338 492 231 645 231 c 256
NamedP: "dv02"
 695 231 737 242 770 264 c 257
 827 555 l 257
 621 555 l 257
NamedP: "dv05"
 670 803 l 257
NamedP: "dv06"
 1130 803 l 257
 991 94 l 257
 898 14 763 -29 610 -29 c 256
NamedP: "dv01"
EndSplineSet
PickledDataWithLists: "(dp1
S'com.schriftgestaltung.Glyphs.lastChange'
p2
S'2017-07-11 17:15:08 +0000'
p3
s."
EndChar

StartChar: Gcircumflex
Encoding: 48 284 48
GlifName: G_circumflex
Width: 1233
VWidth: 0
Flags: W
LayerCount: 2
Fore
SplineSet
814 1852 m 257
NamedP: "hr00"
 1123 1852 l 257
 1295 1588 l 257
 1117 1588 l 257
 949 1749 l 257
 720 1588 l 257
 542 1588 l 257
 814 1852 l 257
NamedP: "hr00"
95 492 m 256
 95 569 104 654 122 747 c 256
 155 914 207 1055 276 1170 c 256
 416 1401 625 1520 888 1520 c 256
 1013 1520 1122 1487 1213 1421 c 257
 1150 1094 l 257
 1088 1201 992 1255 863 1255 c 256
 636 1255 496 1091 429 747 c 257
 414 663 406 593 406 538 c 256
 406 341 488 236 644 236 c 256
 677 236 704 239 725 245 c 256
 752 252 764 257 785 270 c 257
 840 555 l 257
 638 555 l 257
 686 803 l 257
 1146 803 l 257
 1013 119 l 257
 881 22 731 -29 575 -29 c 256
 263 -29 95 156 95 492 c 256
EndSplineSet
PickledDataWithLists: "(dp1
S'com.schriftgestaltung.Glyphs.lastChange'
p2
S'2017-07-11 17:15:08 +0000'
p3
s."
EndChar

StartChar: Gdotaccent
Encoding: 49 288 49
GlifName: G_dotaccent
Width: 1233
VWidth: 0
Flags: W
LayerCount: 2
Fore
SplineSet
738 1607 m 258
NamedP: "hr00"
 717 1607 707 1620 711 1640 c 258
 748 1826 l 257
 751 1844 761 1853 780 1853 c 258
NamedP: "dv03"
 995 1853 l 258
 1016 1853 1026 1840 1022 1820 c 258
 985 1634 l 258
 982 1616 971 1607 953 1607 c 258
 738 1607 l 258
NamedP: "hr00"
610 -29 m 256
NamedP: "dv01"
 287 -29 102 168 102 533 c 256
NamedP: "dh01"
 102 805 204 1110 367 1294 c 256
 499 1443 674 1520 875 1520 c 256
NamedP: "at01"
 987 1520 1088 1496 1192 1448 c 257
 1126 1120 l 257
 1058 1209 964 1257 857 1257 c 256
NamedP: "sv01"
 764 1257 676 1221 604 1141 c 256
 545 1077 504 991 469 891 c 256
 429 777 403 638 403 533 c 256
NamedP: "dh02"
 403 338 492 231 645 231 c 256
NamedP: "dv02"
 695 231 737 242 770 264 c 257
 827 555 l 257
 621 555 l 257
NamedP: "dv04"
 670 803 l 257
NamedP: "dv05"
 1130 803 l 257
 991 94 l 257
 898 14 763 -29 610 -29 c 256
NamedP: "dv01"
EndSplineSet
PickledDataWithLists: "(dp1
S'com.schriftgestaltung.Glyphs.lastChange'
p2
S'2017-07-11 17:15:08 +0000'
p3
s."
EndChar

StartChar: H
Encoding: 50 72 50
GlifName: H_
Width: 1233
VWidth: 0
Flags: W
LayerCount: 2
Fore
SplineSet
283 1493 m 257
NamedP: "hr00"
 578 1493 l 257
 467 924 l 257
 836 924 l 257
NamedP: "dv02"
 946 1493 l 257
NamedP: "at01"
 1241 1493 l 257
 950 0 l 257
NamedP: "ab01"
 655 0 l 257
 784 664 l 257
NamedP: "dv01"
 416 664 l 257
 287 0 l 257
NamedP: "ab02"
 -8 0 l 257
 283 1493 l 257
NamedP: "hr00"
EndSplineSet
PickledDataWithLists: "(dp1
S'com.schriftgestaltung.Glyphs.lastChange'
p2
S'2017-07-11 17:15:08 +0000'
p3
s."
EndChar

StartChar: Hbar
Encoding: 51 294 51
GlifName: H_bar
Width: 1233
VWidth: 0
Flags: W
LayerCount: 2
Fore
SplineSet
207 1105 m 257
NamedP: "sv01"
 73 1105 l 257
 105 1269 l 257
 239 1269 l 257
NamedP: "sv02"
 282 1493 l 257
NamedP: "at01"
 577 1493 l 257
 534 1269 l 257
NamedP: "sv03"
 903 1269 l 257
 946 1493 l 257
NamedP: "at02"
 1240 1493 l 257
 1197 1269 l 257
NamedP: "sv04"
 1332 1269 l 257
 1300 1105 l 257
NamedP: "sv05"
 1165 1105 l 257
NamedP: "sv06"
 950 0 l 257
NamedP: "hr01"
 656 0 l 257
 785 664 l 257
NamedP: "hr02"
 416 664 l 257
 287 0 l 257
NamedP: "hr03"
 -8 0 l 257
 207 1105 l 257
NamedP: "sv01"
836 924 m 257
NamedP: "hr04"
 871 1105 l 257
NamedP: "sv07"
 502 1105 l 257
NamedP: "sv08"
 467 924 l 257
 836 924 l 257
NamedP: "hr04"
EndSplineSet
PickledDataWithLists: "(dp1
S'com.schriftgestaltung.Glyphs.lastChange'
p2
S'2017-07-11 17:15:08 +0000'
p3
s."
EndChar

StartChar: Hcircumflex
Encoding: 52 292 52
GlifName: H_circumflex
Width: 1233
VWidth: 0
Flags: W
LayerCount: 2
Fore
SplineSet
676 1852 m 257
NamedP: "hr00"
 985 1852 l 257
 1157 1588 l 257
 979 1588 l 257
 811 1749 l 257
 582 1588 l 257
 404 1588 l 257
 676 1852 l 257
NamedP: "hr00"
282 1493 m 257
 577 1493 l 257
 467 924 l 257
 836 924 l 257
 946 1493 l 257
 1241 1493 l 257
 951 0 l 257
 656 0 l 257
 785 664 l 257
 416 664 l 257
 287 0 l 257
 -8 0 l 257
 282 1493 l 257
EndSplineSet
PickledDataWithLists: "(dp1
S'com.schriftgestaltung.Glyphs.lastChange'
p2
S'2017-07-11 17:15:08 +0000'
p3
s."
EndChar

StartChar: I
Encoding: 53 73 53
GlifName: I_
Width: 1233
VWidth: 0
Flags: W
LayerCount: 2
Fore
SplineSet
78 260 m 257
NamedP: "hr00"
 375 260 l 257
 563 1233 l 257
NamedP: "sv01"
 266 1233 l 257
 317 1493 l 257
NamedP: "at01"
 1206 1493 l 257
 1155 1233 l 257
NamedP: "sv02"
 858 1233 l 257
NamedP: "sv03"
 670 260 l 257
NamedP: "sv04"
 967 260 l 257
NamedP: "sv05"
 915 0 l 257
NamedP: "ab01"
 27 0 l 257
 78 260 l 257
NamedP: "hr00"
EndSplineSet
PickledDataWithLists: "(dp1
S'com.schriftgestaltung.Glyphs.lastChange'
p2
S'2017-07-11 17:15:08 +0000'
p3
s."
EndChar

StartChar: IJ
Encoding: 54 306 54
GlifName: I_J_
Width: 1233
VWidth: 0
Flags: W
LayerCount: 2
Fore
SplineSet
83 295 m 257
NamedP: "hr00"
 457 295 l 258
 510 295 562 308 613 335 c 256
 714 387 789 483 809 590 c 257
 985 1494 l 257
 1279 1494 l 257
 1104 590 l 258
 1083 483 1037 384 968 295 c 256
 827 112 612 0 400 0 c 258
 26 0 l 257
NamedP: "hr01"
 83 295 l 257
NamedP: "hr00"
316 1493 m 257
 611 1493 l 257
 435 590 l 257
 140 590 l 257
 316 1493 l 257
EndSplineSet
PickledDataWithLists: "(dp1
S'com.schriftgestaltung.Glyphs.lastChange'
p2
S'2017-07-11 17:15:08 +0000'
p3
s."
EndChar

StartChar: Iacute
Encoding: 55 205 55
GlifName: I_acute
Width: 1233
VWidth: 0
Flags: W
LayerCount: 2
Fore
SplineSet
858 1853 m 257
NamedP: "hr00"
 1139 1853 l 257
 819 1589 l 257
 612 1589 l 257
NamedP: "iv01"
 858 1853 l 257
NamedP: "hr00"
78 260 m 257
NamedP: "sv01"
 375 260 l 257
 563 1233 l 257
NamedP: "sv02"
 266 1233 l 257
 317 1493 l 257
NamedP: "at01"
 1206 1493 l 257
 1155 1233 l 257
NamedP: "sv03"
 858 1233 l 257
NamedP: "sv04"
 670 260 l 257
NamedP: "sv05"
 967 260 l 257
NamedP: "sv06"
 915 0 l 257
NamedP: "ab01"
 27 0 l 257
 78 260 l 257
NamedP: "sv01"
EndSplineSet
PickledDataWithLists: "(dp1
S'com.schriftgestaltung.Glyphs.lastChange'
p2
S'2017-07-11 17:15:08 +0000'
p3
s."
EndChar

StartChar: Icircumflex
Encoding: 56 206 56
GlifName: I_circumflex
Width: 1233
VWidth: 0
Flags: W
LayerCount: 2
Fore
SplineSet
645 1853 m 257
NamedP: "hr00"
 993 1853 l 257
NamedP: "dv02"
 1144 1589 l 257
 975 1589 l 257
NamedP: "dv01"
 811 1750 l 257
 581 1589 l 257
NamedP: "sv01"
 401 1589 l 257
 645 1853 l 257
NamedP: "hr00"
78 260 m 257
NamedP: "sv02"
 375 260 l 257
 563 1233 l 257
NamedP: "sv03"
 266 1233 l 257
 317 1493 l 257
NamedP: "at01"
 1206 1493 l 257
 1155 1233 l 257
NamedP: "sv04"
 858 1233 l 257
NamedP: "sv05"
 670 260 l 257
NamedP: "sv06"
 967 260 l 257
NamedP: "sv07"
 915 0 l 257
NamedP: "ab01"
 27 0 l 257
 78 260 l 257
NamedP: "sv02"
EndSplineSet
PickledDataWithLists: "(dp1
S'com.schriftgestaltung.Glyphs.lastChange'
p2
S'2017-07-11 17:15:08 +0000'
p3
s."
EndChar

StartChar: Idieresis
Encoding: 57 207 57
GlifName: I_dieresis
Width: 1233
VWidth: 0
Flags: W
LayerCount: 2
Fore
SplineSet
493 1606 m 258
NamedP: "hr00"
 475 1606 466 1614 466 1630 c 256
 466 1634 466 1637 467 1639 c 258
 505 1825 l 258
 509 1843 520 1852 537 1852 c 258
NamedP: "dv01"
 712 1852 l 258
 730 1852 739 1844 739 1828 c 256
 739 1824 739 1821 738 1819 c 258
 701 1633 l 258
 698 1615 687 1606 669 1606 c 258
 493 1606 l 258
NamedP: "hr00"
889 1606 m 258
NamedP: "sv01"
 871 1606 862 1614 862 1630 c 256
 862 1634 862 1637 863 1639 c 258
 900 1825 l 257
 903 1843 913 1852 932 1852 c 258
NamedP: "sv02"
 1107 1852 l 258
 1127 1852 1138 1839 1134 1819 c 258
 1098 1633 l 258
 1095 1615 1084 1606 1066 1606 c 258
 889 1606 l 258
NamedP: "sv01"
78 260 m 257
NamedP: "sv03"
 375 260 l 257
 563 1233 l 257
NamedP: "sv04"
 266 1233 l 257
 317 1493 l 257
NamedP: "at01"
 1206 1493 l 257
 1155 1233 l 257
NamedP: "sv05"
 858 1233 l 257
NamedP: "sv06"
 670 260 l 257
NamedP: "sv07"
 967 260 l 257
NamedP: "sv08"
 915 0 l 257
NamedP: "ab01"
 27 0 l 257
 78 260 l 257
NamedP: "sv03"
EndSplineSet
PickledDataWithLists: "(dp1
S'com.schriftgestaltung.Glyphs.lastChange'
p2
S'2017-07-11 17:15:08 +0000'
p3
s."
EndChar

StartChar: Idotaccent
Encoding: 58 304 58
GlifName: I_dotaccent
Width: 1233
VWidth: 0
Flags: W
LayerCount: 2
Fore
SplineSet
674 1607 m 258
NamedP: "hr00"
 654 1607 643 1620 647 1640 c 258
 683 1826 l 257
 686 1844 696 1853 715 1853 c 258
NamedP: "dv01"
 929 1853 l 258
 949 1853 960 1840 956 1820 c 258
 920 1634 l 258
 917 1616 906 1607 888 1607 c 258
 674 1607 l 258
NamedP: "hr00"
78 260 m 257
NamedP: "sv01"
 375 260 l 257
 563 1233 l 257
NamedP: "sv02"
 266 1233 l 257
 317 1493 l 257
NamedP: "at01"
 1206 1493 l 257
 1155 1233 l 257
NamedP: "sv03"
 858 1233 l 257
NamedP: "sv04"
 670 260 l 257
NamedP: "sv05"
 967 260 l 257
NamedP: "sv06"
 915 0 l 257
NamedP: "ab01"
 27 0 l 257
 78 260 l 257
NamedP: "sv01"
EndSplineSet
PickledDataWithLists: "(dp1
S'com.schriftgestaltung.Glyphs.lastChange'
p2
S'2017-07-11 17:15:08 +0000'
p3
s."
EndChar

StartChar: Igrave
Encoding: 59 204 59
GlifName: I_grave
Width: 1233
VWidth: 0
Flags: W
LayerCount: 2
Fore
SplineSet
496 1853 m 257
NamedP: "hr00"
 760 1853 l 257
NamedP: "dv02"
 903 1589 l 257
 725 1589 l 257
NamedP: "dv01"
 496 1853 l 257
NamedP: "hr00"
78 260 m 257
NamedP: "sv01"
 375 260 l 257
 563 1233 l 257
NamedP: "sv02"
 266 1233 l 257
 317 1493 l 257
NamedP: "at01"
 1206 1493 l 257
 1155 1233 l 257
NamedP: "sv03"
 858 1233 l 257
NamedP: "sv04"
 670 260 l 257
NamedP: "sv05"
 967 260 l 257
NamedP: "sv06"
 915 0 l 257
NamedP: "ab01"
 27 0 l 257
 78 260 l 257
NamedP: "sv01"
EndSplineSet
PickledDataWithLists: "(dp1
S'com.schriftgestaltung.Glyphs.lastChange'
p2
S'2017-07-11 17:15:08 +0000'
p3
s."
EndChar

StartChar: Imacron
Encoding: 60 298 60
GlifName: I_macron
Width: 1233
VWidth: 0
Flags: W
LayerCount: 2
Fore
SplineSet
519 1850 m 257
NamedP: "hr00"
 1150 1850 l 257
NamedP: "dv02"
 1114 1662 l 257
NamedP: "dv01"
 483 1662 l 257
 519 1850 l 257
NamedP: "hr00"
78 260 m 257
NamedP: "sv01"
 375 260 l 257
 563 1233 l 257
NamedP: "sv02"
 266 1233 l 257
 317 1493 l 257
NamedP: "at01"
 1206 1493 l 257
 1155 1233 l 257
NamedP: "sv03"
 858 1233 l 257
NamedP: "sv04"
 670 260 l 257
NamedP: "sv05"
 967 260 l 257
NamedP: "sv06"
 915 0 l 257
NamedP: "ab01"
 27 0 l 257
 78 260 l 257
NamedP: "sv01"
EndSplineSet
PickledDataWithLists: "(dp1
S'com.schriftgestaltung.Glyphs.lastChange'
p2
S'2017-07-11 17:15:08 +0000'
p3
s."
EndChar

StartChar: Iogonek
Encoding: 61 302 61
GlifName: I_ogonek
Width: 1233
VWidth: 0
Flags: W
LayerCount: 2
Fore
SplineSet
858 1233 m 257
NamedP: "hr00"
 670 260 l 257
NamedP: "sv01"
 967 260 l 257
NamedP: "sv02"
 915 0 l 257
NamedP: "ab01"
 618 0 l 257
 568 -53 535 -92 519 -117 c 256
 503 -142 495 -162 495 -182 c 256
NamedP: "dh02"
 495 -221 526 -254 595 -254 c 256
NamedP: "dv02"
 631 -254 688 -246 751 -223 c 257
 720 -379 l 257
 655 -394 592 -401 541 -401 c 256
NamedP: "dv01"
 404 -401 321 -350 321 -255 c 256
NamedP: "dh01"
 321 -183 369 -95 477 0 c 257
NamedP: "ih01"
 27 0 l 257
 78 260 l 257
NamedP: "sv03"
 375 260 l 257
NamedP: "sv04"
 563 1233 l 257
NamedP: "sv05"
 266 1233 l 257
NamedP: "sv06"
 317 1493 l 257
NamedP: "sh01"
 1206 1493 l 257
 1155 1233 l 257
 858 1233 l 257
NamedP: "hr00"
EndSplineSet
PickledDataWithLists: "(dp1
S'com.schriftgestaltung.Glyphs.lastChange'
p2
S'2017-07-11 17:15:08 +0000'
p3
s."
EndChar

StartChar: Iota
Encoding: 62 921 62
GlifName: I_ota
Width: 1233
VWidth: 0
Flags: W
LayerCount: 2
Fore
SplineSet
78 260 m 257
NamedP: "hr00"
 375 260 l 257
 563 1233 l 257
NamedP: "sv01"
 266 1233 l 257
 317 1493 l 257
NamedP: "at01"
 1206 1493 l 257
 1155 1233 l 257
NamedP: "sv02"
 858 1233 l 257
NamedP: "sv03"
 670 260 l 257
NamedP: "sv04"
 967 260 l 257
NamedP: "sv05"
 915 0 l 257
NamedP: "ab01"
 27 0 l 257
 78 260 l 257
NamedP: "hr00"
EndSplineSet
PickledDataWithLists: "(dp1
S'com.schriftgestaltung.Glyphs.lastChange'
p2
S'2017-07-11 17:15:08 +0000'
p3
s."
EndChar

StartChar: Iotadieresis
Encoding: 63 938 63
GlifName: I_otadieresis
Width: 1233
VWidth: 0
Flags: W
LayerCount: 2
Fore
SplineSet
473 1608 m 258
NamedP: "hr00"
 452 1608 443 1621 447 1641 c 258
 485 1827 l 258
 489 1845 500 1854 517 1854 c 258
NamedP: "dv01"
 692 1854 l 258
 713 1854 722 1841 718 1821 c 258
 681 1635 l 258
 678 1617 667 1608 649 1608 c 258
 473 1608 l 258
NamedP: "hr00"
869 1608 m 258
NamedP: "sv01"
 848 1608 839 1621 843 1641 c 258
 880 1827 l 257
 883 1845 893 1854 912 1854 c 258
NamedP: "sv02"
 1087 1854 l 258
 1107 1854 1118 1841 1114 1821 c 258
 1078 1635 l 258
 1075 1617 1064 1608 1046 1608 c 258
 869 1608 l 258
NamedP: "sv01"
78 260 m 257
NamedP: "sv03"
 375 260 l 257
 563 1233 l 257
NamedP: "sv04"
 266 1233 l 257
 317 1493 l 257
NamedP: "at01"
 1206 1493 l 257
 1155 1233 l 257
NamedP: "sv05"
 858 1233 l 257
NamedP: "sv06"
 670 260 l 257
NamedP: "sv07"
 967 260 l 257
NamedP: "sv08"
 915 0 l 257
NamedP: "ab01"
 27 0 l 257
 78 260 l 257
NamedP: "sv03"
EndSplineSet
PickledDataWithLists: "(dp1
S'com.schriftgestaltung.Glyphs.lastChange'
p2
S'2017-07-11 17:15:08 +0000'
p3
s."
EndChar

StartChar: Iotatonos
Encoding: 64 906 64
GlifName: I_otatonos
Width: 1233
VWidth: 0
Flags: W
LayerCount: 2
Fore
SplineSet
-43 1502 m 257
NamedP: "at01"
 278 1502 l 257
 -164 1126 l 257
NamedP: "at03"
 -361 1126 l 257
NamedP: "iv01"
 -43 1502 l 257
NamedP: "at01"
78 260 m 257
NamedP: "sv01"
 375 260 l 257
 563 1233 l 257
NamedP: "sv02"
 266 1233 l 257
 317 1493 l 257
NamedP: "at02"
 1206 1493 l 257
 1155 1233 l 257
NamedP: "sv03"
 858 1233 l 257
NamedP: "sv04"
 670 260 l 257
NamedP: "sv05"
 967 260 l 257
NamedP: "sv06"
 915 0 l 257
NamedP: "hr01"
 27 0 l 257
 78 260 l 257
NamedP: "sv01"
EndSplineSet
PickledDataWithLists: "(dp1
S'com.schriftgestaltung.Glyphs.lastChange'
p2
S'2017-07-11 17:15:08 +0000'
p3
s."
EndChar

StartChar: Itilde
Encoding: 65 296 65
GlifName: I_tilde
Width: 1233
VWidth: 0
Flags: W
LayerCount: 2
Fore
SplineSet
428 1588 m 257
NamedP: "sv01"
 461 1761 553 1854 680 1854 c 256
NamedP: "dv02"
 731 1854 770 1839 817 1803 c 258
 870 1762 l 257
 891 1744 915 1735 940 1735 c 256
NamedP: "dv04"
 989 1735 1025 1777 1040 1854 c 257
NamedP: "sv02"
 1177 1854 l 257
 1142 1689 1058 1588 925 1588 c 256
NamedP: "dv03"
 878 1588 839 1600 788 1639 c 258
 739 1676 l 258
 706 1701 686 1708 666 1708 c 256
NamedP: "dv01"
 615 1708 580 1667 565 1588 c 257
 428 1588 l 257
NamedP: "sv01"
78 260 m 257
NamedP: "sv03"
 375 260 l 257
NamedP: "hr01"
 563 1233 l 257
NamedP: "sv04"
 266 1233 l 257
 317 1493 l 257
NamedP: "hr02"
 1206 1493 l 257
NamedP: "hr03"
 1155 1233 l 257
NamedP: "sv05"
 858 1233 l 257
NamedP: "hr04"
 670 260 l 257
NamedP: "sv06"
 967 260 l 257
NamedP: "sv07"
 915 0 l 257
NamedP: "hr05"
 27 0 l 257
NamedP: "hr06"
 78 260 l 257
NamedP: "sv03"
EndSplineSet
PickledDataWithLists: "(dp1
S'com.schriftgestaltung.Glyphs.lastChange'
p2
S'2017-07-11 17:15:08 +0000'
p3
s."
EndChar

StartChar: J
Encoding: 66 74 66
GlifName: J_
Width: 1233
VWidth: 0
Flags: W
LayerCount: 2
Fore
SplineSet
411 -29 m 256
NamedP: "hr00"
 338 -29 261 -20 192 -3 c 256
 131 12 56 39 -20 78 c 257
 45 422 l 257
 97 358 153 310 212 279 c 256
 271 247 335 231 406 231 c 256
NamedP: "dv01"
 481 231 537 249 575 285 c 256
 614 321 640 382 659 479 c 258
 807 1233 l 257
NamedP: "sv01"
 446 1233 l 257
 498 1493 l 257
NamedP: "at01"
 1153 1493 l 257
 954 479 l 258
 931 362 907 280 880 223 c 256
 826 110 732 37 614 -1 c 256
 553 -20 484 -29 411 -29 c 256
NamedP: "hr00"
EndSplineSet
PickledDataWithLists: "(dp1
S'com.schriftgestaltung.Glyphs.lastChange'
p2
S'2017-07-11 17:15:08 +0000'
p3
s."
EndChar

StartChar: Jcircumflex
Encoding: 67 308 67
GlifName: J_circumflex
Width: 1233
VWidth: 0
Flags: W
LayerCount: 2
Fore
SplineSet
915 1852 m 257
NamedP: "hr00"
 1224 1852 l 257
 1396 1588 l 257
 1218 1588 l 257
 1050 1749 l 257
 821 1588 l 257
 643 1588 l 257
 915 1852 l 257
NamedP: "hr00"
172 -3 m 257
 108 14 43 40 -22 74 c 257
 44 416 l 257
 129 303 255 236 390 236 c 256
 543 236 628 311 660 479 c 257
 807 1233 l 257
 446 1233 l 257
 496 1493 l 257
 1152 1493 l 257
 955 479 l 258
 920 296 856 166 765 89 c 257
 674 10 544 -29 373 -29 c 256
 308 -29 253 -22 172 -3 c 257
EndSplineSet
PickledDataWithLists: "(dp1
S'com.schriftgestaltung.Glyphs.lastChange'
p2
S'2017-07-11 17:15:08 +0000'
p3
s."
EndChar

StartChar: K
Encoding: 68 75 68
GlifName: K_
Width: 1233
VWidth: 0
Flags: W
LayerCount: 2
Fore
SplineSet
270 1493 m 257
NamedP: "hr00"
 565 1493 l 257
 457 936 l 257
NamedP: "iv01"
 1020 1493 l 257
NamedP: "at01"
 1368 1493 l 257
 762 889 l 257
 1100 0 l 257
NamedP: "ab01"
 797 0 l 257
 543 670 l 257
NamedP: "iv02"
 371 500 l 257
 276 0 l 257
NamedP: "ab02"
 -18 0 l 257
 270 1493 l 257
NamedP: "hr00"
EndSplineSet
PickledDataWithLists: "(dp1
S'com.schriftgestaltung.Glyphs.lastChange'
p2
S'2017-07-11 17:15:08 +0000'
p3
s."
EndChar

StartChar: Kappa
Encoding: 69 922 69
GlifName: K_appa
Width: 1233
VWidth: 0
Flags: W
LayerCount: 2
Fore
SplineSet
266 1493 m 257
NamedP: "hr00"
 561 1493 l 257
 453 936 l 257
NamedP: "iv01"
 1016 1493 l 257
NamedP: "at01"
 1364 1493 l 257
 758 889 l 257
 1096 0 l 257
NamedP: "ab01"
 793 0 l 257
 539 670 l 257
NamedP: "iv02"
 367 500 l 257
 272 0 l 257
NamedP: "ab02"
 -22 0 l 257
 266 1493 l 257
NamedP: "hr00"
EndSplineSet
PickledDataWithLists: "(dp1
S'com.schriftgestaltung.Glyphs.lastChange'
p2
S'2017-07-11 17:15:08 +0000'
p3
s."
EndChar

StartChar: L
Encoding: 70 76 70
GlifName: L_
Width: 1233
VWidth: 0
Flags: W
LayerCount: 2
Fore
SplineSet
371 1493 m 257
NamedP: "hr00"
 666 1493 l 257
 426 260 l 257
NamedP: "sv01"
 1057 260 l 257
 1006 0 l 257
NamedP: "ab01"
 80 0 l 257
 371 1493 l 257
NamedP: "hr00"
EndSplineSet
PickledDataWithLists: "(dp1
S'com.schriftgestaltung.Glyphs.lastChange'
p2
S'2017-07-11 17:15:08 +0000'
p3
s."
EndChar

StartChar: Lacute
Encoding: 71 313 71
GlifName: L_acute
Width: 1233
VWidth: 0
Flags: W
LayerCount: 2
Fore
SplineSet
858 1854 m 257
NamedP: "hr00"
 1139 1854 l 257
 819 1590 l 257
 612 1590 l 257
NamedP: "iv01"
 858 1854 l 257
NamedP: "hr00"
371 1493 m 257
NamedP: "at01"
 666 1493 l 257
 426 260 l 257
NamedP: "sv01"
 1057 260 l 257
 1006 0 l 257
NamedP: "ab01"
 80 0 l 257
 371 1493 l 257
NamedP: "at01"
EndSplineSet
PickledDataWithLists: "(dp1
S'com.schriftgestaltung.Glyphs.lastChange'
p2
S'2017-07-11 17:15:08 +0000'
p3
s."
EndChar

StartChar: Lambda
Encoding: 72 923 72
GlifName: L_ambda
Width: 1233
VWidth: 0
Flags: W
LayerCount: 2
Fore
SplineSet
590 1493 m 257
NamedP: "hr00"
 951 1493 l 257
 1064 0 l 257
NamedP: "ab01"
 769 0 l 257
 718 1223 l 257
NamedP: "iv01"
 192 0 l 257
NamedP: "ab02"
 -103 0 l 257
 590 1493 l 257
NamedP: "hr00"
EndSplineSet
PickledDataWithLists: "(dp1
S'com.schriftgestaltung.Glyphs.lastChange'
p2
S'2017-07-11 17:15:08 +0000'
p3
s."
EndChar

StartChar: Lcaron
Encoding: 73 317 73
GlifName: L_caron
Width: 1233
VWidth: 0
Flags: W
LayerCount: 2
Fore
SplineSet
371 1493 m 257
NamedP: "at01"
 666 1493 l 257
 426 260 l 257
NamedP: "sv01"
 1057 260 l 257
 1006 0 l 257
NamedP: "ab01"
 80 0 l 257
 371 1493 l 257
NamedP: "at01"
908 1492 m 257
NamedP: "at02"
 1229 1492 l 257
 972 1116 l 257
NamedP: "hr01"
 775 1116 l 257
 908 1492 l 257
NamedP: "at02"
EndSplineSet
PickledDataWithLists: "(dp1
S'com.schriftgestaltung.Glyphs.lastChange'
p2
S'2017-07-11 17:15:08 +0000'
p3
s."
EndChar

StartChar: Ldot
Encoding: 74 319 74
GlifName: L_dot
Width: 1233
VWidth: 0
Flags: W
LayerCount: 2
Fore
SplineSet
370 1493 m 257
NamedP: "hr00"
 665 1493 l 257
 426 260 l 257
 1057 260 l 257
 1006 0 l 257
 80 0 l 257
 370 1493 l 257
NamedP: "hr00"
686 686 m 257
 723 872 l 258
 727 892 739 902 758 902 c 258
 973 902 l 258
 990 902 999 895 999 881 c 256
 999 876 999 873 998 872 c 257
 961 686 l 257
 958 666 947 656 926 656 c 258
 711 656 l 258
 692 656 683 666 686 686 c 257
EndSplineSet
PickledDataWithLists: "(dp1
S'com.schriftgestaltung.Glyphs.lastChange'
p2
S'2017-07-11 17:15:08 +0000'
p3
s."
EndChar

StartChar: Lslash
Encoding: 75 321 75
GlifName: L_slash
Width: 1233
VWidth: 0
Flags: W
LayerCount: 2
Fore
SplineSet
176 502 m 257
NamedP: "hr00"
 45 403 l 257
 -70 557 l 257
 229 768 l 257
 371 1493 l 257
NamedP: "at01"
 666 1493 l 257
 571 1012 l 257
NamedP: "iv01"
 821 1186 l 257
 936 1032 l 257
 518 737 l 257
 426 260 l 257
NamedP: "sv01"
 1057 260 l 257
 1006 0 l 257
NamedP: "ab01"
 80 0 l 257
 176 502 l 257
NamedP: "hr00"
EndSplineSet
PickledDataWithLists: "(dp1
S'com.schriftgestaltung.Glyphs.lastChange'
p2
S'2017-07-11 17:15:08 +0000'
p3
s."
EndChar

StartChar: M
Encoding: 76 77 76
GlifName: M_
Width: 1233
VWidth: 0
Flags: W
LayerCount: 2
Fore
SplineSet
231 1493 m 257
NamedP: "hr00"
 584 1493 l 257
 633 838 l 257
NamedP: "iv01"
 930 1493 l 257
NamedP: "at01"
 1290 1493 l 257
 1001 0 l 257
NamedP: "ab01"
 748 0 l 257
 985 1198 l 257
NamedP: "iv02"
 692 543 l 257
 473 543 l 257
 426 1198 l 257
NamedP: "iv03"
 195 0 l 257
NamedP: "ab02"
 -57 0 l 257
 231 1493 l 257
NamedP: "hr00"
EndSplineSet
PickledDataWithLists: "(dp1
S'com.schriftgestaltung.Glyphs.lastChange'
p2
S'2017-07-11 17:15:08 +0000'
p3
s."
EndChar

StartChar: Mu
Encoding: 77 924 77
GlifName: M_u
Width: 1233
VWidth: 0
Flags: W
LayerCount: 2
Fore
SplineSet
231 1493 m 257
NamedP: "hr00"
 584 1493 l 257
 633 838 l 257
NamedP: "iv01"
 930 1493 l 257
NamedP: "at01"
 1290 1493 l 257
 1001 0 l 257
NamedP: "ab01"
 748 0 l 257
 985 1198 l 257
NamedP: "iv02"
 692 543 l 257
 473 543 l 257
 426 1198 l 257
NamedP: "iv03"
 195 0 l 257
NamedP: "ab02"
 -57 0 l 257
 231 1493 l 257
NamedP: "hr00"
EndSplineSet
PickledDataWithLists: "(dp1
S'com.schriftgestaltung.Glyphs.lastChange'
p2
S'2017-07-11 17:15:08 +0000'
p3
s."
EndChar

StartChar: N
Encoding: 78 78 78
GlifName: N_
Width: 1233
VWidth: 0
Flags: W
LayerCount: 2
Fore
SplineSet
266 1493 m 257
NamedP: "hr00"
 569 1493 l 257
 784 408 l 257
NamedP: "iv01"
 995 1493 l 257
NamedP: "at01"
 1255 1493 l 257
 967 0 l 257
NamedP: "ab01"
 674 0 l 257
 449 1085 l 257
NamedP: "iv02"
 238 0 l 257
NamedP: "ab02"
 -25 0 l 257
 266 1493 l 257
NamedP: "hr00"
EndSplineSet
PickledDataWithLists: "(dp1
S'com.schriftgestaltung.Glyphs.lastChange'
p2
S'2017-07-11 17:15:08 +0000'
p3
s."
EndChar

StartChar: Nacute
Encoding: 80 323 80
GlifName: N_acute
Width: 1233
VWidth: 0
Flags: W
LayerCount: 2
Fore
SplineSet
887 1853 m 257
NamedP: "hr00"
 1168 1853 l 257
 848 1589 l 257
 641 1589 l 257
NamedP: "iv01"
 887 1853 l 257
NamedP: "hr00"
266 1493 m 257
NamedP: "at01"
 569 1493 l 257
 784 408 l 257
NamedP: "iv02"
 995 1493 l 257
NamedP: "at02"
 1255 1493 l 257
 967 0 l 257
NamedP: "ab01"
 674 0 l 257
 449 1085 l 257
NamedP: "iv03"
 238 0 l 257
NamedP: "ab02"
 -25 0 l 257
 266 1493 l 257
NamedP: "at01"
EndSplineSet
PickledDataWithLists: "(dp1
S'com.schriftgestaltung.Glyphs.lastChange'
p2
S'2017-07-11 17:15:08 +0000'
p3
s."
EndChar

StartChar: Ncaron
Encoding: 81 327 81
GlifName: N_caron
Width: 1233
VWidth: 0
Flags: W
LayerCount: 2
Fore
SplineSet
487 1852 m 257
NamedP: "hr00"
 657 1852 l 257
 806 1690 l 257
 1035 1852 l 257
NamedP: "dv02"
 1216 1852 l 257
 972 1588 l 257
NamedP: "dv01"
 624 1588 l 257
 487 1852 l 257
NamedP: "hr00"
266 1493 m 257
NamedP: "at01"
 569 1493 l 257
 784 408 l 257
NamedP: "iv01"
 995 1493 l 257
NamedP: "at02"
 1255 1493 l 257
 967 0 l 257
NamedP: "ab01"
 674 0 l 257
 449 1085 l 257
NamedP: "iv02"
 238 0 l 257
NamedP: "ab02"
 -25 0 l 257
 266 1493 l 257
NamedP: "at01"
EndSplineSet
PickledDataWithLists: "(dp1
S'com.schriftgestaltung.Glyphs.lastChange'
p2
S'2017-07-11 17:15:08 +0000'
p3
s."
EndChar

StartChar: Ntilde
Encoding: 82 209 82
GlifName: N_tilde
Width: 1233
VWidth: 0
Flags: W
LayerCount: 2
Fore
SplineSet
452 1588 m 257
NamedP: "hr00"
 469 1674 500 1740 543 1785 c 256
 586 1830 638 1854 703 1854 c 256
NamedP: "dv02"
 728 1854 752 1850 774 1842 c 256
 793 1835 814 1823 841 1803 c 258
 894 1762 l 257
 903 1754 914 1747 928 1742 c 256
 939 1737 951 1735 962 1735 c 256
 989 1735 1010 1745 1027 1766 c 256
 1045 1787 1057 1817 1064 1854 c 257
NamedP: "sv01"
 1201 1854 l 257
 1184 1769 1154 1704 1110 1657 c 256
 1067 1611 1014 1588 951 1588 c 256
NamedP: "sv02"
 897 1588 868 1597 812 1639 c 258
 763 1676 l 258
 742 1692 738 1695 721 1702 c 256
 708 1707 698 1708 690 1708 c 256
 662 1708 641 1694 626 1677 c 256
 605 1652 593 1611 589 1588 c 257
NamedP: "dv01"
 452 1588 l 257
NamedP: "hr00"
266 1493 m 257
NamedP: "at01"
 569 1493 l 257
 784 408 l 257
NamedP: "iv01"
 995 1493 l 257
NamedP: "at02"
 1255 1493 l 257
 967 0 l 257
NamedP: "ab01"
 674 0 l 257
 449 1085 l 257
NamedP: "iv02"
 238 0 l 257
NamedP: "ab02"
 -25 0 l 257
 266 1493 l 257
NamedP: "at01"
EndSplineSet
PickledDataWithLists: "(dp1
S'com.schriftgestaltung.Glyphs.lastChange'
p2
S'2017-07-11 17:15:08 +0000'
p3
s."
EndChar

StartChar: Nu
Encoding: 83 925 83
GlifName: N_u
Width: 1233
VWidth: 0
Flags: W
LayerCount: 2
Fore
SplineSet
266 1493 m 257
NamedP: "hr00"
 569 1493 l 257
 784 408 l 257
NamedP: "iv01"
 995 1493 l 257
NamedP: "at01"
 1255 1493 l 257
 967 0 l 257
NamedP: "ab01"
 674 0 l 257
 449 1085 l 257
NamedP: "iv02"
 238 0 l 257
NamedP: "ab02"
 -25 0 l 257
 266 1493 l 257
NamedP: "hr00"
EndSplineSet
PickledDataWithLists: "(dp1
S'com.schriftgestaltung.Glyphs.lastChange'
p2
S'2017-07-11 17:15:08 +0000'
p3
s."
EndChar

StartChar: O
Encoding: 84 79 84
GlifName: O_
Width: 1233
VWidth: 0
Flags: W
LayerCount: 2
Fore
SplineSet
500 -29 m 256
NamedP: "hr00"
 364 -29 250 11 173 98 c 256
 94 186 61 312 61 476 c 256
NamedP: "sh01"
 61 593 78 733 111 870 c 256
 146 1015 193 1133 246 1228 c 256
 293 1312 355 1389 447 1445 c 256
 534 1497 632 1520 732 1520 c 256
NamedP: "at01"
 869 1520 982 1479 1058 1395 c 256
 1143 1302 1171 1168 1171 1015 c 256
NamedP: "sh02"
 1171 902 1157 767 1122 622 c 256
 1091 490 1048 368 988 264 c 256
 932 165 870 97 786 46 c 256
 701 -5 604 -29 500 -29 c 256
NamedP: "hr00"
525 233 m 256
NamedP: "dv01"
 565 233 602 245 635 269 c 256
 667 292 696 326 721 373 c 256
 738 405 752 440 767 483 c 256
 784 532 794 569 809 630 c 256
 829 714 842 781 853 846 c 256
 863 912 868 970 868 1020 c 256
NamedP: "ah01"
 868 1101 855 1161 828 1200 c 256
 801 1240 761 1260 708 1260 c 256
NamedP: "sv01"
 663 1260 626 1245 598 1225 c 256
 566 1202 536 1165 512 1121 c 256
 493 1088 482 1056 469 1017 c 256
 450 960 443 932 424 860 c 256
 407 791 391 714 380 646 c 256
 370 579 365 520 365 471 c 256
NamedP: "sh03"
 365 390 378 331 405 292 c 256
 433 251 474 233 525 233 c 256
NamedP: "dv01"
EndSplineSet
PickledDataWithLists: "(dp1
S'com.schriftgestaltung.Glyphs.lastChange'
p2
S'2017-07-11 17:15:08 +0000'
p3
s."
Substitution2: "Single Substitution lookup 15 subtable" ordmasculine
Substitution2: "Single Substitution lookup 12 subtable" ordmasculine
EndChar

StartChar: OE
Encoding: 85 338 85
GlifName: O_E_
Width: 1233
VWidth: 0
Flags: W
LayerCount: 2
Fore
SplineSet
474 0 m 258
NamedP: "hr00"
 297 0 186 32 117 91 c 256
 46 151 11 246 11 402 c 256
NamedP: "dh01"
 11 569 62 869 138 1083 c 256
 185 1215 239 1320 334 1395 c 256
 419 1463 521 1493 646 1493 c 258
NamedP: "at01"
 1332 1493 l 257
 1280 1233 l 257
NamedP: "sv01"
 949 1233 l 257
 889 922 l 257
 1190 922 l 257
NamedP: "dv02"
 1139 662 l 257
NamedP: "dv01"
 838 662 l 257
 760 260 l 257
NamedP: "sv02"
 1102 260 l 257
 1051 0 l 257
 474 0 l 258
NamedP: "hr00"
506 260 m 257
NamedP: "sv03"
 695 1233 l 257
NamedP: "sv04"
 644 1233 l 258
NamedP: "sv05"
 580 1233 536 1214 501 1186 c 256
 461 1153 434 1106 410 1039 c 256
 384 968 348 835 327 717 c 256
 307 610 295 508 295 440 c 256
NamedP: "dh02"
 295 371 307 330 334 302 c 256
 358 275 395 260 455 260 c 258
NamedP: "sv06"
 506 260 l 257
NamedP: "sv03"
EndSplineSet
PickledDataWithLists: "(dp1
S'com.schriftgestaltung.Glyphs.lastChange'
p2
S'2017-07-11 17:15:08 +0000'
p3
s."
EndChar

StartChar: Oacute
Encoding: 86 211 86
GlifName: O_acute
Width: 1233
VWidth: 0
Flags: W
LayerCount: 2
Fore
SplineSet
872 1852 m 257
NamedP: "hr00"
 1153 1852 l 257
NamedP: "ih01"
 833 1588 l 257
 626 1588 l 257
NamedP: "iv01"
 872 1852 l 257
NamedP: "hr00"
500 -29 m 256
NamedP: "dv01"
 364 -29 250 11 173 98 c 256
 94 186 61 312 61 476 c 256
NamedP: "sh02"
 61 593 78 733 111 870 c 256
 146 1015 194 1136 246 1228 c 256
 293 1312 355 1389 447 1445 c 256
 534 1497 632 1520 732 1520 c 256
NamedP: "at01"
 869 1520 982 1479 1058 1395 c 256
 1143 1302 1171 1168 1171 1015 c 256
NamedP: "sh01"
 1171 902 1157 767 1122 622 c 256
 1091 490 1048 368 988 264 c 256
 932 165 870 97 786 46 c 256
 701 -5 604 -29 500 -29 c 256
NamedP: "dv01"
525 233 m 256
NamedP: "dv02"
 565 233 602 245 635 269 c 256
 667 292 696 326 721 373 c 256
 738 405 752 440 767 483 c 256
 786 535 794 573 809 630 c 256
 828 706 842 781 853 846 c 256
 863 912 868 970 868 1020 c 256
NamedP: "ah01"
 868 1101 855 1161 828 1200 c 256
 801 1240 761 1260 708 1260 c 256
NamedP: "sv01"
 663 1260 626 1245 598 1225 c 256
 566 1202 536 1165 512 1121 c 256
 493 1088 482 1056 469 1017 c 256
 450 960 443 932 424 860 c 257
 405 783 391 718 380 646 c 256
 370 579 365 520 365 471 c 256
NamedP: "sh03"
 365 390 378 331 405 292 c 256
 433 251 474 233 525 233 c 256
NamedP: "dv02"
EndSplineSet
PickledDataWithLists: "(dp1
S'com.schriftgestaltung.Glyphs.lastChange'
p2
S'2017-07-11 17:15:08 +0000'
p3
s."
EndChar

StartChar: Ocircumflex
Encoding: 87 212 87
GlifName: O_circumflex
Width: 1233
VWidth: 0
Flags: W
LayerCount: 2
Fore
SplineSet
629 1852 m 257
NamedP: "hr00"
 977 1852 l 257
NamedP: "dv04"
 1128 1588 l 257
NamedP: "ih01"
 959 1588 l 257
NamedP: "dv03"
 795 1749 l 257
 565 1588 l 257
NamedP: "sv01"
 385 1588 l 257
NamedP: "ih02"
 629 1852 l 257
NamedP: "hr00"
500 -29 m 256
NamedP: "dv01"
 364 -29 250 11 173 98 c 256
 94 186 61 312 61 476 c 256
NamedP: "sh02"
 61 593 78 733 111 870 c 256
 146 1015 194 1136 246 1228 c 256
 293 1312 355 1389 447 1445 c 256
 534 1497 632 1520 732 1520 c 256
NamedP: "at01"
 869 1520 982 1479 1058 1395 c 256
 1143 1302 1171 1168 1171 1015 c 256
NamedP: "sh01"
 1171 902 1157 767 1122 622 c 256
 1091 490 1048 368 988 264 c 256
 932 165 870 97 786 46 c 256
 701 -5 604 -29 500 -29 c 256
NamedP: "dv01"
525 233 m 256
NamedP: "dv02"
 565 233 602 245 635 269 c 256
 667 292 696 326 721 373 c 256
 738 405 752 440 767 483 c 256
 786 535 794 573 809 630 c 256
 828 706 842 781 853 846 c 256
 863 912 868 970 868 1020 c 256
NamedP: "ah01"
 868 1101 855 1161 828 1200 c 256
 801 1240 761 1260 708 1260 c 256
NamedP: "sv02"
 663 1260 626 1245 598 1225 c 256
 566 1202 536 1165 512 1121 c 256
 493 1088 482 1056 469 1017 c 256
 450 960 443 932 424 860 c 257
 405 783 391 718 380 646 c 256
 370 579 365 520 365 471 c 256
NamedP: "sh03"
 365 390 378 331 405 292 c 256
 433 251 474 233 525 233 c 256
NamedP: "dv02"
EndSplineSet
PickledDataWithLists: "(dp1
S'com.schriftgestaltung.Glyphs.lastChange'
p2
S'2017-07-11 17:15:08 +0000'
p3
s."
EndChar

StartChar: Odieresis
Encoding: 88 214 88
GlifName: O_dieresis
Width: 1233
VWidth: 0
Flags: W
LayerCount: 2
Fore
SplineSet
487 1606 m 258
NamedP: "hr00"
 469 1606 460 1615 460 1632 c 256
 460 1637 461 1636 461 1639 c 257
 499 1825 l 258
 503 1843 514 1852 531 1852 c 258
NamedP: "dv03"
 706 1852 l 258
 724 1852 733 1843 733 1826 c 256
 733 1821 732 1822 732 1819 c 257
 695 1633 l 258
 692 1615 681 1606 663 1606 c 258
 487 1606 l 258
NamedP: "hr00"
883 1606 m 258
NamedP: "sv01"
 865 1606 856 1615 856 1632 c 256
NamedP: "sh01"
 856 1637 857 1636 857 1639 c 257
NamedP: "sh02"
 894 1825 l 257
 897 1843 907 1852 926 1852 c 258
NamedP: "sv02"
 1101 1852 l 258
 1121 1852 1132 1839 1128 1819 c 258
 1092 1633 l 258
 1089 1615 1078 1606 1060 1606 c 258
 883 1606 l 258
NamedP: "sv01"
500 -29 m 256
NamedP: "dv01"
 364 -29 250 11 173 98 c 256
 94 186 61 312 61 476 c 256
NamedP: "sh03"
 61 593 78 733 111 870 c 256
 146 1015 194 1136 246 1228 c 256
 293 1312 355 1389 447 1445 c 256
 534 1497 632 1520 732 1520 c 256
NamedP: "at01"
 869 1520 982 1479 1058 1395 c 256
 1143 1302 1171 1168 1171 1015 c 256
NamedP: "sh04"
 1171 902 1157 767 1122 622 c 256
 1091 490 1048 368 988 264 c 256
 932 165 870 97 786 46 c 256
 701 -5 604 -29 500 -29 c 256
NamedP: "dv01"
525 233 m 256
NamedP: "dv02"
 565 233 602 245 635 269 c 256
 667 292 696 326 721 373 c 256
 738 405 752 440 767 483 c 256
 786 535 794 573 809 630 c 256
 828 706 842 781 853 846 c 256
 863 912 868 970 868 1020 c 256
NamedP: "ah01"
 868 1101 855 1161 828 1200 c 256
 801 1240 761 1260 708 1260 c 256
NamedP: "sv03"
 663 1260 626 1245 598 1225 c 256
 566 1202 536 1165 512 1121 c 256
 493 1088 482 1056 469 1017 c 256
 450 960 443 932 424 860 c 257
 405 783 391 718 380 646 c 256
 370 579 365 520 365 471 c 256
NamedP: "sh05"
 365 390 378 331 405 292 c 256
 433 251 474 233 525 233 c 256
NamedP: "dv02"
EndSplineSet
PickledDataWithLists: "(dp1
S'com.schriftgestaltung.Glyphs.lastChange'
p2
S'2017-07-11 17:15:08 +0000'
p3
s."
EndChar

StartChar: Ograve
Encoding: 89 210 89
GlifName: O_grave
Width: 1233
VWidth: 0
Flags: W
LayerCount: 2
Fore
SplineSet
510 1852 m 257
NamedP: "hr00"
 774 1852 l 257
NamedP: "dv04"
 917 1588 l 257
NamedP: "ih01"
 739 1588 l 257
NamedP: "dv03"
 510 1852 l 257
NamedP: "hr00"
500 -29 m 256
NamedP: "dv01"
 364 -29 250 11 173 98 c 256
 94 186 61 312 61 476 c 256
NamedP: "sh01"
 61 593 78 733 111 870 c 256
 146 1015 194 1136 246 1228 c 256
 293 1312 355 1389 447 1445 c 256
 534 1497 632 1520 732 1520 c 256
NamedP: "at01"
 869 1520 982 1479 1058 1395 c 256
 1143 1302 1171 1168 1171 1015 c 256
NamedP: "sh02"
 1171 902 1157 767 1122 622 c 256
 1091 490 1048 368 988 264 c 256
 932 165 870 97 786 46 c 256
 701 -5 604 -29 500 -29 c 256
NamedP: "dv01"
525 233 m 256
NamedP: "dv02"
 565 233 602 245 635 269 c 256
 667 292 696 326 721 373 c 256
 738 405 752 440 767 483 c 256
 786 535 794 573 809 630 c 256
 828 706 842 781 853 846 c 256
 863 912 868 970 868 1020 c 256
NamedP: "ah01"
 868 1101 855 1161 828 1200 c 256
 801 1240 761 1260 708 1260 c 256
NamedP: "sv01"
 663 1260 626 1245 598 1225 c 256
 566 1202 536 1165 512 1121 c 256
 493 1088 482 1056 469 1017 c 256
 450 960 443 932 424 860 c 257
 405 783 391 718 380 646 c 256
 370 579 365 520 365 471 c 256
NamedP: "sh03"
 365 390 378 331 405 292 c 256
 433 251 474 233 525 233 c 256
NamedP: "dv02"
EndSplineSet
PickledDataWithLists: "(dp1
S'com.schriftgestaltung.Glyphs.lastChange'
p2
S'2017-07-11 17:15:08 +0000'
p3
s."
EndChar

StartChar: Ohorn
Encoding: 90 416 90
GlifName: O_horn
Width: 1233
VWidth: 0
Flags: W
LayerCount: 2
Fore
SplineSet
1388 1555 m 257
NamedP: "at01"
 1388 1482 1384 1421 1373 1365 c 256
 1342 1213 1264 1127 1149 1127 c 256
NamedP: "sv01"
 1136 1127 1124 1128 1112 1130 c 257
NamedP: "sh02"
 1117 1093 1119 1054 1119 1011 c 256
NamedP: "sh01"
 1119 784 1051 463 937 264 c 256
 828 72 666 -29 445 -29 c 256
NamedP: "dv01"
 162 -29 9 139 9 482 c 256
NamedP: "sh03"
 9 728 87 1045 194 1229 c 257
 303 1421 463 1520 683 1520 c 256
NamedP: "hr01"
 864 1520 991 1453 1060 1313 c 257
 1065 1310 l 258
 1086 1297 1106 1291 1123 1291 c 256
NamedP: "hr02"
 1170 1291 1216 1323 1232 1399 c 256
 1237 1423 1240 1454 1240 1478 c 256
 1240 1501 1237 1526 1232 1555 c 257
NamedP: "hr03"
 1388 1555 l 257
NamedP: "at01"
758 630 m 256
 790 763 816 916 816 1024 c 256
NamedP: "ah01"
 816 1181 762 1260 653 1260 c 256
NamedP: "sv02"
 566 1260 510 1211 462 1119 c 256
 431 1062 401 981 370 861 c 256
 330 702 313 537 313 458 c 256
NamedP: "sh04"
 313 315 365 233 476 233 c 256
NamedP: "hr04"
 560 233 618 281 667 373 c 256
 700 434 730 517 758 630 c 256
EndSplineSet
PickledDataWithLists: "(dp1
S'com.schriftgestaltung.Glyphs.lastChange'
p2
S'2017-07-11 17:15:08 +0000'
p3
s."
EndChar

StartChar: Ohungarumlaut
Encoding: 91 336 91
GlifName: O_hungarumlaut
Width: 1233
VWidth: 0
Flags: W
LayerCount: 2
Fore
SplineSet
687 1852 m 257
NamedP: "hr00"
 971 1852 l 257
NamedP: "ih01"
 634 1588 l 257
NamedP: "dv03"
 437 1588 l 257
NamedP: "ih02"
 687 1852 l 257
NamedP: "hr00"
1062 1852 m 257
NamedP: "sv01"
 1346 1852 l 257
 1009 1588 l 257
NamedP: "sv02"
 812 1588 l 257
NamedP: "ih03"
 1062 1852 l 257
NamedP: "sv01"
497 -29 m 256
NamedP: "dv01"
 214 -29 61 139 61 482 c 256
NamedP: "sh02"
 61 728 139 1045 246 1229 c 257
 355 1421 515 1520 735 1520 c 256
NamedP: "at01"
 1016 1520 1171 1354 1171 1011 c 256
NamedP: "sh01"
 1171 784 1103 463 989 264 c 256
 880 72 718 -29 497 -29 c 256
NamedP: "dv01"
528 233 m 256
NamedP: "dv02"
 612 233 670 281 719 373 c 256
 752 434 782 517 810 630 c 256
 842 763 868 916 868 1024 c 256
NamedP: "ah01"
 868 1181 814 1260 705 1260 c 256
NamedP: "sv03"
 618 1260 562 1211 514 1119 c 256
 483 1062 453 981 422 861 c 256
 382 702 365 537 365 458 c 256
NamedP: "sh03"
 365 315 417 233 528 233 c 256
NamedP: "dv02"
EndSplineSet
PickledDataWithLists: "(dp1
S'com.schriftgestaltung.Glyphs.lastChange'
p2
S'2017-07-11 17:15:08 +0000'
p3
s."
EndChar

StartChar: Omacron
Encoding: 92 332 92
GlifName: O_macron
Width: 1233
VWidth: 0
Flags: W
LayerCount: 2
Fore
SplineSet
509 1850 m 257
NamedP: "hr00"
 1140 1850 l 257
NamedP: "dv04"
 1104 1662 l 257
NamedP: "dv03"
 473 1662 l 257
 509 1850 l 257
NamedP: "hr00"
497 -29 m 256
NamedP: "dv01"
 214 -29 61 139 61 482 c 256
NamedP: "sh01"
 61 728 139 1045 246 1229 c 257
 355 1421 515 1520 735 1520 c 256
NamedP: "at01"
 1016 1520 1171 1354 1171 1011 c 256
NamedP: "sh02"
 1171 784 1103 463 989 264 c 256
 880 72 718 -29 497 -29 c 256
NamedP: "dv01"
528 233 m 256
NamedP: "dv02"
 612 233 670 281 719 373 c 256
 752 434 782 517 810 630 c 256
 842 763 868 916 868 1024 c 256
NamedP: "ah01"
 868 1181 814 1260 705 1260 c 256
NamedP: "sv01"
 618 1260 562 1211 514 1119 c 256
 483 1062 453 981 422 861 c 256
 382 702 365 537 365 458 c 256
NamedP: "sh03"
 365 315 417 233 528 233 c 256
NamedP: "dv02"
EndSplineSet
PickledDataWithLists: "(dp1
S'com.schriftgestaltung.Glyphs.lastChange'
p2
S'2017-07-11 17:15:08 +0000'
p3
s."
EndChar

StartChar: Omegatonos
Encoding: 93 911 93
GlifName: O_megatonos
Width: 1233
VWidth: 0
Flags: W
LayerCount: 2
Fore
SplineSet
164 1502 m 257
NamedP: "at02"
 485 1502 l 257
NamedP: "ih01"
 43 1126 l 257
NamedP: "at01"
 -154 1126 l 257
 164 1502 l 257
NamedP: "at02"
4 211 m 257
NamedP: "sv01"
 242 211 l 257
NamedP: "ih02"
 147 315 104 430 104 582 c 256
NamedP: "sh01"
 104 642 111 709 125 782 c 256
 205 1192 454 1460 772 1460 c 256
NamedP: "sv03"
 1030 1460 1179 1282 1179 989 c 256
NamedP: "sh02"
 1179 925 1172 856 1158 782 c 256
 1110 528 1006 355 819 211 c 257
NamedP: "ih03"
 1057 211 l 257
NamedP: "sv04"
 1016 0 l 257
NamedP: "ab01"
 545 0 l 257
 597 268 l 257
 734 381 804 527 849 748 c 256
 865 828 873 898 873 957 c 256
NamedP: "ah01"
 873 1004 868 1044 858 1078 c 256
 835 1157 789 1194 722 1194 c 256
NamedP: "sv02"
 582 1194 473 1024 419 748 c 256
 405 676 398 611 398 552 c 256
NamedP: "sh03"
 398 431 428 337 488 268 c 257
 436 0 l 257
NamedP: "hr01"
 -37 0 l 257
 4 211 l 257
NamedP: "sv01"
EndSplineSet
PickledDataWithLists: "(dp1
S'com.schriftgestaltung.Glyphs.lastChange'
p2
S'2017-07-11 17:15:08 +0000'
p3
s."
EndChar

StartChar: Omicron
Encoding: 94 927 94
GlifName: O_micron
Width: 1233
VWidth: 0
Flags: W
LayerCount: 2
Fore
SplineSet
497 -29 m 256
NamedP: "hr00"
 214 -29 61 139 61 482 c 256
NamedP: "sh01"
 61 728 139 1045 246 1229 c 257
 355 1421 515 1520 735 1520 c 256
NamedP: "at01"
 1016 1520 1171 1354 1171 1011 c 256
NamedP: "sh02"
 1171 784 1103 463 989 264 c 256
 880 72 718 -29 497 -29 c 256
NamedP: "hr00"
528 233 m 256
NamedP: "dv01"
 612 233 670 281 719 373 c 256
 752 434 782 517 810 630 c 256
 842 763 868 916 868 1024 c 256
NamedP: "ah01"
 868 1181 814 1260 705 1260 c 256
NamedP: "sv01"
 618 1260 562 1211 514 1119 c 256
 483 1062 453 981 422 861 c 256
 382 702 365 537 365 458 c 256
NamedP: "sh03"
 365 315 417 233 528 233 c 256
NamedP: "dv01"
EndSplineSet
PickledDataWithLists: "(dp1
S'com.schriftgestaltung.Glyphs.lastChange'
p2
S'2017-07-11 17:15:08 +0000'
p3
s."
EndChar

StartChar: Omicrontonos
Encoding: 95 908 95
GlifName: O_microntonos
Width: 1233
VWidth: 0
Flags: W
LayerCount: 2
Fore
SplineSet
100 1502 m 257
NamedP: "at01"
 421 1502 l 257
NamedP: "ih01"
 -21 1126 l 257
NamedP: "at03"
 -218 1126 l 257
 100 1502 l 257
NamedP: "at01"
489 -56 m 256
NamedP: "dv01"
 206 -56 53 112 53 455 c 256
NamedP: "sh01"
 53 701 131 1018 238 1202 c 257
 347 1394 507 1493 727 1493 c 256
NamedP: "at02"
 1008 1493 1163 1327 1163 984 c 256
NamedP: "sh02"
 1163 757 1095 436 981 237 c 256
 872 45 710 -56 489 -56 c 256
NamedP: "dv01"
520 206 m 256
NamedP: "dv02"
 604 206 662 254 711 346 c 256
 744 407 774 490 802 603 c 256
 834 736 860 889 860 997 c 256
NamedP: "ah01"
 860 1154 806 1233 697 1233 c 256
NamedP: "sv01"
 610 1233 554 1184 506 1092 c 256
 475 1035 445 954 414 834 c 256
 374 675 357 510 357 431 c 256
NamedP: "sh03"
 357 288 409 206 520 206 c 256
NamedP: "dv02"
EndSplineSet
PickledDataWithLists: "(dp1
S'com.schriftgestaltung.Glyphs.lastChange'
p2
S'2017-07-11 17:15:08 +0000'
p3
s."
EndChar

StartChar: Oslash
Encoding: 96 216 96
GlifName: O_slash
Width: 1233
VWidth: 0
Flags: W
LayerCount: 2
Fore
SplineSet
-141 51 m 257
NamedP: "hr00"
 78 295 l 257
 71 323 69 342 66 366 c 256
 63 391 61 410 61 454 c 256
 61 579 77 725 110 865 c 256
 141 998 187 1126 244 1227 c 256
 350 1414 522 1520 732 1520 c 256
NamedP: "at02"
 801 1520 864 1509 919 1487 c 256
 974 1465 1022 1432 1063 1389 c 257
 1217 1559 l 257
NamedP: "at01"
 1356 1444 l 257
 1151 1217 l 257
 1159 1174 1163 1144 1166 1113 c 256
 1169 1080 1171 1057 1171 1022 c 256
 1171 987 1169 934 1164 887 c 257
 1159 851 1151 783 1143 737 c 256
 1130 657 1104 551 1080 480 c 256
 1057 411 1028 336 989 265 c 257
 933 166 863 93 786 46 c 256
 702 -5 604 -29 500 -29 c 256
NamedP: "dv01"
 427 -29 361 -17 304 8 c 256
 245 33 197 70 160 117 c 257
 0 -63 l 257
NamedP: "av01"
 -141 51 l 257
NamedP: "hr00"
852 1153 m 257
 840 1189 820 1217 797 1233 c 256
 770 1253 737 1260 706 1260 c 256
NamedP: "sv01"
 619 1260 558 1205 510 1113 c 256
 459 1017 416 866 379 629 c 257
NamedP: "iv01"
 852 1153 l 257
525 233 m 256
NamedP: "dv02"
 610 233 678 284 729 386 c 256
 780 487 823 660 858 889 c 257
NamedP: "iv02"
 375 354 l 257
 387 314 406 284 432 264 c 256
 456 245 484 233 525 233 c 256
NamedP: "dv02"
EndSplineSet
PickledDataWithLists: "(dp1
S'com.schriftgestaltung.Glyphs.lastChange'
p2
S'2017-07-11 17:15:08 +0000'
p3
s."
EndChar

StartChar: Oslashacute
Encoding: 97 510 97
GlifName: O_slashacute
Width: 1233
VWidth: 0
Flags: W
LayerCount: 2
Fore
SplineSet
862 1853 m 257
NamedP: "hr00"
 1143 1853 l 257
 823 1589 l 257
 616 1589 l 257
NamedP: "iv01"
 862 1853 l 257
NamedP: "hr00"
-141 51 m 257
 78 295 l 257
 65 350 61 391 61 453 c 256
 61 720 134 1034 244 1227 c 256
 352 1418 515 1520 731 1520 c 256
NamedP: "at01"
 871 1520 982 1476 1063 1389 c 257
 1217 1559 l 257
 1356 1444 l 257
 1151 1217 l 257
 1164 1141 1171 1079 1171 1018 c 256
 1171 938 1160 824 1144 737 c 257
 1111 542 1051 377 987 265 c 256
 871 61 711 -29 504 -29 c 256
NamedP: "dv01"
 353 -29 239 18 160 117 c 257
 0 -63 l 257
NamedP: "av01"
 -141 51 l 257
852 1153 m 257
 828 1222 777 1260 706 1260 c 256
NamedP: "sv01"
 622 1260 558 1206 510 1114 c 256
 457 1011 414 844 379 629 c 257
NamedP: "iv02"
 852 1153 l 257
526 233 m 256
NamedP: "dv02"
 606 233 676 281 729 386 c 256
 780 487 823 654 858 889 c 257
NamedP: "iv03"
 375 354 l 257
 399 273 449 233 526 233 c 256
NamedP: "dv02"
EndSplineSet
PickledDataWithLists: "(dp1
S'com.schriftgestaltung.Glyphs.lastChange'
p2
S'2017-07-11 17:15:08 +0000'
p3
s."
EndChar

StartChar: Otilde
Encoding: 98 213 98
GlifName: O_tilde
Width: 1233
VWidth: 0
Flags: W
LayerCount: 2
Fore
SplineSet
422 1589 m 257
NamedP: "hr00"
 439 1675 470 1741 513 1786 c 256
 556 1831 608 1855 673 1855 c 256
NamedP: "dv04"
 698 1855 722 1851 744 1843 c 256
 763 1836 784 1824 811 1804 c 258
 864 1763 l 257
NamedP: "sh01"
 873 1755 884 1748 898 1743 c 256
 909 1738 921 1736 932 1736 c 256
 959 1736 980 1746 997 1767 c 256
 1015 1788 1027 1818 1034 1855 c 257
NamedP: "sv01"
 1171 1855 l 257
NamedP: "sh03"
 1154 1770 1124 1705 1080 1658 c 256
 1037 1612 984 1589 921 1589 c 256
NamedP: "sv02"
 867 1589 838 1598 782 1640 c 258
 733 1677 l 258
 712 1693 708 1696 691 1703 c 256
 678 1708 668 1709 660 1709 c 256
 632 1709 611 1695 596 1678 c 256
 575 1653 563 1612 559 1589 c 257
NamedP: "dv03"
 422 1589 l 257
NamedP: "hr00"
500 -29 m 256
NamedP: "dv01"
 364 -29 250 11 173 98 c 256
 94 186 61 312 61 476 c 256
NamedP: "sh04"
 61 593 78 733 111 870 c 256
 146 1015 194 1136 246 1228 c 256
 293 1312 355 1389 447 1445 c 256
 534 1497 632 1520 732 1520 c 256
NamedP: "at01"
 869 1520 982 1479 1058 1395 c 256
 1143 1302 1171 1168 1171 1015 c 256
NamedP: "sh02"
 1171 902 1157 767 1122 622 c 256
 1091 490 1048 368 988 264 c 256
 932 165 870 97 786 46 c 256
 701 -5 604 -29 500 -29 c 256
NamedP: "dv01"
525 233 m 256
NamedP: "dv02"
 565 233 602 245 635 269 c 256
 667 292 696 326 721 373 c 256
 738 405 752 440 767 483 c 256
 786 535 794 573 809 630 c 256
 828 706 842 781 853 846 c 256
 863 912 868 970 868 1020 c 256
NamedP: "ah01"
 868 1101 855 1161 828 1200 c 256
 801 1240 761 1260 708 1260 c 256
NamedP: "sv03"
 663 1260 626 1245 598 1225 c 256
 566 1202 536 1165 512 1121 c 256
 493 1088 482 1056 469 1017 c 256
 450 960 443 932 424 860 c 257
 405 783 391 718 380 646 c 256
 370 579 365 520 365 471 c 256
NamedP: "sh05"
 365 390 378 331 405 292 c 256
 433 251 474 233 525 233 c 256
NamedP: "dv02"
EndSplineSet
PickledDataWithLists: "(dp1
S'com.schriftgestaltung.Glyphs.lastChange'
p2
S'2017-07-11 17:15:08 +0000'
p3
s."
EndChar

StartChar: P
Encoding: 99 80 99
GlifName: P_
Width: 1233
VWidth: 0
Flags: W
LayerCount: 2
Fore
SplineSet
305 1493 m 257
NamedP: "hr00"
 725 1493 l 258
 882 1493 1002 1463 1085 1402 c 256
 1169 1339 1208 1252 1208 1129 c 256
NamedP: "dh02"
 1208 1061 1196 985 1172 909 c 256
 1147 830 1116 776 1077 731 c 256
 974 611 827 559 582 559 c 258
NamedP: "dv01"
 418 559 l 257
 309 0 l 257
NamedP: "ab01"
 14 0 l 257
 305 1493 l 257
NamedP: "hr00"
610 807 m 258
NamedP: "dv02"
 710 807 782 832 829 875 c 256
 877 920 901 990 901 1071 c 256
NamedP: "dh01"
 901 1136 884 1182 849 1207 c 256
 814 1232 755 1245 672 1245 c 258
NamedP: "sv01"
 551 1245 l 257
 467 807 l 257
 610 807 l 258
NamedP: "dv02"
EndSplineSet
PickledDataWithLists: "(dp1
S'com.schriftgestaltung.Glyphs.lastChange'
p2
S'2017-07-11 17:15:08 +0000'
p3
s."
EndChar

StartChar: Phi
Encoding: 100 934 100
GlifName: P_hi
Width: 1233
VWidth: 0
Flags: W
LayerCount: 2
Fore
SplineSet
255 260 m 257
NamedP: "hr00"
 374 260 l 257
 388 330 l 257
 214 354 81 443 81 633 c 256
NamedP: "sh01"
 81 666 84 710 91 745 c 257
NamedP: "sh02"
 136 1009 342 1134 550 1161 c 257
 564 1233 l 257
NamedP: "sv01"
 444 1233 l 257
 495 1493 l 257
NamedP: "at01"
 1028 1493 l 257
 978 1233 l 257
NamedP: "sv02"
 859 1233 l 257
NamedP: "sv03"
 845 1161 l 257
 1018 1132 1152 1054 1152 853 c 256
NamedP: "sh03"
 1152 822 1149 784 1141 744 c 256
NamedP: "sh04"
 1088 470 892 357 683 330 c 257
 669 260 l 257
NamedP: "sv04"
 789 260 l 257
NamedP: "sv05"
 738 0 l 257
NamedP: "ab01"
 205 0 l 257
 255 260 l 257
NamedP: "hr00"
511 965 m 257
NamedP: "ih01"
 472 938 l 258
 392 882 350 792 350 701 c 256
NamedP: "sh05"
 350 646 365 596 397 553 c 256
 404 542 414 533 426 526 c 257
NamedP: "ih02"
 511 965 l 257
NamedP: "ih01"
721 526 m 257
NamedP: "ih03"
 740 537 750 544 761 553 c 256
 841 625 887 723 887 808 c 256
NamedP: "ah01"
 887 860 871 907 836 938 c 258
 806 965 l 257
NamedP: "ih04"
 721 526 l 257
NamedP: "ih03"
EndSplineSet
PickledDataWithLists: "(dp1
S'com.schriftgestaltung.Glyphs.lastChange'
p2
S'2017-07-11 17:15:08 +0000'
p3
s."
EndChar

StartChar: Pi
Encoding: 101 928 101
GlifName: P_i
Width: 1233
VWidth: 0
Flags: W
LayerCount: 2
Fore
SplineSet
292 1493 m 257
NamedP: "hr00"
 1251 1493 l 257
 961 0 l 257
NamedP: "ab01"
 666 0 l 257
 906 1233 l 257
NamedP: "sv01"
 537 1233 l 257
 297 0 l 257
NamedP: "ab02"
 2 0 l 257
 292 1493 l 257
NamedP: "hr00"
EndSplineSet
PickledDataWithLists: "(dp1
S'com.schriftgestaltung.Glyphs.lastChange'
p2
S'2017-07-11 17:15:08 +0000'
p3
s."
EndChar

StartChar: Psi
Encoding: 102 936 102
GlifName: P_si
Width: 1233
VWidth: 0
Flags: W
LayerCount: 2
Fore
SplineSet
255 260 m 257
NamedP: "hr00"
 374 260 l 257
 400 392 l 257
 307 421 237 480 190 568 c 256
 149 644 127 737 127 865 c 256
NamedP: "dh01"
 127 952 137 1038 158 1146 c 258
 225 1493 l 257
NamedP: "at01"
 520 1493 l 257
 453 1146 l 257
 434 1054 425 976 425 897 c 256
NamedP: "dh02"
 425 837 430 797 441 758 c 256
 448 731 454 716 461 705 c 257
NamedP: "iv01"
 614 1493 l 257
NamedP: "at02"
 909 1493 l 257
 756 705 l 257
NamedP: "iv02"
 768 717 783 738 796 758 c 256
 856 851 903 975 936 1146 c 258
 1003 1493 l 257
NamedP: "at03"
 1298 1493 l 257
 1231 1146 l 258
 1180 886 1091 696 974 568 c 256
 891 479 795 420 695 392 c 257
 669 260 l 257
NamedP: "sv01"
 789 260 l 257
NamedP: "sv02"
 738 0 l 257
NamedP: "ab01"
 205 0 l 257
 255 260 l 257
NamedP: "hr00"
EndSplineSet
PickledDataWithLists: "(dp1
S'com.schriftgestaltung.Glyphs.lastChange'
p2
S'2017-07-11 17:15:08 +0000'
p3
s."
EndChar

StartChar: Q
Encoding: 103 81 103
GlifName: Q_
Width: 1233
VWidth: 0
Flags: W
LayerCount: 2
Fore
SplineSet
535 -29 m 257
NamedP: "hr00"
 508 -29 l 258
 363 -29 252 14 176 95 c 256
 96 182 61 305 61 474 c 256
NamedP: "sh01"
 61 710 138 1041 244 1226 c 256
 295 1314 357 1390 448 1445 c 256
 528 1493 623 1520 732 1520 c 256
NamedP: "at01"
 873 1520 982 1476 1057 1397 c 256
 1140 1309 1171 1192 1171 1024 c 256
NamedP: "sh02"
 1171 913 1157 778 1122 627 c 256
 1091 494 1046 362 990 262 c 256
 962 213 933 174 902 141 c 256
 867 104 825 70 776 39 c 257
 1015 -281 l 257
NamedP: "ih01"
 671 -281 l 257
 535 -29 l 257
NamedP: "hr00"
525 233 m 256
NamedP: "dv01"
 565 233 602 245 635 269 c 256
 667 292 696 326 721 373 c 256
 736 401 752 442 767 483 c 256
 781 523 795 572 809 630 c 256
 830 717 842 782 853 846 c 256
 863 912 868 970 868 1020 c 256
NamedP: "ah01"
 868 1101 855 1161 828 1200 c 256
 801 1240 761 1260 708 1260 c 256
NamedP: "sv01"
 663 1260 626 1245 598 1225 c 256
 566 1202 536 1165 512 1121 c 256
 493 1088 482 1056 469 1017 c 256
 450 960 443 932 424 860 c 256
 403 775 391 711 380 646 c 256
 370 579 365 520 365 471 c 256
NamedP: "sh03"
 365 390 378 331 405 292 c 256
 433 251 474 233 525 233 c 256
NamedP: "dv01"
EndSplineSet
PickledDataWithLists: "(dp1
S'com.schriftgestaltung.Glyphs.lastChange'
p2
S'2017-07-11 17:15:08 +0000'
p3
s."
EndChar

StartChar: R
Encoding: 104 82 104
GlifName: R_
Width: 1233
VWidth: 0
Flags: W
LayerCount: 2
Fore
SplineSet
294 1493 m 257
NamedP: "hr00"
 704 1493 l 258
 858 1493 973 1464 1048 1406 c 256
 1120 1350 1160 1265 1160 1133 c 256
NamedP: "dh02"
 1160 1013 1127 914 1062 838 c 256
 997 762 904 718 783 705 c 257
NamedP: "iv01"
 823 699 855 684 878 660 c 256
 901 636 921 595 939 537 c 258
 1103 0 l 257
NamedP: "ih01"
 802 0 l 257
 696 376 l 257
 688 403 l 258
 647 538 599 590 530 590 c 258
NamedP: "dv01"
 413 590 l 257
 298 0 l 257
NamedP: "ab01"
 3 0 l 257
 294 1493 l 257
NamedP: "hr00"
585 838 m 258
NamedP: "dv02"
 678 838 746 861 790 902 c 256
 837 945 859 1009 859 1084 c 256
NamedP: "dh01"
 859 1141 844 1182 813 1207 c 256
 782 1232 736 1245 675 1245 c 258
NamedP: "sv01"
 542 1245 l 257
 462 838 l 257
 585 838 l 258
NamedP: "dv02"
EndSplineSet
PickledDataWithLists: "(dp1
S'com.schriftgestaltung.Glyphs.lastChange'
p2
S'2017-07-11 17:15:08 +0000'
p3
s."
EndChar

StartChar: Racute
Encoding: 105 340 105
GlifName: R_acute
Width: 1233
VWidth: 0
Flags: W
LayerCount: 2
Fore
SplineSet
844 1853 m 257
NamedP: "hr00"
 1125 1853 l 257
NamedP: "ih01"
 805 1589 l 257
 598 1589 l 257
NamedP: "iv01"
 844 1853 l 257
NamedP: "hr00"
294 1493 m 257
NamedP: "at01"
 704 1493 l 258
 1016 1493 1160 1378 1160 1131 c 256
NamedP: "dh02"
 1160 891 1023 732 783 705 c 257
NamedP: "iv02"
 865 691 901 653 939 537 c 257
 1103 0 l 257
NamedP: "ih02"
 802 0 l 257
 696 376 l 257
 688 403 l 258
 649 531 605 590 530 590 c 258
NamedP: "dv01"
 413 590 l 257
 298 0 l 257
NamedP: "ab01"
 3 0 l 257
 294 1493 l 257
NamedP: "at01"
585 838 m 258
NamedP: "dv02"
 766 838 859 929 859 1080 c 256
NamedP: "dh01"
 859 1195 804 1245 675 1245 c 258
NamedP: "sv01"
 542 1245 l 257
 462 838 l 257
 585 838 l 258
NamedP: "dv02"
EndSplineSet
PickledDataWithLists: "(dp1
S'com.schriftgestaltung.Glyphs.lastChange'
p2
S'2017-07-11 17:15:08 +0000'
p3
s."
EndChar

StartChar: Rcaron
Encoding: 106 344 106
GlifName: R_caron
Width: 1233
VWidth: 0
Flags: W
LayerCount: 2
Fore
SplineSet
420 1852 m 257
NamedP: "hr00"
 590 1852 l 257
 739 1690 l 257
 968 1852 l 257
NamedP: "dv02"
 1149 1852 l 257
NamedP: "ih01"
 905 1588 l 257
NamedP: "dv01"
 557 1588 l 257
 420 1852 l 257
NamedP: "hr00"
294 1493 m 257
NamedP: "at01"
 704 1493 l 258
 1016 1493 1160 1378 1160 1131 c 256
NamedP: "dh02"
 1160 891 1023 732 783 705 c 257
NamedP: "iv01"
 865 691 901 653 939 537 c 257
 1103 0 l 257
NamedP: "ih02"
 802 0 l 257
 696 376 l 257
 688 403 l 258
 649 531 605 590 530 590 c 258
NamedP: "dv03"
 413 590 l 257
 298 0 l 257
NamedP: "ab01"
 3 0 l 257
 294 1493 l 257
NamedP: "at01"
585 838 m 258
NamedP: "dv04"
 766 838 859 929 859 1080 c 256
NamedP: "dh01"
 859 1195 804 1245 675 1245 c 258
NamedP: "sv01"
 542 1245 l 257
 462 838 l 257
 585 838 l 258
NamedP: "dv04"
EndSplineSet
PickledDataWithLists: "(dp1
S'com.schriftgestaltung.Glyphs.lastChange'
p2
S'2017-07-11 17:15:08 +0000'
p3
s."
EndChar

StartChar: Rho
Encoding: 107 929 107
GlifName: R_ho
Width: 1233
VWidth: 0
Flags: W
LayerCount: 2
Fore
SplineSet
317 1493 m 257
NamedP: "hr00"
 737 1493 l 258
 1052 1493 1220 1374 1220 1123 c 256
NamedP: "dh02"
 1220 978 1165 825 1089 731 c 256
 985 603 817 559 594 559 c 258
NamedP: "dv01"
 430 559 l 257
 321 0 l 257
NamedP: "ab01"
 26 0 l 257
 317 1493 l 257
NamedP: "hr00"
622 807 m 258
NamedP: "dv02"
 818 807 913 900 913 1069 c 256
NamedP: "dh01"
 913 1197 856 1245 684 1245 c 258
NamedP: "sv01"
 563 1245 l 257
 479 807 l 257
 622 807 l 258
NamedP: "dv02"
EndSplineSet
PickledDataWithLists: "(dp1
S'com.schriftgestaltung.Glyphs.lastChange'
p2
S'2017-07-11 17:15:08 +0000'
p3
s."
EndChar

StartChar: S
Encoding: 108 83 108
GlifName: S_
Width: 1233
VWidth: 0
Flags: W
LayerCount: 2
Fore
SplineSet
469 -29 m 256
NamedP: "hr00"
 392 -29 319 -20 243 -3 c 256
 163 16 88 41 4 76 c 257
 63 381 l 257
 128 326 190 289 266 258 c 256
 337 230 403 215 479 215 c 256
NamedP: "sh03"
 567 215 637 235 688 274 c 256
 739 313 764 364 764 429 c 256
NamedP: "ah01"
 764 476 752 511 729 540 c 256
 706 570 671 595 625 614 c 258
 506 664 l 258
 375 719 297 765 252 820 c 256
 213 867 190 926 190 1021 c 256
NamedP: "sh01"
 190 1177 255 1298 351 1381 c 256
 455 1470 599 1520 770 1520 c 256
NamedP: "sh04"
 908 1520 1037 1492 1159 1438 c 257
 1102 1153 l 257
 1056 1195 1003 1226 943 1247 c 256
 882 1268 812 1278 748 1278 c 256
NamedP: "sv01"
 656 1278 594 1257 549 1222 c 256
 500 1183 475 1131 475 1087 c 256
NamedP: "sh02"
 475 1018 538 962 659 910 c 258
 666 907 l 257
 782 856 l 258
 882 812 952 760 996 700 c 256
 1041 639 1063 566 1063 473 c 256
NamedP: "sh05"
 1063 330 1012 201 903 108 c 256
 799 20 652 -29 469 -29 c 256
NamedP: "hr00"
EndSplineSet
PickledDataWithLists: "(dp1
S'com.schriftgestaltung.Glyphs.lastChange'
p2
S'2017-07-11 17:15:08 +0000'
p3
s."
EndChar

StartChar: Sacute
Encoding: 109 346 109
GlifName: S_acute
Width: 1233
VWidth: 0
Flags: W
LayerCount: 2
Fore
SplineSet
887 1853 m 257
NamedP: "hr00"
 1168 1853 l 257
 848 1589 l 257
 641 1589 l 257
NamedP: "ih01"
 887 1853 l 257
NamedP: "hr00"
469 -29 m 256
NamedP: "sh04"
 318 -29 169 5 4 76 c 257
 63 381 l 257
 192 273 335 215 480 215 c 256
NamedP: "sh05"
 655 215 764 300 764 430 c 256
NamedP: "ah01"
 764 517 717 575 625 614 c 258
 506 664 l 258
 255 768 190 850 190 1012 c 256
NamedP: "sh01"
 190 1320 427 1520 775 1520 c 256
NamedP: "sh06"
 904 1520 1038 1494 1159 1438 c 257
 1102 1153 l 257
 1011 1236 879 1278 753 1278 c 256
NamedP: "sh07"
 544 1278 475 1162 475 1088 c 256
NamedP: "sh03"
 475 1023 527 967 659 910 c 258
 666 907 l 257
 782 856 l 258
 977 771 1063 653 1063 470 c 256
NamedP: "sh02"
 1063 171 832 -29 469 -29 c 256
NamedP: "sh04"
EndSplineSet
PickledDataWithLists: "(dp1
S'com.schriftgestaltung.Glyphs.lastChange'
p2
S'2017-07-11 17:15:08 +0000'
p3
s."
EndChar

StartChar: Scaron
Encoding: 110 352 110
GlifName: S_caron
Width: 1233
VWidth: 0
Flags: W
LayerCount: 2
Fore
SplineSet
457 1853 m 257
NamedP: "hr00"
 627 1853 l 257
 776 1691 l 257
NamedP: "sh03"
 1005 1853 l 257
NamedP: "dv02"
 1186 1853 l 257
 942 1589 l 257
NamedP: "dv01"
 594 1589 l 257
 457 1853 l 257
NamedP: "hr00"
469 -29 m 256
NamedP: "sh04"
 392 -29 319 -20 243 -3 c 256
 163 16 88 41 4 76 c 257
 63 381 l 257
 128 326 190 289 266 258 c 256
 337 230 403 215 479 215 c 256
NamedP: "sh05"
 567 215 637 235 688 274 c 256
 739 313 764 364 764 429 c 256
NamedP: "ah01"
 764 476 752 511 729 540 c 256
 706 570 671 595 625 614 c 258
 506 664 l 258
 375 719 297 765 252 820 c 256
 213 867 190 926 190 1021 c 256
NamedP: "sh01"
 190 1177 255 1298 351 1381 c 256
 455 1470 599 1520 770 1520 c 256
NamedP: "sh06"
 908 1520 1037 1492 1159 1438 c 257
 1102 1153 l 257
 1056 1195 1003 1226 943 1247 c 256
 882 1268 812 1278 748 1278 c 256
NamedP: "sv01"
 656 1278 594 1257 549 1222 c 256
 500 1183 475 1131 475 1087 c 256
NamedP: "sh02"
 475 1018 538 962 659 910 c 258
 666 907 l 257
 782 856 l 258
 882 812 952 760 996 700 c 256
 1041 639 1063 566 1063 473 c 256
NamedP: "sh07"
 1063 330 1012 201 903 108 c 256
 799 20 652 -29 469 -29 c 256
NamedP: "sh04"
EndSplineSet
PickledDataWithLists: "(dp1
S'com.schriftgestaltung.Glyphs.lastChange'
p2
S'2017-07-11 17:15:08 +0000'
p3
s."
EndChar

StartChar: Scedilla
Encoding: 111 350 111
GlifName: S_cedilla
Width: 1233
VWidth: 0
Flags: W
LayerCount: 2
Fore
SplineSet
549 1222 m 256
NamedP: "hr00"
 500 1183 475 1131 475 1087 c 256
NamedP: "sh02"
 475 1018 538 962 659 910 c 258
 666 907 l 257
 782 856 l 258
 882 812 952 760 996 700 c 256
 1041 639 1063 566 1063 473 c 256
NamedP: "sh03"
 1063 330 1012 201 903 108 c 256
 822 39 712 -7 579 -23 c 257
NamedP: "ih01"
 595 -47 608 -70 617 -94 c 256
 629 -125 635 -156 635 -185 c 256
 635 -248 611 -303 560 -342 c 256
 511 -381 440 -401 348 -401 c 256
NamedP: "dv01"
 313 -401 274 -398 249 -395 c 256
NamedP: "sv01"
 193 -388 171 -379 150 -375 c 257
 178 -219 l 257
NamedP: "sh04"
 207 -230 235 -238 262 -245 c 256
 289 -251 314 -254 339 -254 c 256
NamedP: "dv02"
 384 -254 420 -244 443 -227 c 256
 467 -209 479 -184 479 -151 c 256
NamedP: "sh05"
 479 -132 475 -112 466 -90 c 256
NamedP: "sh06"
 459 -75 451 -53 438 -28 c 257
 373 -26 308 -18 243 -3 c 256
 163 16 88 41 4 76 c 257
 63 381 l 257
 128 326 190 289 266 258 c 256
 337 230 403 215 479 215 c 256
NamedP: "sh07"
 567 215 637 235 688 274 c 256
 739 313 764 364 764 429 c 256
NamedP: "ah01"
 764 476 752 511 729 540 c 256
 706 570 671 595 625 614 c 258
 506 664 l 258
 375 719 297 765 252 820 c 256
 213 867 190 926 190 1021 c 256
NamedP: "sh01"
 190 1177 255 1298 351 1381 c 256
 455 1470 599 1520 770 1520 c 256
NamedP: "sh08"
 908 1520 1037 1492 1159 1438 c 257
 1102 1153 l 257
 1056 1195 1003 1226 943 1247 c 256
 882 1268 812 1278 748 1278 c 256
NamedP: "sv02"
 656 1278 594 1257 549 1222 c 256
NamedP: "hr00"
EndSplineSet
PickledDataWithLists: "(dp1
S'com.schriftgestaltung.Glyphs.lastChange'
p2
S'2017-07-11 17:15:08 +0000'
p3
s."
Substitution2: "'locl' Localized Forms in Latin lookup 1 subtable" uni0218
Substitution2: "'locl' Localized Forms in Latin lookup 0 subtable" uni0218
EndChar

StartChar: Scircumflex
Encoding: 112 348 112
GlifName: S_circumflex
Width: 1233
VWidth: 0
Flags: W
LayerCount: 2
Fore
SplineSet
673 1852 m 257
NamedP: "hr00"
 982 1852 l 257
 1154 1588 l 257
 976 1588 l 257
 808 1749 l 257
 579 1588 l 257
 401 1588 l 257
 673 1852 l 257
NamedP: "hr00"
2 76 m 257
 61 381 l 257
 196 270 333 215 474 215 c 256
 621 215 718 286 741 403 c 257
 744 413 745 427 745 444 c 256
 745 513 705 565 624 600 c 257
 489 655 l 257
 413 688 353 720 308 751 c 256
 220 812 181 883 181 980 c 256
 181 1006 185 1041 192 1085 c 257
 210 1176 245 1253 297 1318 c 256
 401 1450 563 1520 763 1520 c 256
 903 1520 1034 1489 1156 1427 c 257
 1100 1139 l 257
 992 1228 866 1276 738 1276 c 256
 598 1276 507 1216 486 1111 c 256
 483 1098 482 1085 482 1074 c 256
 482 997 549 966 664 918 c 258
 781 870 l 258
 969 794 1055 686 1055 525 c 256
 1055 491 1051 454 1043 415 c 256
 986 122 776 -29 429 -29 c 256
 266 -29 124 6 2 76 c 257
EndSplineSet
PickledDataWithLists: "(dp1
S'com.schriftgestaltung.Glyphs.lastChange'
p2
S'2017-07-11 17:15:08 +0000'
p3
s."
EndChar

StartChar: Sigma
Encoding: 113 931 113
GlifName: S_igma
Width: 1233
VWidth: 0
Flags: W
LayerCount: 2
Fore
SplineSet
3 260 m 257
NamedP: "hr00"
 499 747 l 257
 193 1234 l 257
 243 1493 l 257
NamedP: "at01"
 1289 1493 l 257
 1239 1233 l 257
NamedP: "sv01"
 533 1233 l 257
 840 747 l 257
 343 260 l 257
NamedP: "sv02"
 1049 260 l 257
 999 0 l 257
NamedP: "ab01"
 -47 0 l 257
 3 260 l 257
NamedP: "hr00"
EndSplineSet
PickledDataWithLists: "(dp1
S'com.schriftgestaltung.Glyphs.lastChange'
p2
S'2017-07-11 17:15:08 +0000'
p3
s."
EndChar

StartChar: T
Encoding: 114 84 114
GlifName: T_
Width: 1233
VWidth: 0
Flags: W
LayerCount: 2
Fore
SplineSet
563 1235 m 257
NamedP: "hr00"
 180 1235 l 257
 229 1493 l 257
NamedP: "at01"
 1288 1493 l 257
 1237 1235 l 257
NamedP: "sv01"
 858 1235 l 257
NamedP: "sv02"
 618 0 l 257
NamedP: "ab01"
 324 0 l 257
 563 1235 l 257
NamedP: "hr00"
EndSplineSet
PickledDataWithLists: "(dp1
S'com.schriftgestaltung.Glyphs.lastChange'
p2
S'2017-07-11 17:15:08 +0000'
p3
s."
EndChar

StartChar: Tau
Encoding: 115 932 115
GlifName: T_au
Width: 1233
VWidth: 0
Flags: W
LayerCount: 2
Fore
SplineSet
575 1235 m 257
NamedP: "hr00"
 192 1235 l 257
 241 1493 l 257
NamedP: "at01"
 1300 1493 l 257
 1249 1235 l 257
NamedP: "sv01"
 870 1235 l 257
NamedP: "sv02"
 630 0 l 257
NamedP: "ab01"
 336 0 l 257
 575 1235 l 257
NamedP: "hr00"
EndSplineSet
PickledDataWithLists: "(dp1
S'com.schriftgestaltung.Glyphs.lastChange'
p2
S'2017-07-11 17:15:08 +0000'
p3
s."
EndChar

StartChar: Tbar
Encoding: 116 358 116
GlifName: T_bar
Width: 1233
VWidth: 0
Flags: W
LayerCount: 2
Fore
SplineSet
428 538 m 257
NamedP: "hr00"
 181 538 l 257
 219 730 l 257
 466 730 l 257
NamedP: "dv01"
 564 1235 l 257
NamedP: "sv01"
 185 1235 l 257
 235 1493 l 257
NamedP: "at01"
 1288 1493 l 257
 1238 1235 l 257
NamedP: "sv02"
 859 1235 l 257
NamedP: "sv03"
 761 730 l 257
NamedP: "sv04"
 1008 730 l 257
 970 538 l 257
NamedP: "sv05"
 723 538 l 257
 619 0 l 257
NamedP: "ab01"
 324 0 l 257
 428 538 l 257
NamedP: "hr00"
EndSplineSet
PickledDataWithLists: "(dp1
S'com.schriftgestaltung.Glyphs.lastChange'
p2
S'2017-07-11 17:15:08 +0000'
p3
s."
EndChar

StartChar: Tcaron
Encoding: 117 356 117
GlifName: T_caron
Width: 1233
VWidth: 0
Flags: W
LayerCount: 2
Fore
SplineSet
459 1853 m 257
NamedP: "hr00"
 629 1853 l 257
 778 1691 l 257
 1007 1853 l 257
NamedP: "dv02"
 1188 1853 l 257
 944 1589 l 257
NamedP: "dv01"
 596 1589 l 257
 459 1853 l 257
NamedP: "hr00"
563 1235 m 257
NamedP: "sv01"
 180 1235 l 257
 229 1493 l 257
NamedP: "at01"
 1288 1493 l 257
 1237 1235 l 257
NamedP: "sv02"
 858 1235 l 257
NamedP: "sv03"
 618 0 l 257
NamedP: "ab01"
 324 0 l 257
 563 1235 l 257
NamedP: "sv01"
EndSplineSet
PickledDataWithLists: "(dp1
S'com.schriftgestaltung.Glyphs.lastChange'
p2
S'2017-07-11 17:15:08 +0000'
p3
s."
EndChar

StartChar: Theta
Encoding: 118 920 118
GlifName: T_heta
Width: 1233
VWidth: 0
Flags: W
LayerCount: 2
Fore
SplineSet
-21 452 m 256
NamedP: "hr00"
 -21 521 -13 597 3 680 c 256
 95 1154 366 1418 754 1418 c 256
 1071 1418 1241 1244 1241 916 c 256
 1241 845 1232 765 1215 675 c 256
 1122 199 867 -24 479 -24 c 256
 148 -24 -21 136 -21 452 c 256
NamedP: "hr00"
934 686 m 257
 949 761 957 831 957 895 c 256
 957 1087 876 1183 713 1183 c 256
 478 1183 346 987 287 686 c 256
 274 618 267 558 267 505 c 256
 267 328 345 231 529 231 c 256
 767 231 877 391 934 686 c 257
421 809 m 257
 848 809 l 257
 803 579 l 257
 376 579 l 257
 421 809 l 257
EndSplineSet
PickledDataWithLists: "(dp1
S'com.schriftgestaltung.Glyphs.lastChange'
p2
S'2017-07-11 17:15:08 +0000'
p3
s."
EndChar

StartChar: Thorn
Encoding: 119 222 119
GlifName: T_horn
Width: 1233
VWidth: 0
Flags: W
LayerCount: 2
Fore
SplineSet
307 1493 m 257
NamedP: "at01"
 602 1493 l 257
 555 1266 l 257
 682 1266 l 258
NamedP: "sv02"
 839 1266 959 1235 1042 1174 c 256
 1126 1111 1165 1023 1165 902 c 256
NamedP: "dh02"
 1165 834 1153 758 1129 683 c 256
 1104 606 1073 551 1034 506 c 256
 975 437 913 401 840 374 c 256
 761 346 671 332 539 332 c 258
NamedP: "dv01"
 375 332 l 257
 311 0 l 257
NamedP: "ab01"
 16 0 l 257
 307 1493 l 257
NamedP: "at01"
569 580 m 258
NamedP: "dv02"
 667 580 739 602 786 647 c 256
 834 692 858 759 858 843 c 256
NamedP: "dh01"
 858 916 841 956 806 980 c 256
NamedP: "hr01"
 771 1005 716 1018 631 1018 c 258
NamedP: "sv01"
 510 1018 l 257
NamedP: "hr02"
 424 580 l 257
 569 580 l 258
NamedP: "dv02"
EndSplineSet
PickledDataWithLists: "(dp1
S'com.schriftgestaltung.Glyphs.lastChange'
p2
S'2017-07-11 17:15:08 +0000'
p3
s."
EndChar

StartChar: U
Encoding: 120 85 120
GlifName: U_
Width: 1233
VWidth: 0
Flags: W
LayerCount: 2
Fore
SplineSet
497 -29 m 256
NamedP: "hr00"
 356 -29 243 3 163 70 c 256
 80 138 45 233 45 354 c 256
NamedP: "dh01"
 45 382 47 408 51 444 c 256
NamedP: "sh01"
 56 491 57 504 68 551 c 257
 252 1493 l 257
NamedP: "at01"
 547 1493 l 257
 348 477 l 257
NamedP: "sh02"
 348 475 348 473 347 471 c 256
NamedP: "sh03"
 342 440 340 419 340 400 c 256
NamedP: "dh02"
 340 295 403 231 518 231 c 256
NamedP: "dv01"
 587 231 646 251 689 292 c 256
 732 333 761 394 778 477 c 258
 977 1493 l 257
NamedP: "at02"
 1272 1493 l 257
 1087 551 l 258
 1064 438 1044 354 1012 279 c 256
 984 214 951 166 908 123 c 256
 858 74 798 37 729 10 c 256
 660 -17 585 -29 497 -29 c 256
NamedP: "hr00"
EndSplineSet
PickledDataWithLists: "(dp1
S'com.schriftgestaltung.Glyphs.lastChange'
p2
S'2017-07-11 17:15:08 +0000'
p3
s."
EndChar

StartChar: Uacute
Encoding: 121 218 121
GlifName: U_acute
Width: 1233
VWidth: 0
Flags: W
LayerCount: 2
Fore
SplineSet
868 1854 m 257
NamedP: "hr00"
 1149 1854 l 257
 829 1590 l 257
 622 1590 l 257
NamedP: "iv01"
 868 1854 l 257
NamedP: "hr00"
497 -29 m 256
NamedP: "dv01"
 356 -29 243 3 163 70 c 256
 80 138 45 233 45 354 c 256
NamedP: "dh01"
 45 382 47 408 51 444 c 256
NamedP: "sh01"
 56 495 58 504 68 551 c 257
 252 1493 l 257
NamedP: "at01"
 547 1493 l 257
 348 477 l 257
NamedP: "sh02"
 348 475 348 473 347 471 c 256
NamedP: "sh03"
 342 440 340 419 340 400 c 256
NamedP: "dh02"
 340 295 403 231 518 231 c 256
NamedP: "dv02"
 587 231 646 251 689 292 c 256
 732 333 761 394 778 477 c 258
 977 1493 l 257
NamedP: "at02"
 1272 1493 l 257
 1087 551 l 258
 1064 438 1044 354 1012 279 c 256
 984 214 951 166 908 123 c 256
 857 74 798 36 729 10 c 256
 660 -17 585 -29 497 -29 c 256
NamedP: "dv01"
EndSplineSet
PickledDataWithLists: "(dp1
S'com.schriftgestaltung.Glyphs.lastChange'
p2
S'2017-07-11 17:15:08 +0000'
p3
s."
EndChar

StartChar: Ubreve
Encoding: 122 364 122
GlifName: U_breve
Width: 1233
VWidth: 0
Flags: W
LayerCount: 2
Fore
SplineSet
494 1824 m 256
NamedP: "hr00"
 494 1839 494 1849 495 1852 c 257
 636 1852 l 257
 645 1773 706 1731 807 1731 c 256
 910 1731 982 1771 1023 1852 c 257
 1166 1852 l 257
 1113 1681 976 1588 779 1588 c 256
 591 1588 494 1673 494 1824 c 256
NamedP: "hr00"
731 10 m 256
 860 59 951 150 998 247 c 256
 1037 328 1059 411 1087 551 c 258
 1272 1493 l 257
 977 1493 l 257
 778 477 l 257
 745 312 661 231 518 231 c 256
 405 231 340 293 340 400 c 256
 340 422 342 446 347 471 c 257
 348 472 348 474 348 477 c 257
 547 1493 l 257
 252 1493 l 257
 68 551 l 257
 63 528 l 257
 58 498 l 257
 51 444 l 258
 47 408 45 378 45 354 c 256
 45 229 83 137 163 70 c 256
 242 4 354 -29 497 -29 c 256
NamedP: "hr01"
 584 -29 662 -16 731 10 c 256
EndSplineSet
PickledDataWithLists: "(dp1
S'com.schriftgestaltung.Glyphs.lastChange'
p2
S'2017-07-11 17:15:08 +0000'
p3
s."
EndChar

StartChar: Ucircumflex
Encoding: 123 219 123
GlifName: U_circumflex
Width: 1233
VWidth: 0
Flags: W
LayerCount: 2
Fore
SplineSet
645 1855 m 257
NamedP: "hr00"
 993 1855 l 257
NamedP: "dv04"
 1144 1591 l 257
 975 1591 l 257
NamedP: "dv03"
 811 1752 l 257
 581 1591 l 257
NamedP: "sv01"
 401 1591 l 257
 645 1855 l 257
NamedP: "hr00"
497 -29 m 256
NamedP: "dv01"
 356 -29 243 3 163 70 c 256
 80 138 45 233 45 354 c 256
NamedP: "dh01"
 45 382 47 408 51 444 c 256
NamedP: "sh01"
 56 495 58 504 68 551 c 257
 252 1493 l 257
NamedP: "at01"
 547 1493 l 257
 348 477 l 257
NamedP: "sh02"
 348 475 348 473 347 471 c 256
NamedP: "sh03"
 342 440 340 419 340 400 c 256
NamedP: "dh02"
 340 295 403 231 518 231 c 256
NamedP: "dv02"
 587 231 646 251 689 292 c 256
 732 333 761 394 778 477 c 258
 977 1493 l 257
NamedP: "at02"
 1272 1493 l 257
 1087 551 l 258
 1064 438 1044 354 1012 279 c 256
 984 214 951 166 908 123 c 256
 857 74 798 36 729 10 c 256
 660 -17 585 -29 497 -29 c 256
NamedP: "dv01"
EndSplineSet
PickledDataWithLists: "(dp1
S'com.schriftgestaltung.Glyphs.lastChange'
p2
S'2017-07-11 17:15:08 +0000'
p3
s."
EndChar

StartChar: Udieresis
Encoding: 124 220 124
GlifName: U_dieresis
Width: 1233
VWidth: 0
Flags: W
LayerCount: 2
Fore
SplineSet
493 1608 m 258
NamedP: "hr00"
 475 1608 466 1617 466 1634 c 256
 466 1639 467 1638 467 1641 c 257
 505 1827 l 258
 509 1845 520 1854 537 1854 c 258
NamedP: "dv03"
 712 1854 l 258
 730 1854 739 1845 739 1828 c 256
 739 1823 738 1824 738 1821 c 257
 701 1635 l 258
 698 1617 687 1608 669 1608 c 258
 493 1608 l 258
NamedP: "hr00"
889 1608 m 258
NamedP: "sv01"
 871 1608 862 1617 862 1634 c 256
 862 1639 863 1638 863 1641 c 257
 900 1827 l 257
 903 1845 913 1854 932 1854 c 258
NamedP: "sv02"
 1107 1854 l 258
 1127 1854 1138 1841 1134 1821 c 258
 1098 1635 l 258
 1095 1617 1084 1608 1066 1608 c 258
 889 1608 l 258
NamedP: "sv01"
497 -29 m 256
NamedP: "dv01"
 356 -29 243 3 163 70 c 256
 80 138 45 233 45 354 c 256
NamedP: "dh01"
 45 382 47 408 51 444 c 256
NamedP: "sh01"
 56 495 58 504 68 551 c 257
 252 1493 l 257
NamedP: "at01"
 547 1493 l 257
 348 477 l 257
NamedP: "sh02"
 348 475 348 473 347 471 c 256
NamedP: "sh03"
 342 440 340 419 340 400 c 256
NamedP: "dh02"
 340 295 403 231 518 231 c 256
NamedP: "dv02"
 587 231 646 251 689 292 c 256
 732 333 761 394 778 477 c 258
 977 1493 l 257
NamedP: "at02"
 1272 1493 l 257
 1087 551 l 258
 1064 438 1044 354 1012 279 c 256
 984 214 951 166 908 123 c 256
 857 74 798 36 729 10 c 256
 660 -17 585 -29 497 -29 c 256
NamedP: "dv01"
EndSplineSet
PickledDataWithLists: "(dp1
S'com.schriftgestaltung.Glyphs.lastChange'
p2
S'2017-07-11 17:15:08 +0000'
p3
s."
EndChar

StartChar: Ugrave
Encoding: 125 217 125
GlifName: U_grave
Width: 1233
VWidth: 0
Flags: W
LayerCount: 2
Fore
SplineSet
496 1852 m 257
NamedP: "hr00"
 760 1852 l 257
NamedP: "dv04"
 903 1588 l 257
 725 1588 l 257
NamedP: "dv03"
 496 1852 l 257
NamedP: "hr00"
497 -29 m 256
NamedP: "dv01"
 356 -29 243 3 163 70 c 256
 80 138 45 233 45 354 c 256
NamedP: "dh01"
 45 382 47 408 51 444 c 256
NamedP: "sh01"
 56 495 58 504 68 551 c 257
 252 1493 l 257
NamedP: "at01"
 547 1493 l 257
 348 477 l 257
NamedP: "sh02"
 348 475 348 473 347 471 c 256
NamedP: "sh03"
 342 440 340 419 340 400 c 256
NamedP: "dh02"
 340 295 403 231 518 231 c 256
NamedP: "dv02"
 587 231 646 251 689 292 c 256
 732 333 761 394 778 477 c 258
 977 1493 l 257
NamedP: "at02"
 1272 1493 l 257
 1087 551 l 258
 1064 438 1044 354 1012 279 c 256
 984 214 951 166 908 123 c 256
 857 74 798 36 729 10 c 256
 660 -17 585 -29 497 -29 c 256
NamedP: "dv01"
EndSplineSet
PickledDataWithLists: "(dp1
S'com.schriftgestaltung.Glyphs.lastChange'
p2
S'2017-07-11 17:15:08 +0000'
p3
s."
EndChar

StartChar: Uhorn
Encoding: 126 431 126
GlifName: U_horn
Width: 1233
VWidth: 0
Flags: W
LayerCount: 2
Fore
SplineSet
1437 1555 m 257
NamedP: "at03"
 1437 1482 1433 1421 1422 1365 c 256
 1391 1213 1313 1127 1198 1127 c 256
NamedP: "sv01"
 1175 1127 1152 1131 1129 1139 c 257
 1014 551 l 258
 969 322 924 208 836 123 c 256
NamedP: "hr01"
 736 24 599 -29 419 -29 c 256
NamedP: "dv01"
 136 -29 -28 107 -28 359 c 256
NamedP: "dh01"
 -28 411 -21 471 -5 551 c 258
 179 1493 l 257
NamedP: "at01"
 474 1493 l 257
 275 477 l 257
NamedP: "sh01"
 275 475 275 473 274 471 c 256
NamedP: "sh02"
 269 440 267 418 267 399 c 256
NamedP: "dh02"
 267 294 329 231 449 231 c 256
NamedP: "dv02"
 582 231 672 309 705 477 c 258
 904 1493 l 257
NamedP: "at02"
 1199 1493 l 257
 1160 1292 l 257
 1163 1291 1167 1291 1172 1291 c 256
 1219 1291 1265 1323 1281 1399 c 256
 1286 1423 1289 1454 1289 1478 c 256
 1289 1501 1286 1526 1281 1555 c 257
NamedP: "hr02"
 1437 1555 l 257
NamedP: "at03"
EndSplineSet
PickledDataWithLists: "(dp1
S'com.schriftgestaltung.Glyphs.lastChange'
p2
S'2017-07-11 17:15:08 +0000'
p3
s."
EndChar

StartChar: Uhungarumlaut
Encoding: 127 368 127
GlifName: U_hungarumlaut
Width: 1233
VWidth: 0
Flags: W
LayerCount: 2
Fore
SplineSet
687 1852 m 257
NamedP: "hr00"
 971 1852 l 257
 634 1588 l 257
NamedP: "dv03"
 437 1588 l 257
 687 1852 l 257
NamedP: "hr00"
1062 1852 m 257
NamedP: "sv01"
 1346 1852 l 257
 1009 1588 l 257
NamedP: "sv02"
 812 1588 l 257
 1062 1852 l 257
NamedP: "sv01"
492 -29 m 256
NamedP: "dv01"
 209 -29 45 107 45 359 c 256
NamedP: "dh01"
 45 411 52 471 68 551 c 258
 252 1493 l 257
NamedP: "at01"
 547 1493 l 257
 348 477 l 257
NamedP: "sh01"
 348 475 348 473 347 471 c 256
NamedP: "sh02"
 342 440 340 418 340 399 c 256
NamedP: "dh02"
 340 294 402 231 522 231 c 256
NamedP: "dv02"
 655 231 745 309 778 477 c 258
 977 1493 l 257
NamedP: "at02"
 1272 1493 l 257
 1087 551 l 258
 1042 322 997 208 909 123 c 256
 809 24 672 -29 492 -29 c 256
NamedP: "dv01"
EndSplineSet
PickledDataWithLists: "(dp1
S'com.schriftgestaltung.Glyphs.lastChange'
p2
S'2017-07-11 17:15:08 +0000'
p3
s."
EndChar

StartChar: Umacron
Encoding: 128 362 128
GlifName: U_macron
Width: 1233
VWidth: 0
Flags: W
LayerCount: 2
Fore
SplineSet
519 1850 m 257
NamedP: "hr00"
 1150 1850 l 257
NamedP: "dv04"
 1114 1662 l 257
NamedP: "dv03"
 483 1662 l 257
 519 1850 l 257
NamedP: "hr00"
492 -29 m 256
NamedP: "dv01"
 209 -29 45 107 45 359 c 256
NamedP: "dh01"
 45 411 52 471 68 551 c 258
 252 1493 l 257
NamedP: "at01"
 547 1493 l 257
 348 477 l 257
NamedP: "sh01"
 348 475 348 473 347 471 c 256
NamedP: "sh02"
 342 440 340 418 340 399 c 256
NamedP: "dh02"
 340 294 402 231 522 231 c 256
NamedP: "dv02"
 655 231 745 309 778 477 c 258
 977 1493 l 257
NamedP: "at02"
 1272 1493 l 257
 1087 551 l 258
 1042 322 997 208 909 123 c 256
 809 24 672 -29 492 -29 c 256
NamedP: "dv01"
EndSplineSet
PickledDataWithLists: "(dp1
S'com.schriftgestaltung.Glyphs.lastChange'
p2
S'2017-07-11 17:15:08 +0000'
p3
s."
EndChar

StartChar: Uogonek
Encoding: 129 370 129
GlifName: U_ogonek
Width: 1233
VWidth: 0
Flags: W
LayerCount: 2
Fore
SplineSet
1272 1493 m 257
NamedP: "at01"
 1087 551 l 258
 1042 322 997 208 909 123 c 256
 809 24 672 -29 492 -29 c 258
NamedP: "dv03"
 487 -29 l 257
 445 -74 416 -109 400 -133 c 256
 384 -158 376 -178 376 -198 c 256
NamedP: "sh01"
 376 -237 407 -270 476 -270 c 256
NamedP: "dv02"
 512 -270 569 -262 632 -239 c 257
 601 -395 l 257
 536 -410 473 -417 422 -417 c 256
NamedP: "dv01"
 285 -417 202 -366 202 -271 c 256
NamedP: "hr01"
 202 -199 250 -112 357 -17 c 257
NamedP: "ih01"
 156 22 45 148 45 359 c 256
NamedP: "dh01"
 45 411 52 471 68 551 c 258
 252 1493 l 257
NamedP: "at02"
 547 1493 l 257
 348 477 l 257
NamedP: "sh02"
 348 475 348 473 347 471 c 256
NamedP: "sh03"
 342 440 340 418 340 399 c 256
NamedP: "dh02"
 340 294 402 231 522 231 c 256
NamedP: "dv04"
 655 231 745 309 778 477 c 258
 977 1493 l 257
 1272 1493 l 257
NamedP: "at01"
EndSplineSet
PickledDataWithLists: "(dp1
S'com.schriftgestaltung.Glyphs.lastChange'
p2
S'2017-07-11 17:15:08 +0000'
p3
s."
EndChar

StartChar: Upsilon
Encoding: 130 933 130
GlifName: U_psilon
Width: 1233
VWidth: 0
Flags: W
LayerCount: 2
Fore
SplineSet
432 534 m 258
NamedP: "hr00"
 452 635 461 736 461 829 c 256
NamedP: "dh01"
 461 1020 423 1173 363 1203 c 256
 315 1226 265 1238 214 1238 c 256
NamedP: "sv01"
 187 1238 160 1235 132 1229 c 257
NamedP: "sv02"
 183 1493 l 257
NamedP: "at01"
 208 1501 239 1504 274 1504 c 256
NamedP: "at02"
 313 1504 359 1501 410 1490 c 257
NamedP: "at03"
 586 1458 673 1314 670 1057 c 257
NamedP: "dh02"
 790 1308 933 1453 1098 1490 c 256
NamedP: "at04"
 1123 1495 1146 1498 1165 1498 c 256
NamedP: "at05"
 1206 1498 1240 1488 1269 1467 c 256
 1315 1434 1338 1389 1338 1332 c 256
NamedP: "hr01"
 1338 1277 1315 1209 1270 1130 c 256
 1243 1085 1199 1063 1155 1063 c 256
NamedP: "sv03"
 1089 1063 1026 1111 1034 1203 c 257
NamedP: "hr02"
 875 1022 779 803 727 534 c 258
 623 0 l 257
NamedP: "ab01"
 328 0 l 257
 432 534 l 258
NamedP: "hr00"
EndSplineSet
PickledDataWithLists: "(dp1
S'com.schriftgestaltung.Glyphs.lastChange'
p2
S'2017-07-11 17:15:08 +0000'
p3
s."
EndChar

StartChar: Upsilondieresis
Encoding: 131 939 131
GlifName: U_psilondieresis
Width: 1233
VWidth: 0
Flags: W
LayerCount: 2
Fore
SplineSet
483 1608 m 258
NamedP: "dv01"
 462 1608 453 1621 457 1641 c 258
 495 1827 l 258
 499 1845 510 1854 527 1854 c 258
NamedP: "dv02"
 702 1854 l 258
 723 1854 732 1841 728 1821 c 258
 691 1635 l 258
 688 1617 677 1608 659 1608 c 258
 483 1608 l 258
NamedP: "dv01"
879 1608 m 258
NamedP: "sv01"
 858 1608 849 1621 853 1641 c 258
 890 1827 l 257
 893 1845 903 1854 922 1854 c 258
NamedP: "sv02"
 1097 1854 l 258
NamedP: "hr01"
 1117 1854 1128 1841 1124 1821 c 258
 1088 1635 l 258
 1085 1617 1074 1608 1056 1608 c 258
NamedP: "hr02"
 879 1608 l 258
NamedP: "sv01"
432 534 m 258
 452 635 461 736 461 829 c 256
NamedP: "dh01"
 461 1020 423 1173 363 1203 c 256
 315 1226 265 1238 214 1238 c 256
NamedP: "sv03"
 187 1238 160 1235 132 1229 c 257
NamedP: "sv04"
 183 1493 l 257
NamedP: "at01"
 208 1501 239 1504 274 1504 c 256
NamedP: "at02"
 313 1504 359 1501 410 1490 c 257
NamedP: "at03"
 586 1458 673 1314 670 1057 c 257
NamedP: "dh02"
 790 1308 933 1453 1098 1490 c 256
NamedP: "at04"
 1123 1495 1146 1498 1165 1498 c 256
NamedP: "at05"
 1206 1498 1240 1488 1269 1467 c 256
 1315 1434 1338 1389 1338 1332 c 256
 1338 1277 1315 1209 1270 1130 c 256
 1243 1085 1199 1063 1155 1063 c 256
NamedP: "sv05"
 1089 1063 1026 1111 1034 1203 c 257
NamedP: "iv01"
 875 1022 779 803 727 534 c 258
 623 0 l 257
NamedP: "ab01"
 328 0 l 257
 432 534 l 258
EndSplineSet
PickledDataWithLists: "(dp1
S'com.schriftgestaltung.Glyphs.lastChange'
p2
S'2017-07-11 17:15:08 +0000'
p3
s."
EndChar

StartChar: Upsilontonos
Encoding: 132 910 132
GlifName: U_psilontonos
Width: 1233
VWidth: 0
Flags: W
LayerCount: 2
Fore
SplineSet
427 534 m 258
NamedP: "hr00"
 447 635 456 736 456 829 c 256
NamedP: "dh01"
 456 1020 418 1173 358 1203 c 256
NamedP: "hr01"
 310 1226 260 1238 209 1238 c 256
NamedP: "sv01"
 182 1238 155 1235 127 1229 c 257
NamedP: "sv02"
 178 1493 l 257
NamedP: "at01"
 203 1501 234 1504 269 1504 c 256
NamedP: "at02"
 308 1504 354 1501 405 1490 c 257
NamedP: "at03"
 581 1458 668 1314 665 1057 c 257
NamedP: "hr03"
 785 1308 928 1453 1093 1490 c 256
NamedP: "at04"
 1118 1495 1141 1498 1160 1498 c 256
NamedP: "at05"
 1201 1498 1235 1488 1264 1467 c 256
 1310 1434 1333 1389 1333 1332 c 256
NamedP: "hr04"
 1333 1277 1310 1209 1265 1130 c 256
NamedP: "at06"
 1238 1085 1194 1063 1150 1063 c 256
NamedP: "sv03"
 1084 1063 1021 1111 1029 1203 c 257
NamedP: "iv01"
 870 1022 774 803 722 534 c 258
NamedP: "hr05"
 618 0 l 257
NamedP: "ab01"
 323 0 l 257
 427 534 l 258
NamedP: "hr00"
-216 1502 m 257
NamedP: "hr06"
 105 1502 l 257
NamedP: "iv02"
 -337 1126 l 257
NamedP: "at07"
 -534 1126 l 257
NamedP: "iv03"
 -216 1502 l 257
NamedP: "hr06"
EndSplineSet
PickledDataWithLists: "(dp1
S'com.schriftgestaltung.Glyphs.lastChange'
p2
S'2017-07-11 17:15:08 +0000'
p3
s."
EndChar

StartChar: Uring
Encoding: 133 366 133
GlifName: U_ring
Width: 1233
VWidth: 0
Flags: W
LayerCount: 2
Fore
SplineSet
1272 1493 m 257
NamedP: "at01"
 1087 551 l 258
 1042 322 997 208 909 123 c 256
 809 24 672 -29 492 -29 c 256
NamedP: "dv01"
 209 -29 45 107 45 359 c 256
NamedP: "dh01"
 45 411 52 471 68 551 c 258
 252 1493 l 257
NamedP: "at02"
 503 1493 l 257
NamedP: "ih01"
 484 1532 475 1573 475 1616 c 256
NamedP: "dh03"
 475 1773 601 1901 759 1901 c 256
NamedP: "dv04"
 916 1901 1044 1773 1044 1616 c 256
NamedP: "dh05"
 1044 1573 1035 1532 1016 1493 c 257
NamedP: "ih02"
 1272 1493 l 257
NamedP: "at01"
759 1747 m 256
NamedP: "dv03"
 687 1747 628 1688 628 1616 c 256
NamedP: "hr01"
 628 1543 687 1485 759 1485 c 256
NamedP: "at03"
 831 1485 891 1544 891 1616 c 256
NamedP: "dh04"
 891 1688 831 1747 759 1747 c 256
NamedP: "dv03"
962 1416 m 257
NamedP: "ih03"
 910 1363 839 1331 759 1331 c 256
NamedP: "sv01"
 667 1331 588 1372 536 1439 c 257
NamedP: "iv01"
 348 477 l 257
NamedP: "sh01"
 348 475 348 473 347 471 c 256
NamedP: "sh02"
 342 440 340 418 340 399 c 256
NamedP: "dh02"
 340 294 402 231 522 231 c 256
NamedP: "dv02"
 655 231 745 309 778 477 c 258
 962 1416 l 257
NamedP: "ih03"
EndSplineSet
PickledDataWithLists: "(dp1
S'com.schriftgestaltung.Glyphs.lastChange'
p2
S'2017-07-11 17:15:08 +0000'
p3
s."
EndChar

StartChar: Utilde
Encoding: 134 360 134
GlifName: U_tilde
Width: 1233
VWidth: 0
Flags: W
LayerCount: 2
Fore
SplineSet
438 1589 m 257
NamedP: "sv01"
 471 1762 563 1855 690 1855 c 256
NamedP: "dv03"
 741 1855 780 1840 827 1804 c 258
 880 1763 l 257
 901 1745 925 1736 950 1736 c 256
NamedP: "dv05"
 999 1736 1035 1778 1050 1855 c 257
NamedP: "sv02"
 1187 1855 l 257
 1152 1690 1068 1589 935 1589 c 256
NamedP: "dv04"
 888 1589 849 1601 798 1640 c 258
 749 1677 l 258
 716 1702 696 1709 676 1709 c 256
NamedP: "dv02"
 625 1709 590 1668 575 1589 c 257
 438 1589 l 257
NamedP: "sv01"
492 -29 m 256
NamedP: "dv01"
 209 -29 45 107 45 359 c 256
NamedP: "dh01"
 45 411 52 471 68 551 c 258
 252 1493 l 257
NamedP: "at01"
 547 1493 l 257
NamedP: "hr01"
 348 477 l 257
NamedP: "sh01"
 348 475 348 473 347 471 c 256
NamedP: "sh02"
 342 440 340 418 340 399 c 256
NamedP: "hr02"
 340 294 402 231 522 231 c 256
NamedP: "hr03"
 655 231 745 309 778 477 c 258
 977 1493 l 257
NamedP: "hr04"
 1272 1493 l 257
 1087 551 l 258
 1042 322 997 208 909 123 c 256
NamedP: "hr05"
 809 24 672 -29 492 -29 c 256
NamedP: "dv01"
EndSplineSet
PickledDataWithLists: "(dp1
S'com.schriftgestaltung.Glyphs.lastChange'
p2
S'2017-07-11 17:15:08 +0000'
p3
s."
EndChar

StartChar: V
Encoding: 135 86 135
GlifName: V_
Width: 1233
VWidth: 0
Flags: W
LayerCount: 2
Fore
SplineSet
203 1493 m 257
NamedP: "hr00"
 494 1493 l 257
 518 242 l 257
NamedP: "iv01"
 1024 1493 l 257
NamedP: "at01"
 1325 1493 l 257
 680 0 l 257
NamedP: "ab01"
 268 0 l 257
 203 1493 l 257
NamedP: "hr00"
EndSplineSet
PickledDataWithLists: "(dp1
S'com.schriftgestaltung.Glyphs.lastChange'
p2
S'2017-07-11 17:15:08 +0000'
p3
s."
EndChar

StartChar: W
Encoding: 136 87 136
GlifName: W_
Width: 1233
VWidth: 0
Flags: W
LayerCount: 2
Fore
SplineSet
143 1493 m 257
NamedP: "hr00"
 397 1493 l 257
 289 397 l 257
NamedP: "iv01"
 561 1106 l 257
 799 1106 l 257
 811 397 l 257
NamedP: "iv02"
 1108 1493 l 257
NamedP: "at01"
 1370 1493 l 257
 909 0 l 257
NamedP: "ab01"
 639 0 l 257
 627 784 l 257
NamedP: "iv03"
 309 0 l 257
NamedP: "ab02"
 41 0 l 257
 143 1493 l 257
NamedP: "hr00"
EndSplineSet
PickledDataWithLists: "(dp1
S'com.schriftgestaltung.Glyphs.lastChange'
p2
S'2017-07-11 17:15:08 +0000'
p3
s."
EndChar

StartChar: Wacute
Encoding: 137 7810 137
GlifName: W_acute
Width: 1233
VWidth: 0
Flags: W
LayerCount: 2
Fore
SplineSet
821 1859 m 257
NamedP: "hr00"
 1102 1859 l 257
 782 1595 l 257
 575 1595 l 257
NamedP: "iv01"
 821 1859 l 257
NamedP: "hr00"
143 1493 m 257
NamedP: "at01"
 397 1493 l 257
 289 397 l 257
NamedP: "iv02"
 561 1106 l 257
 799 1106 l 257
 811 397 l 257
NamedP: "iv03"
 1108 1493 l 257
NamedP: "at02"
 1370 1493 l 257
NamedP: "iv04"
 909 0 l 257
NamedP: "ab01"
 639 0 l 257
 627 784 l 257
NamedP: "iv05"
 309 0 l 257
NamedP: "ab02"
 41 0 l 257
 143 1493 l 257
NamedP: "at01"
EndSplineSet
PickledDataWithLists: "(dp1
S'com.schriftgestaltung.Glyphs.lastChange'
p2
S'2017-07-11 17:15:08 +0000'
p3
s."
EndChar

StartChar: Wcircumflex
Encoding: 138 372 138
GlifName: W_circumflex
Width: 1233
VWidth: 0
Flags: W
LayerCount: 2
Fore
SplineSet
669 1859 m 257
NamedP: "hr00"
 1017 1859 l 257
NamedP: "dv02"
 1168 1595 l 257
 999 1595 l 257
NamedP: "dv01"
 835 1756 l 257
 605 1595 l 257
NamedP: "sv01"
 425 1595 l 257
 669 1859 l 257
NamedP: "hr00"
143 1493 m 257
NamedP: "at01"
 397 1493 l 257
 289 397 l 257
NamedP: "iv01"
 561 1106 l 257
 799 1106 l 257
 811 397 l 257
NamedP: "iv02"
 1108 1493 l 257
NamedP: "at02"
 1370 1493 l 257
 909 0 l 257
NamedP: "ab01"
 639 0 l 257
 627 784 l 257
NamedP: "iv03"
 309 0 l 257
NamedP: "ab02"
 41 0 l 257
 143 1493 l 257
NamedP: "at01"
EndSplineSet
PickledDataWithLists: "(dp1
S'com.schriftgestaltung.Glyphs.lastChange'
p2
S'2017-07-11 17:15:08 +0000'
p3
s."
EndChar

StartChar: Wdieresis
Encoding: 139 7812 139
GlifName: W_dieresis
Width: 1233
VWidth: 0
Flags: W
LayerCount: 2
Fore
SplineSet
502 1596 m 258
NamedP: "hr00"
 482 1596 471 1609 475 1629 c 258
 511 1815 l 257
 514 1833 524 1842 543 1842 c 258
NamedP: "dv01"
 720 1842 l 258
 738 1842 747 1834 747 1818 c 256
 747 1814 747 1811 746 1809 c 258
 709 1623 l 258
 706 1605 695 1596 677 1596 c 258
 502 1596 l 258
NamedP: "hr00"
897 1596 m 258
NamedP: "sv01"
 877 1596 866 1609 870 1629 c 258
 906 1815 l 257
 909 1833 919 1842 938 1842 c 258
NamedP: "sv02"
 1116 1842 l 258
 1134 1842 1143 1834 1143 1818 c 256
 1143 1814 1143 1811 1142 1809 c 258
 1105 1623 l 258
 1102 1605 1091 1596 1073 1596 c 258
 897 1596 l 258
NamedP: "sv01"
143 1493 m 257
NamedP: "at01"
 397 1493 l 257
 289 397 l 257
NamedP: "iv01"
 561 1106 l 257
 799 1106 l 257
 811 397 l 257
NamedP: "iv02"
 1108 1493 l 257
NamedP: "at02"
 1370 1493 l 257
 909 0 l 257
NamedP: "ab01"
 639 0 l 257
 627 784 l 257
NamedP: "iv03"
 309 0 l 257
NamedP: "ab02"
 41 0 l 257
 143 1493 l 257
NamedP: "at01"
EndSplineSet
PickledDataWithLists: "(dp1
S'com.schriftgestaltung.Glyphs.lastChange'
p2
S'2017-07-11 17:15:08 +0000'
p3
s."
EndChar

StartChar: Wgrave
Encoding: 140 7808 140
GlifName: W_grave
Width: 1233
VWidth: 0
Flags: W
LayerCount: 2
Fore
SplineSet
479 1859 m 257
NamedP: "hr00"
 743 1859 l 257
NamedP: "dv02"
 886 1595 l 257
 708 1595 l 257
NamedP: "dv01"
 479 1859 l 257
NamedP: "hr00"
143 1493 m 257
NamedP: "at01"
 397 1493 l 257
 289 397 l 257
NamedP: "iv01"
 561 1106 l 257
 799 1106 l 257
 811 397 l 257
NamedP: "iv02"
 1108 1493 l 257
NamedP: "at02"
 1370 1493 l 257
 909 0 l 257
NamedP: "ab01"
 639 0 l 257
 627 784 l 257
NamedP: "iv03"
 309 0 l 257
NamedP: "ab02"
 41 0 l 257
 143 1493 l 257
NamedP: "at01"
EndSplineSet
PickledDataWithLists: "(dp1
S'com.schriftgestaltung.Glyphs.lastChange'
p2
S'2017-07-11 17:15:08 +0000'
p3
s."
EndChar

StartChar: X
Encoding: 141 88 141
GlifName: X_
Width: 1233
VWidth: 0
Flags: W
LayerCount: 2
Fore
SplineSet
471 782 m 257
NamedP: "hr00"
 184 1493 l 257
NamedP: "at01"
 475 1493 l 257
 662 1030 l 257
NamedP: "iv01"
 1022 1493 l 257
NamedP: "at02"
 1343 1493 l 257
 770 756 l 257
 1071 0 l 257
NamedP: "ab01"
 780 0 l 257
 580 512 l 257
NamedP: "iv02"
 180 0 l 257
NamedP: "ab02"
 -143 0 l 257
 471 782 l 257
NamedP: "hr00"
EndSplineSet
PickledDataWithLists: "(dp1
S'com.schriftgestaltung.Glyphs.lastChange'
p2
S'2017-07-11 17:15:08 +0000'
p3
s."
EndChar

StartChar: Xi
Encoding: 142 926 142
GlifName: X_i
Width: 1233
VWidth: 0
Flags: W
LayerCount: 2
Fore
SplineSet
283 1493 m 257
NamedP: "hr00"
 1242 1493 l 257
 1192 1233 l 257
NamedP: "sv01"
 233 1233 l 257
 283 1493 l 257
NamedP: "hr00"
412 924 m 257
 892 924 l 257
NamedP: "dv02"
 841 664 l 257
NamedP: "dv01"
 362 664 l 257
 412 924 l 257
43 260 m 257
NamedP: "sv02"
 1002 260 l 257
 952 0 l 257
NamedP: "ab01"
 -7 0 l 257
 43 260 l 257
NamedP: "sv02"
EndSplineSet
PickledDataWithLists: "(dp1
S'com.schriftgestaltung.Glyphs.lastChange'
p2
S'2017-07-11 17:15:08 +0000'
p3
s."
EndChar

StartChar: Y
Encoding: 143 89 143
GlifName: Y_
Width: 1233
VWidth: 0
Flags: W
LayerCount: 2
Fore
SplineSet
432 588 m 257
NamedP: "hr00"
 145 1493 l 257
NamedP: "at01"
 438 1493 l 257
 625 844 l 257
NamedP: "iv01"
 1036 1493 l 257
NamedP: "at02"
 1358 1493 l 257
 725 588 l 257
 610 0 l 257
NamedP: "ab01"
 317 0 l 257
 432 588 l 257
NamedP: "hr00"
EndSplineSet
PickledDataWithLists: "(dp1
S'com.schriftgestaltung.Glyphs.lastChange'
p2
S'2017-07-11 17:15:08 +0000'
p3
s."
EndChar

StartChar: Yacute
Encoding: 144 221 144
GlifName: Y_acute
Width: 1233
VWidth: 0
Flags: W
LayerCount: 2
Fore
SplineSet
868 1852 m 257
NamedP: "hr00"
 1149 1852 l 257
 829 1588 l 257
 622 1588 l 257
NamedP: "iv01"
 868 1852 l 257
NamedP: "hr00"
432 588 m 257
 145 1493 l 257
NamedP: "at01"
 438 1493 l 257
 625 844 l 257
NamedP: "iv02"
 1036 1493 l 257
NamedP: "at02"
 1358 1493 l 257
NamedP: "iv03"
 725 588 l 257
 610 0 l 257
NamedP: "ab01"
 317 0 l 257
 432 588 l 257
EndSplineSet
PickledDataWithLists: "(dp1
S'com.schriftgestaltung.Glyphs.lastChange'
p2
S'2017-07-11 17:15:08 +0000'
p3
s."
EndChar

StartChar: Ycircumflex
Encoding: 145 374 145
GlifName: Y_circumflex
Width: 1233
VWidth: 0
Flags: W
LayerCount: 2
Fore
SplineSet
656 1859 m 257
NamedP: "hr00"
 1004 1859 l 257
NamedP: "dv02"
 1155 1595 l 257
 986 1595 l 257
NamedP: "dv01"
 822 1756 l 257
 592 1595 l 257
NamedP: "sv01"
 412 1595 l 257
 656 1859 l 257
NamedP: "hr00"
432 588 m 257
 145 1493 l 257
NamedP: "at01"
 438 1493 l 257
 625 844 l 257
NamedP: "iv01"
 1036 1493 l 257
NamedP: "at02"
 1358 1493 l 257
 725 588 l 257
 610 0 l 257
NamedP: "ab01"
 317 0 l 257
 432 588 l 257
EndSplineSet
PickledDataWithLists: "(dp1
S'com.schriftgestaltung.Glyphs.lastChange'
p2
S'2017-07-11 17:15:08 +0000'
p3
s."
EndChar

StartChar: Ydieresis
Encoding: 146 376 146
GlifName: Y_dieresis
Width: 1233
VWidth: 0
Flags: W
LayerCount: 2
Fore
SplineSet
489 1607 m 258
NamedP: "hr00"
 471 1607 462 1615 462 1631 c 256
 462 1635 462 1638 463 1640 c 258
 501 1826 l 258
 505 1844 516 1853 533 1853 c 258
NamedP: "dv01"
 708 1853 l 258
 726 1853 735 1845 735 1829 c 256
 735 1825 735 1822 734 1820 c 258
 697 1634 l 258
 694 1616 683 1607 665 1607 c 258
 489 1607 l 258
NamedP: "hr00"
885 1607 m 258
NamedP: "sv01"
 867 1607 858 1615 858 1631 c 256
 858 1635 858 1638 859 1640 c 258
 896 1826 l 257
 899 1844 909 1853 928 1853 c 258
NamedP: "sv02"
 1103 1853 l 258
 1123 1853 1134 1840 1130 1820 c 258
 1094 1634 l 258
 1091 1616 1080 1607 1062 1607 c 258
 885 1607 l 258
NamedP: "sv01"
432 588 m 257
 145 1493 l 257
NamedP: "at01"
 438 1493 l 257
 625 844 l 257
NamedP: "iv01"
 1036 1493 l 257
NamedP: "at02"
 1358 1493 l 257
 725 588 l 257
 610 0 l 257
NamedP: "ab01"
 317 0 l 257
 432 588 l 257
EndSplineSet
PickledDataWithLists: "(dp1
S'com.schriftgestaltung.Glyphs.lastChange'
p2
S'2017-07-11 17:15:08 +0000'
p3
s."
EndChar

StartChar: Ygrave
Encoding: 147 7922 147
GlifName: Y_grave
Width: 1233
VWidth: 0
Flags: W
LayerCount: 2
Fore
SplineSet
469 1859 m 257
NamedP: "hr00"
 733 1859 l 257
NamedP: "dv02"
 876 1595 l 257
 698 1595 l 257
NamedP: "dv01"
 469 1859 l 257
NamedP: "hr00"
432 588 m 257
 145 1493 l 257
NamedP: "at01"
 438 1493 l 257
 625 844 l 257
NamedP: "iv01"
 1036 1493 l 257
NamedP: "at02"
 1358 1493 l 257
 725 588 l 257
 610 0 l 257
NamedP: "ab01"
 317 0 l 257
 432 588 l 257
EndSplineSet
PickledDataWithLists: "(dp1
S'com.schriftgestaltung.Glyphs.lastChange'
p2
S'2017-07-11 17:15:08 +0000'
p3
s."
EndChar

StartChar: Z
Encoding: 148 90 148
GlifName: Z_
Width: 1233
VWidth: 0
Flags: W
LayerCount: 2
Fore
SplineSet
4 244 m 257
NamedP: "hr00"
 862 1233 l 257
NamedP: "sv01"
 219 1233 l 257
 271 1493 l 257
NamedP: "at01"
 1280 1493 l 257
 1231 1249 l 257
 355 260 l 257
NamedP: "sv02"
 1055 260 l 257
 1004 0 l 257
NamedP: "ab01"
 -43 0 l 257
 4 244 l 257
NamedP: "hr00"
EndSplineSet
PickledDataWithLists: "(dp1
S'com.schriftgestaltung.Glyphs.lastChange'
p2
S'2017-07-11 17:15:08 +0000'
p3
s."
EndChar

StartChar: Zacute
Encoding: 149 377 149
GlifName: Z_acute
Width: 1233
VWidth: 0
Flags: W
LayerCount: 2
Fore
SplineSet
867 1853 m 257
NamedP: "hr00"
 1148 1853 l 257
 828 1589 l 257
 621 1589 l 257
NamedP: "iv01"
 867 1853 l 257
NamedP: "hr00"
4 244 m 257
 862 1233 l 257
NamedP: "sv01"
 219 1233 l 257
 271 1493 l 257
NamedP: "at01"
 1280 1493 l 257
 1231 1249 l 257
 355 260 l 257
NamedP: "sv02"
 1055 260 l 257
 1004 0 l 257
NamedP: "ab01"
 -43 0 l 257
 4 244 l 257
EndSplineSet
PickledDataWithLists: "(dp1
S'com.schriftgestaltung.Glyphs.lastChange'
p2
S'2017-07-11 17:15:08 +0000'
p3
s."
EndChar

StartChar: Zcaron
Encoding: 150 381 150
GlifName: Z_caron
Width: 1233
VWidth: 0
Flags: W
LayerCount: 2
Fore
SplineSet
477 1852 m 257
NamedP: "hr00"
 647 1852 l 257
 796 1690 l 257
 1025 1852 l 257
NamedP: "dv02"
 1206 1852 l 257
 962 1588 l 257
NamedP: "dv01"
 614 1588 l 257
 477 1852 l 257
NamedP: "hr00"
4 244 m 257
 862 1233 l 257
NamedP: "sv01"
 219 1233 l 257
 271 1493 l 257
NamedP: "at01"
 1280 1493 l 257
 1231 1249 l 257
 355 260 l 257
NamedP: "sv02"
 1055 260 l 257
 1004 0 l 257
NamedP: "ab01"
 -43 0 l 257
 4 244 l 257
EndSplineSet
PickledDataWithLists: "(dp1
S'com.schriftgestaltung.Glyphs.lastChange'
p2
S'2017-07-11 17:15:08 +0000'
p3
s."
EndChar

StartChar: Zdotaccent
Encoding: 151 379 151
GlifName: Z_dotaccent
Width: 1233
VWidth: 0
Flags: W
LayerCount: 2
Fore
SplineSet
698 1606 m 258
NamedP: "hr00"
 677 1606 667 1619 671 1639 c 258
 708 1825 l 257
 711 1843 721 1852 740 1852 c 258
NamedP: "dv01"
 955 1852 l 258
 976 1852 986 1839 982 1819 c 258
 945 1633 l 258
 942 1615 931 1606 913 1606 c 258
 698 1606 l 258
NamedP: "hr00"
4 244 m 257
 862 1233 l 257
NamedP: "sv01"
 219 1233 l 257
 271 1493 l 257
NamedP: "at01"
 1280 1493 l 257
 1231 1249 l 257
 355 260 l 257
NamedP: "sv02"
 1055 260 l 257
 1004 0 l 257
NamedP: "ab01"
 -43 0 l 257
 4 244 l 257
EndSplineSet
PickledDataWithLists: "(dp1
S'com.schriftgestaltung.Glyphs.lastChange'
p2
S'2017-07-11 17:15:08 +0000'
p3
s."
EndChar

StartChar: Zeta
Encoding: 152 918 152
GlifName: Z_eta
Width: 1233
VWidth: 0
Flags: W
LayerCount: 2
Fore
SplineSet
14 244 m 257
NamedP: "hr00"
 872 1233 l 257
NamedP: "sv01"
 229 1233 l 257
 281 1493 l 257
NamedP: "at01"
 1290 1493 l 257
 1241 1249 l 257
 365 260 l 257
NamedP: "sv02"
 1065 260 l 257
 1014 0 l 257
NamedP: "ab01"
 -33 0 l 257
 14 244 l 257
NamedP: "hr00"
EndSplineSet
PickledDataWithLists: "(dp1
S'com.schriftgestaltung.Glyphs.lastChange'
p2
S'2017-07-11 17:15:08 +0000'
p3
s."
EndChar

StartChar: a
Encoding: 154 97 154
GlifName: a
Width: 1233
VWidth: 0
Flags: W
LayerCount: 2
Fore
SplineSet
379 -29 m 256
NamedP: "dv01"
 279 -29 195 -2 135 58 c 256
 72 119 47 204 47 300 c 256
NamedP: "dh01"
 47 436 99 548 203 624 c 256
 306 699 456 737 651 737 c 258
 844 737 l 257
NamedP: "dv04"
 852 786 l 258
 853 793 854 797 854 798 c 257
 854 815 l 258
 854 891 784 932 657 932 c 256
NamedP: "sv01"
 600 932 538 923 470 904 c 256
NamedP: "hr01"
 403 885 335 859 248 819 c 257
NamedP: "ih01"
 295 1069 l 257
 372 1096 443 1115 509 1128 c 256
 577 1141 637 1147 705 1147 c 256
NamedP: "at01"
 844 1147 953 1122 1029 1071 c 256
 1109 1018 1141 942 1141 845 c 256
 1141 821 1139 793 1134 756 c 256
 1129 717 1125 691 1114 639 c 257
 991 0 l 257
NamedP: "ab01"
 729 0 l 257
 725 125 l 257
NamedP: "iv01"
 678 72 627 34 572 10 c 256
NamedP: "ab02"
 513 -17 447 -29 379 -29 c 256
NamedP: "dv01"
501 172 m 256
NamedP: "dv02"
 573 172 641 202 694 265 c 256
 745 324 784 411 803 530 c 257
NamedP: "dv03"
 690 530 l 258
 575 530 490 513 435 478 c 256
 379 443 352 389 352 321 c 256
NamedP: "dh02"
 352 230 410 172 501 172 c 256
NamedP: "dv02"
EndSplineSet
PickledDataWithLists: "(dp1
S'com.schriftgestaltung.Glyphs.lastChange'
p2
S'2017-07-11 17:15:08 +0000'
p3
s."
Substitution2: "Single Substitution lookup 14 subtable" ordfeminine
Substitution2: "Single Substitution lookup 11 subtable" ordfeminine
EndChar

StartChar: aacute
Encoding: 155 225 155
GlifName: aacute
Width: 1233
VWidth: 0
Flags: W
LayerCount: 2
Fore
SplineSet
918 1673 m 257
NamedP: "av01"
 1239 1673 l 257
 797 1297 l 257
 600 1297 l 257
NamedP: "iv01"
 918 1673 l 257
NamedP: "av01"
379 -29 m 256
NamedP: "dv01"
 279 -29 195 -2 135 58 c 256
 72 119 47 204 47 300 c 256
NamedP: "dh01"
 47 436 99 548 203 624 c 256
 306 699 456 737 651 737 c 258
 844 737 l 257
NamedP: "dv04"
 852 786 l 258
 853 793 854 797 854 798 c 257
NamedP: "hr01"
 854 815 l 258
 854 891 784 932 657 932 c 256
NamedP: "sv01"
 600 932 538 923 470 904 c 256
 403 885 335 859 248 819 c 257
NamedP: "ih01"
 295 1069 l 257
 372 1096 443 1115 509 1128 c 256
 577 1141 637 1147 705 1147 c 256
NamedP: "at01"
 844 1147 953 1122 1029 1071 c 256
 1109 1018 1141 942 1141 845 c 256
 1141 821 1139 793 1134 756 c 256
 1129 717 1125 691 1114 639 c 257
 991 0 l 257
NamedP: "ab01"
 729 0 l 257
 725 125 l 257
NamedP: "iv02"
 678 72 627 34 572 10 c 256
NamedP: "ab02"
 513 -17 447 -29 379 -29 c 256
NamedP: "dv01"
501 172 m 256
NamedP: "dv02"
 573 172 641 202 694 265 c 256
 745 324 784 411 803 530 c 257
NamedP: "dv03"
 690 530 l 258
 575 530 490 513 435 478 c 256
NamedP: "hr02"
 379 443 352 389 352 321 c 256
NamedP: "dh02"
 352 230 410 172 501 172 c 256
NamedP: "dv02"
EndSplineSet
PickledDataWithLists: "(dp1
S'com.schriftgestaltung.Glyphs.lastChange'
p2
S'2017-07-11 17:15:08 +0000'
p3
s."
EndChar

StartChar: abreve
Encoding: 156 259 156
GlifName: abreve
Width: 1233
VWidth: 0
Flags: W
LayerCount: 2
Fore
SplineSet
736 1297 m 256
NamedP: "dv01"
 545 1297 446 1382 446 1561 c 258
 446 1594 l 257
NamedP: "dh02"
 590 1594 l 257
NamedP: "sv01"
 590 1581 l 258
NamedP: "dh03"
 590 1500 652 1448 756 1448 c 256
NamedP: "dv02"
 861 1448 944 1502 977 1594 c 257
NamedP: "sv02"
 1120 1594 l 257
NamedP: "hr01"
 1081 1409 952 1297 736 1297 c 256
NamedP: "dv01"
381 -29 m 256
NamedP: "sv04"
 174 -29 47 90 47 302 c 256
NamedP: "dh01"
 47 578 260 737 651 737 c 258
 844 737 l 257
NamedP: "dv03"
 852 786 l 258
 853 794 854 800 854 811 c 256
NamedP: "dh04"
 854 891 785 932 661 932 c 256
NamedP: "sv05"
 544 932 411 896 248 819 c 257
NamedP: "ih01"
 295 1069 l 257
 463 1125 583 1147 709 1147 c 256
NamedP: "at01"
 988 1147 1141 1045 1141 845 c 256
NamedP: "dh05"
 1141 792 1130 722 1114 639 c 258
 991 0 l 257
NamedP: "hr02"
 729 0 l 257
 725 125 l 257
NamedP: "ih02"
 636 21 517 -29 381 -29 c 256
NamedP: "sv04"
504 172 m 256
NamedP: "sv03"
 649 172 766 303 803 530 c 257
NamedP: "hr03"
 690 530 l 258
 466 530 352 462 352 325 c 256
NamedP: "hr04"
 352 229 408 172 504 172 c 256
NamedP: "sv03"
EndSplineSet
PickledDataWithLists: "(dp1
S'com.schriftgestaltung.Glyphs.lastChange'
p2
S'2017-07-11 17:15:08 +0000'
p3
s."
EndChar

StartChar: acircumflex
Encoding: 157 226 157
GlifName: acircumflex
Width: 1233
VWidth: 0
Flags: W
LayerCount: 2
Fore
SplineSet
699 1673 m 257
NamedP: "av01"
 942 1673 l 257
 1125 1297 l 257
NamedP: "iv01"
 949 1297 l 257
 797 1522 l 257
 557 1297 l 257
 367 1297 l 257
NamedP: "iv02"
 699 1673 l 257
NamedP: "av01"
379 -29 m 256
NamedP: "dv01"
 279 -29 195 -2 135 58 c 256
 72 119 47 204 47 300 c 256
NamedP: "dh01"
 47 436 99 548 203 624 c 256
 306 699 456 737 651 737 c 258
NamedP: "hr01"
 844 737 l 257
NamedP: "dv04"
 852 786 l 258
 853 793 854 797 854 798 c 257
 854 815 l 258
 854 891 784 932 657 932 c 256
NamedP: "sv01"
 600 932 538 923 470 904 c 256
 403 885 335 859 248 819 c 257
NamedP: "ih01"
 295 1069 l 257
 372 1096 443 1115 509 1128 c 256
 577 1141 637 1147 705 1147 c 256
NamedP: "at01"
 844 1147 953 1122 1029 1071 c 256
 1109 1018 1141 942 1141 845 c 256
 1141 821 1139 793 1134 756 c 256
 1129 717 1125 691 1114 639 c 257
 991 0 l 257
NamedP: "ab01"
 729 0 l 257
 725 125 l 257
NamedP: "iv03"
 678 72 627 34 572 10 c 256
NamedP: "ab02"
 513 -17 447 -29 379 -29 c 256
NamedP: "dv01"
501 172 m 256
NamedP: "dv02"
 573 172 641 202 694 265 c 256
NamedP: "hr02"
 745 324 784 411 803 530 c 257
NamedP: "dv03"
 690 530 l 258
 575 530 490 513 435 478 c 256
 379 443 352 389 352 321 c 256
NamedP: "dh02"
 352 230 410 172 501 172 c 256
NamedP: "dv02"
EndSplineSet
PickledDataWithLists: "(dp1
S'com.schriftgestaltung.Glyphs.lastChange'
p2
S'2017-07-11 17:15:08 +0000'
p3
s."
EndChar

StartChar: acute
Encoding: 158 180 158
GlifName: acute
Width: 1233
VWidth: 0
Flags: W
LayerCount: 2
Fore
SplineSet
887 1638 m 257
NamedP: "hr00"
 1208 1638 l 257
 766 1262 l 257
NamedP: "av01"
 569 1262 l 257
 887 1638 l 257
NamedP: "hr00"
EndSplineSet
PickledDataWithLists: "(dp1
S'com.schriftgestaltung.Glyphs.lastChange'
p2
S'2017-07-11 17:15:08 +0000'
p3
s."
EndChar

StartChar: acutecomb
Encoding: 159 769 159
GlifName: acutecomb
Width: 0
VWidth: 0
Flags: W
LayerCount: 2
Fore
SplineSet
-346 1638 m 257
NamedP: "hr00"
 -25 1638 l 257
 -467 1262 l 257
NamedP: "av01"
 -664 1262 l 257
 -346 1638 l 257
NamedP: "hr00"
EndSplineSet
PickledDataWithLists: "(dp1
S'com.schriftgestaltung.Glyphs.lastChange'
p2
S'2017-07-11 17:15:08 +0000'
p3
s."
EndChar

StartChar: adieresis
Encoding: 160 228 160
GlifName: adieresis
Width: 1233
VWidth: 0
Flags: W
LayerCount: 2
Fore
SplineSet
480 1347 m 258
NamedP: "dv03"
 460 1347 449 1360 453 1380 c 258
 489 1566 l 257
 492 1584 502 1593 521 1593 c 258
NamedP: "dv04"
 698 1593 l 258
 716 1593 725 1585 725 1569 c 256
 725 1565 725 1562 724 1560 c 258
 687 1374 l 258
 684 1356 673 1347 655 1347 c 258
 480 1347 l 258
NamedP: "dv03"
875 1347 m 258
NamedP: "sv01"
 855 1347 844 1360 848 1380 c 258
 884 1566 l 257
NamedP: "hr01"
 887 1584 897 1593 916 1593 c 258
NamedP: "sv02"
 1094 1593 l 258
 1112 1593 1121 1585 1121 1569 c 256
 1121 1565 1121 1562 1120 1560 c 258
 1083 1374 l 258
 1080 1356 1069 1347 1051 1347 c 258
 875 1347 l 258
NamedP: "sv01"
379 -29 m 256
NamedP: "dv01"
 279 -29 195 -2 135 58 c 256
 72 119 47 204 47 300 c 256
NamedP: "dh01"
 47 436 99 548 203 624 c 256
 306 699 456 737 651 737 c 258
 844 737 l 257
NamedP: "dv06"
 852 786 l 258
 853 793 854 797 854 798 c 257
 854 815 l 258
 854 891 784 932 657 932 c 256
NamedP: "sv03"
 600 932 538 923 470 904 c 256
 403 885 335 859 248 819 c 257
NamedP: "ih01"
 295 1069 l 257
 372 1096 443 1115 509 1128 c 256
NamedP: "hr02"
 577 1141 637 1147 705 1147 c 256
NamedP: "at01"
 844 1147 953 1122 1029 1071 c 256
 1109 1018 1141 942 1141 845 c 256
 1141 821 1139 793 1134 756 c 256
 1129 717 1125 691 1114 639 c 257
 991 0 l 257
NamedP: "ab01"
 729 0 l 257
 725 125 l 257
NamedP: "iv01"
 678 72 627 34 572 10 c 256
NamedP: "ab02"
 513 -17 447 -29 379 -29 c 256
NamedP: "dv01"
501 172 m 256
NamedP: "dv02"
 573 172 641 202 694 265 c 256
 745 324 784 411 803 530 c 257
NamedP: "dv05"
 690 530 l 258
 575 530 490 513 435 478 c 256
 379 443 352 389 352 321 c 256
NamedP: "dh02"
 352 230 410 172 501 172 c 256
NamedP: "dv02"
EndSplineSet
PickledDataWithLists: "(dp1
S'com.schriftgestaltung.Glyphs.lastChange'
p2
S'2017-07-11 17:15:08 +0000'
p3
s."
EndChar

StartChar: ae
Encoding: 161 230 161
GlifName: ae
Width: 1233
VWidth: 0
Flags: W
LayerCount: 2
Fore
SplineSet
246 -29 m 256
NamedP: "hr00"
 161 -29 94 -3 44 50 c 256
 -7 103 -31 171 -31 267 c 256
NamedP: "dh01"
 -31 390 10 493 91 573 c 256
 172 651 280 690 416 690 c 258
 524 690 l 257
NamedP: "dv03"
 535 748 l 258
 539 771 539 773 540 778 c 256
 541 785 541 797 541 800 c 256
 541 848 530 879 507 900 c 256
 484 921 451 932 409 932 c 256
NamedP: "sv01"
 373 932 332 924 287 907 c 256
 238 888 188 864 131 831 c 257
NamedP: "ih01"
 178 1069 l 257
 231 1096 281 1115 330 1128 c 256
 378 1141 426 1147 469 1147 c 256
NamedP: "at01"
 525 1147 572 1135 611 1112 c 256
 651 1088 677 1057 694 1014 c 257
NamedP: "iv01"
 729 1057 770 1090 816 1113 c 256
 861 1136 913 1147 970 1147 c 256
NamedP: "at02"
 1054 1147 1118 1124 1163 1077 c 256
 1208 1030 1231 962 1231 873 c 256
 1231 841 1228 806 1223 761 c 256
 1214 684 1201 625 1198 606 c 258
 1176 477 l 257
 725 477 l 257
NamedP: "dv02"
 721 452 715 413 714 402 c 256
 712 384 711 369 711 357 c 256
 711 301 727 256 754 227 c 256
 782 196 820 180 867 180 c 256
NamedP: "sv02"
 903 180 944 190 991 209 c 256
 1032 226 1080 253 1124 289 c 257
 1077 51 l 257
 1039 24 997 4 952 -9 c 256
 907 -22 855 -29 806 -29 c 256
NamedP: "sv03"
 737 -29 689 -15 642 14 c 256
 597 43 564 84 543 135 c 257
NamedP: "iv02"
 502 80 457 39 409 12 c 256
 357 -17 306 -29 246 -29 c 256
NamedP: "hr00"
991 688 m 257
NamedP: "sv04"
 1003 755 l 257
 1006 766 1008 777 1009 789 c 256
 1010 800 1010 815 1010 834 c 256
 1010 867 1003 892 990 909 c 256
 977 924 955 932 926 932 c 256
NamedP: "sv05"
 888 932 858 918 835 890 c 256
 810 859 791 811 780 760 c 258
 766 688 l 257
 991 688 l 257
NamedP: "sv04"
296 180 m 256
NamedP: "dv01"
 384 180 435 245 463 401 c 258
 477 479 l 257
NamedP: "sv06"
 403 479 l 258
 338 479 286 462 247 428 c 256
 207 393 188 344 188 293 c 256
NamedP: "dh02"
 188 256 198 230 217 210 c 256
 236 190 262 180 296 180 c 256
NamedP: "dv01"
EndSplineSet
PickledDataWithLists: "(dp1
S'com.schriftgestaltung.Glyphs.lastChange'
p2
S'2017-07-11 17:15:08 +0000'
p3
s."
EndChar

StartChar: agrave
Encoding: 162 224 162
GlifName: agrave
Width: 1233
VWidth: 0
Flags: W
LayerCount: 2
Fore
SplineSet
402 1673 m 257
NamedP: "av01"
 686 1673 l 257
 895 1297 l 257
NamedP: "iv01"
 697 1297 l 257
 402 1673 l 257
NamedP: "av01"
379 -29 m 256
NamedP: "dv01"
 279 -29 195 -2 135 58 c 256
 72 119 47 204 47 300 c 256
NamedP: "dh01"
 47 436 99 548 203 624 c 256
 306 699 456 737 651 737 c 258
 844 737 l 257
NamedP: "dv04"
 852 786 l 258
 853 793 854 797 854 798 c 257
NamedP: "hr01"
 854 815 l 258
 854 891 784 932 657 932 c 256
NamedP: "sv01"
 600 932 538 923 470 904 c 256
 403 885 335 859 248 819 c 257
NamedP: "ih01"
 295 1069 l 257
 372 1096 443 1115 509 1128 c 256
 577 1141 637 1147 705 1147 c 256
NamedP: "at01"
 844 1147 953 1122 1029 1071 c 256
 1109 1018 1141 942 1141 845 c 256
 1141 821 1139 793 1134 756 c 256
 1129 717 1125 691 1114 639 c 257
 991 0 l 257
NamedP: "ab01"
 729 0 l 257
 725 125 l 257
NamedP: "iv02"
 678 72 627 34 572 10 c 256
NamedP: "ab02"
 513 -17 447 -29 379 -29 c 256
NamedP: "dv01"
501 172 m 256
NamedP: "dv02"
 573 172 641 202 694 265 c 256
 745 324 784 411 803 530 c 257
NamedP: "dv03"
 690 530 l 258
 575 530 490 513 435 478 c 256
NamedP: "hr02"
 379 443 352 389 352 321 c 256
NamedP: "dh02"
 352 230 410 172 501 172 c 256
NamedP: "dv02"
EndSplineSet
PickledDataWithLists: "(dp1
S'com.schriftgestaltung.Glyphs.lastChange'
p2
S'2017-07-11 17:15:08 +0000'
p3
s."
EndChar

StartChar: alpha
Encoding: 163 945 163
GlifName: alpha
Width: 1233
VWidth: 0
Flags: W
LayerCount: 2
Fore
SplineSet
953 0 m 258
NamedP: "ab02"
 846 0 772 28 729 84 c 256
 719 98 713 108 712 113 c 257
NamedP: "iv01"
 664 65 645 45 602 18 c 256
 542 -18 483 -27 411 -27 c 256
NamedP: "ab01"
 261 -27 143 14 82 123 c 256
 49 183 35 259 35 367 c 256
NamedP: "dh01"
 35 614 110 842 254 984 c 256
 375 1102 518 1146 644 1146 c 256
NamedP: "at02"
 773 1146 872 1100 921 1012 c 257
NamedP: "iv02"
 978 1120 l 257
NamedP: "at01"
 1260 1120 l 257
NamedP: "iv03"
 955 543 l 257
 952 390 l 258
NamedP: "hr01"
 950 280 972 225 1017 225 c 258
NamedP: "sv01"
 1099 225 l 257
 1055 0 l 257
NamedP: "hr02"
 953 0 l 258
NamedP: "ab02"
701 589 m 257
 702 752 l 258
 703 859 659 905 594 905 c 256
NamedP: "sv02"
 542 905 482 876 431 813 c 256
 351 714 308 549 308 421 c 256
NamedP: "dh02"
 308 361 317 326 330 299 c 256
 355 247 400 220 443 220 c 256
NamedP: "sv03"
 482 220 520 242 543 285 c 258
NamedP: "hr03"
 701 589 l 257
EndSplineSet
PickledDataWithLists: "(dp1
S'com.schriftgestaltung.Glyphs.lastChange'
p2
S'2017-07-11 17:15:08 +0000'
p3
s."
EndChar

StartChar: alphatonos
Encoding: 164 940 164
GlifName: alphatonos
Width: 1233
VWidth: 0
Flags: W
LayerCount: 2
Fore
SplineSet
887 1673 m 257
NamedP: "av01"
 1208 1673 l 257
 766 1297 l 257
 569 1297 l 257
NamedP: "iv01"
 887 1673 l 257
NamedP: "av01"
953 0 m 258
NamedP: "ab02"
 846 0 772 28 729 84 c 256
 719 98 713 108 712 113 c 257
NamedP: "iv02"
 664 65 645 45 602 18 c 256
 542 -18 483 -27 411 -27 c 256
NamedP: "ab01"
 261 -27 143 14 82 123 c 256
 49 183 35 259 35 367 c 256
NamedP: "dh01"
 35 614 110 842 254 984 c 256
 375 1102 518 1146 644 1146 c 256
NamedP: "at02"
 773 1146 872 1100 921 1012 c 257
NamedP: "hr01"
 978 1120 l 257
NamedP: "at01"
 1260 1120 l 257
NamedP: "iv03"
 955 543 l 257
NamedP: "hr02"
 952 390 l 258
 950 280 972 225 1017 225 c 258
NamedP: "sv01"
 1099 225 l 257
 1055 0 l 257
 953 0 l 258
NamedP: "ab02"
701 589 m 257
 702 752 l 258
 703 859 659 905 594 905 c 256
NamedP: "sv02"
 542 905 482 876 431 813 c 256
NamedP: "hr03"
 351 714 308 549 308 421 c 256
NamedP: "dh02"
 308 361 317 326 330 299 c 256
 355 247 400 220 443 220 c 256
NamedP: "sv03"
 482 220 520 242 543 285 c 258
 701 589 l 257
EndSplineSet
PickledDataWithLists: "(dp1
S'com.schriftgestaltung.Glyphs.lastChange'
p2
S'2017-07-11 17:15:08 +0000'
p3
s."
EndChar

StartChar: amacron
Encoding: 165 257 165
GlifName: amacron
Width: 1233
VWidth: 0
Flags: W
LayerCount: 2
Fore
SplineSet
459 1535 m 257
NamedP: "hr00"
 1090 1535 l 257
NamedP: "dv02"
 1053 1347 l 257
NamedP: "dv01"
 422 1347 l 257
 459 1535 l 257
NamedP: "hr00"
381 -29 m 256
NamedP: "sv02"
 174 -29 47 90 47 302 c 256
NamedP: "sh01"
 47 578 260 737 651 737 c 258
 844 737 l 257
NamedP: "hr01"
 852 786 l 258
 853 794 854 800 854 811 c 256
NamedP: "ah01"
 854 891 785 932 661 932 c 256
NamedP: "sv03"
 544 932 411 896 248 819 c 257
NamedP: "ih01"
 295 1069 l 257
 463 1125 583 1147 709 1147 c 256
NamedP: "at01"
 988 1147 1141 1045 1141 845 c 256
NamedP: "sh03"
 1141 792 1130 722 1114 639 c 258
 991 0 l 257
NamedP: "ab01"
 739 0 l 257
 725 125 l 257
NamedP: "ih02"
 636 21 517 -29 381 -29 c 256
NamedP: "sv02"
504 172 m 256
NamedP: "sv01"
 649 172 766 303 803 530 c 257
NamedP: "hr02"
 690 530 l 258
 466 530 352 462 352 325 c 256
NamedP: "sh02"
 352 229 408 172 504 172 c 256
NamedP: "sv01"
EndSplineSet
PickledDataWithLists: "(dp1
S'com.schriftgestaltung.Glyphs.lastChange'
p2
S'2017-07-11 17:15:08 +0000'
p3
s."
EndChar

StartChar: ampersand
Encoding: 166 38 166
GlifName: ampersand
Width: 1233
VWidth: 0
Flags: W
LayerCount: 2
Fore
SplineSet
387 -29 m 256
NamedP: "dv01"
 264 -29 157 5 80 77 c 256
 1 150 -33 251 -33 362 c 256
NamedP: "sh01"
 -33 469 0 571 66 666 c 256
 134 763 225 842 350 913 c 257
 331 954 321 985 312 1021 c 256
NamedP: "sh02"
 304 1053 299 1079 299 1118 c 256
NamedP: "ah01"
 299 1235 343 1338 432 1411 c 256
 520 1483 645 1520 794 1520 c 256
NamedP: "at01"
 843 1520 888 1516 933 1509 c 256
NamedP: "at02"
 977 1502 1018 1492 1065 1477 c 257
 1016 1221 l 257
NamedP: "hr01"
 980 1244 941 1262 898 1275 c 256
 855 1288 812 1294 769 1294 c 256
NamedP: "sv01"
 705 1294 662 1282 633 1259 c 256
 602 1235 586 1201 586 1158 c 256
NamedP: "sh03"
 586 1134 592 1103 605 1065 c 256
 620 1018 636 981 664 920 c 258
 885 440 l 257
NamedP: "iv01"
 913 479 935 524 951 575 c 256
 966 625 976 682 979 745 c 257
 1214 745 l 257
 1207 641 1184 547 1143 463 c 256
 1103 380 1047 307 975 246 c 257
 1090 0 l 257
NamedP: "ab01"
 774 0 l 257
 739 72 l 257
 682 39 624 13 564 -4 c 256
NamedP: "ab02"
 505 -21 446 -29 387 -29 c 256
NamedP: "dv01"
473 207 m 256
NamedP: "dv02"
 501 207 531 212 562 221 c 256
 593 230 622 243 653 262 c 257
 436 731 l 257
 375 696 330 654 299 605 c 256
NamedP: "sh04"
 267 554 252 496 252 440 c 256
NamedP: "sh05"
 252 307 349 207 473 207 c 256
NamedP: "dv02"
EndSplineSet
PickledDataWithLists: "(dp1
S'com.schriftgestaltung.Glyphs.lastChange'
p2
S'2017-07-11 17:15:08 +0000'
p3
s."
EndChar

StartChar: angle
Encoding: 167 8736 167
GlifName: angle
Width: 1233
VWidth: 0
Flags: W
LayerCount: 2
Fore
SplineSet
887 1306 m 257
NamedP: "hr00"
 1125 1306 l 257
 505 488 l 257
 1145 488 l 257
NamedP: "dv02"
 1145 250 l 257
NamedP: "dv01"
 88 250 l 257
 887 1306 l 257
NamedP: "hr00"
EndSplineSet
PickledDataWithLists: "(dp1
S'com.schriftgestaltung.Glyphs.lastChange'
p2
S'2017-07-11 17:15:08 +0000'
p3
s."
EndChar

StartChar: aogonek
Encoding: 168 261 168
GlifName: aogonek
Width: 1233
VWidth: 0
Flags: W
LayerCount: 2
Fore
SplineSet
709 1147 m 256
NamedP: "at01"
 988 1147 1141 1045 1141 845 c 256
NamedP: "dh06"
 1141 792 1130 722 1114 639 c 258
 991 0 l 257
NamedP: "ab01"
 841 0 l 257
 791 -53 758 -92 742 -117 c 256
 726 -142 718 -162 718 -182 c 256
NamedP: "dh04"
 718 -221 749 -254 818 -254 c 256
NamedP: "dv02"
 854 -254 911 -246 974 -223 c 257
NamedP: "ih01"
 943 -379 l 257
 878 -394 815 -401 764 -401 c 256
NamedP: "dv01"
 627 -401 544 -350 544 -255 c 256
NamedP: "dh03"
 544 -183 592 -95 700 0 c 257
NamedP: "ab02"
 725 125 l 257
NamedP: "sh01"
 636 21 517 -29 381 -29 c 256
NamedP: "dv03"
 174 -29 47 90 47 302 c 256
NamedP: "dh01"
 47 578 260 737 651 737 c 258
NamedP: "hr01"
 844 737 l 257
NamedP: "dv06"
 852 786 l 258
 853 794 854 800 854 811 c 256
NamedP: "dh05"
 854 891 785 932 661 932 c 256
NamedP: "sv01"
 544 932 411 896 248 819 c 257
NamedP: "ih02"
 295 1069 l 257
 463 1125 583 1147 709 1147 c 256
NamedP: "at01"
504 172 m 256
NamedP: "dv04"
 649 172 766 303 803 530 c 257
NamedP: "dv05"
 690 530 l 258
 466 530 352 462 352 325 c 256
NamedP: "dh02"
 352 229 408 172 504 172 c 256
NamedP: "dv04"
EndSplineSet
PickledDataWithLists: "(dp1
S'com.schriftgestaltung.Glyphs.lastChange'
p2
S'2017-07-11 17:15:08 +0000'
p3
s."
EndChar

StartChar: approxequal
Encoding: 169 8776 169
GlifName: approxequal
Width: 1233
VWidth: 0
Flags: W
LayerCount: 2
Fore
SplineSet
850 672 m 256
NamedP: "dv04"
 770 672 714 694 645 723 c 257
 614 734 615 737 612 737 c 257
 561 760 519 775 484 783 c 256
 449 791 414 795 381 795 c 256
NamedP: "sv01"
 330 795 281 785 233 766 c 256
 194 750 143 721 88 674 c 257
NamedP: "iv01"
 88 903 l 257
 141 944 194 974 239 991 c 256
 287 1010 343 1018 392 1018 c 256
NamedP: "hr01"
 461 1018 533 1000 621 963 c 257
 622 963 l 257
 652 949 l 258
 730 913 801 895 864 895 c 256
NamedP: "dv05"
 959 895 1046 933 1145 1020 c 257
NamedP: "av01"
 1145 786 l 257
 1095 747 1046 719 999 700 c 256
 955 683 907 672 850 672 c 256
NamedP: "dv04"
850 254 m 256
NamedP: "hr02"
 770 254 714 276 645 305 c 257
 614 316 615 319 612 319 c 257
 561 342 519 357 484 365 c 256
 449 373 414 377 381 377 c 256
NamedP: "dv02"
 330 377 281 367 233 348 c 256
 194 332 143 303 88 256 c 257
NamedP: "iv02"
 88 485 l 257
 139 526 190 555 239 573 c 256
 288 592 342 600 391 600 c 256
NamedP: "dv03"
 462 600 533 582 621 545 c 257
NamedP: "hr03"
 622 545 l 257
 653 531 l 258
 728 496 796 477 864 477 c 256
NamedP: "dv01"
 915 477 958 488 1003 508 c 256
 1055 531 1097 559 1145 602 c 257
 1145 369 l 257
 1096 330 1047 301 999 282 c 256
 955 265 907 254 850 254 c 256
NamedP: "hr02"
EndSplineSet
PickledDataWithLists: "(dp1
S'com.schriftgestaltung.Glyphs.lastChange'
p2
S'2017-07-11 17:15:08 +0000'
p3
s."
EndChar

StartChar: aring
Encoding: 170 229 170
GlifName: aring
Width: 1233
VWidth: 0
Flags: W
LayerCount: 2
Fore
SplineSet
778 1249 m 256
NamedP: "dv07"
 702 1249 632 1277 576 1333 c 256
 521 1389 494 1458 494 1534 c 256
NamedP: "dh03"
 494 1618 529 1689 577 1737 c 256
 626 1786 696 1819 779 1819 c 256
NamedP: "dv04"
 855 1819 925 1792 980 1737 c 256
 1027 1690 1063 1620 1063 1535 c 256
 1063 1451 1028 1379 981 1332 c 256
 926 1277 854 1249 778 1249 c 256
NamedP: "dv07"
779 1403 m 256
NamedP: "dv08"
 812 1403 846 1415 873 1442 c 256
 898 1468 910 1499 910 1535 c 256
 910 1570 897 1601 871 1627 c 256
NamedP: "hr01"
 848 1650 818 1665 779 1665 c 256
NamedP: "dv03"
 742 1665 711 1652 686 1627 c 256
 660 1601 647 1570 647 1534 c 256
NamedP: "dh04"
 647 1497 660 1466 685 1441 c 256
 708 1418 742 1403 779 1403 c 256
NamedP: "dv08"
379 -29 m 256
NamedP: "dv01"
 279 -29 195 -2 135 58 c 256
 72 119 47 204 47 300 c 256
NamedP: "dh01"
 47 436 99 548 203 624 c 256
 306 699 456 737 651 737 c 258
 844 737 l 257
NamedP: "dv06"
 852 786 l 258
 853 793 854 797 854 798 c 257
 854 815 l 258
 854 891 784 932 657 932 c 256
NamedP: "sv01"
 600 932 538 923 470 904 c 256
 403 885 335 859 248 819 c 257
NamedP: "ih01"
 295 1069 l 257
 372 1096 443 1115 509 1128 c 256
 577 1141 637 1147 705 1147 c 256
NamedP: "at01"
 844 1147 953 1122 1029 1071 c 256
NamedP: "hr02"
 1109 1018 1141 942 1141 845 c 256
 1141 821 1139 793 1134 756 c 256
 1129 717 1125 691 1114 639 c 257
 991 0 l 257
NamedP: "ab01"
 729 0 l 257
 725 125 l 257
NamedP: "iv01"
 678 72 627 34 572 10 c 256
NamedP: "ab02"
 513 -17 447 -29 379 -29 c 256
NamedP: "dv01"
501 172 m 256
NamedP: "dv02"
 573 172 641 202 694 265 c 256
 745 324 784 411 803 530 c 257
NamedP: "dv05"
 690 530 l 258
 575 530 490 513 435 478 c 256
 379 443 352 389 352 321 c 256
NamedP: "dh02"
 352 230 410 172 501 172 c 256
NamedP: "dv02"
EndSplineSet
PickledDataWithLists: "(dp1
S'com.schriftgestaltung.Glyphs.lastChange'
p2
S'2017-07-11 17:15:08 +0000'
p3
s."
EndChar

StartChar: arrowboth
Encoding: 171 8596 171
GlifName: arrowboth
Width: 1233
VWidth: 0
Flags: W
LayerCount: 2
Fore
SplineSet
66 490 m 257
NamedP: "hr00"
 66 632 l 257
 357 923 l 257
NamedP: "av03"
 477 803 l 257
 347 673 l 257
 886 673 l 257
NamedP: "dv02"
 756 803 l 257
 876 923 l 257
NamedP: "av04"
 1167 632 l 257
 1167 490 l 257
 876 199 l 257
NamedP: "av01"
 756 319 l 257
 886 449 l 257
NamedP: "dv01"
 347 449 l 257
 477 319 l 257
 357 199 l 257
NamedP: "av02"
 66 490 l 257
NamedP: "hr00"
EndSplineSet
PickledDataWithLists: "(dp1
S'com.schriftgestaltung.Glyphs.lastChange'
p2
S'2017-07-11 17:15:08 +0000'
p3
s."
EndChar

StartChar: arrowdblboth
Encoding: 172 8660 172
GlifName: arrowdblboth
Width: 1233
VWidth: 0
Flags: W
LayerCount: 2
Fore
SplineSet
66 490 m 257
NamedP: "hr00"
 66 632 l 257
 357 923 l 257
NamedP: "av03"
 477 803 l 257
 409 735 l 257
 824 735 l 257
NamedP: "dv04"
 756 803 l 257
 876 923 l 257
NamedP: "av04"
 1167 632 l 257
 1167 490 l 257
 876 199 l 257
NamedP: "av01"
 756 319 l 257
 824 387 l 257
NamedP: "dv01"
 409 387 l 257
 477 319 l 257
 357 199 l 257
NamedP: "av02"
 66 490 l 257
NamedP: "hr00"
926 489 m 257
NamedP: "dv02"
 998 561 l 257
 926 633 l 257
NamedP: "dv03"
 307 633 l 257
 235 561 l 257
 307 489 l 257
 926 489 l 257
NamedP: "dv02"
EndSplineSet
PickledDataWithLists: "(dp1
S'com.schriftgestaltung.Glyphs.lastChange'
p2
S'2017-07-11 17:15:08 +0000'
p3
s."
EndChar

StartChar: arrowdbldown
Encoding: 173 8659 173
GlifName: arrowdbldown
Width: 1233
VWidth: 0
Flags: W
LayerCount: 2
Fore
SplineSet
254 291 m 257
NamedP: "hr00"
 374 411 l 257
 442 343 l 257
NamedP: "sh01"
 442 1101 l 257
NamedP: "av01"
 544 1101 l 257
 544 241 l 257
NamedP: "sh02"
 616 169 l 257
 689 241 l 257
 688 1101 l 257
NamedP: "ah01"
 790 1101 l 257
NamedP: "sh03"
 790 343 l 257
NamedP: "iv01"
 858 411 l 257
 978 291 l 257
 688 0 l 257
NamedP: "sh04"
 546 0 l 257
NamedP: "sh05"
 254 291 l 257
NamedP: "hr00"
EndSplineSet
PickledDataWithLists: "(dp1
S'com.schriftgestaltung.Glyphs.lastChange'
p2
S'2017-07-11 17:15:08 +0000'
p3
s."
EndChar

StartChar: arrowdblleft
Encoding: 174 8656 174
GlifName: arrowdblleft
Width: 1233
VWidth: 0
Flags: W
LayerCount: 2
Fore
SplineSet
66 490 m 257
NamedP: "hr00"
 66 632 l 257
 357 923 l 257
NamedP: "av02"
 477 803 l 257
 409 735 l 257
 1167 735 l 257
NamedP: "dv04"
 1167 633 l 257
NamedP: "dv03"
 307 633 l 257
 235 561 l 257
 307 489 l 257
 1167 489 l 257
NamedP: "dv02"
 1167 387 l 257
NamedP: "dv01"
 409 387 l 257
 477 319 l 257
 357 199 l 257
NamedP: "av01"
 66 490 l 257
NamedP: "hr00"
EndSplineSet
PickledDataWithLists: "(dp1
S'com.schriftgestaltung.Glyphs.lastChange'
p2
S'2017-07-11 17:15:08 +0000'
p3
s."
EndChar

StartChar: arrowdblright
Encoding: 175 8658 175
GlifName: arrowdblright
Width: 1233
VWidth: 0
Flags: W
LayerCount: 2
Fore
SplineSet
756 319 m 257
NamedP: "hr00"
 824 387 l 257
NamedP: "dv01"
 66 387 l 257
 66 489 l 257
 926 489 l 257
NamedP: "dv02"
 998 561 l 257
 926 633 l 257
NamedP: "dv03"
 66 633 l 257
 66 735 l 257
 824 735 l 257
NamedP: "dv04"
 756 803 l 257
 876 923 l 257
NamedP: "av02"
 1167 632 l 257
 1167 490 l 257
 876 199 l 257
NamedP: "av01"
 756 319 l 257
NamedP: "hr00"
EndSplineSet
PickledDataWithLists: "(dp1
S'com.schriftgestaltung.Glyphs.lastChange'
p2
S'2017-07-11 17:15:08 +0000'
p3
s."
EndChar

StartChar: arrowdblup
Encoding: 176 8657 176
GlifName: arrowdblup
Width: 1233
VWidth: 0
Flags: W
LayerCount: 2
Fore
SplineSet
442 758 m 257
NamedP: "hr00"
 374 690 l 257
 254 810 l 257
 546 1101 l 257
NamedP: "sh02"
 688 1101 l 257
NamedP: "ah01"
 978 810 l 257
 858 690 l 257
 790 758 l 257
NamedP: "sh03"
 790 0 l 257
NamedP: "ab01"
 688 0 l 257
NamedP: "sh04"
 689 860 l 257
 616 932 l 257
 544 860 l 257
NamedP: "sh01"
 544 0 l 257
NamedP: "ab02"
 442 0 l 257
 442 758 l 257
NamedP: "hr00"
EndSplineSet
PickledDataWithLists: "(dp1
S'com.schriftgestaltung.Glyphs.lastChange'
p2
S'2017-07-11 17:15:08 +0000'
p3
s."
EndChar

StartChar: arrowdown
Encoding: 177 8595 177
GlifName: arrowdown
Width: 1233
VWidth: 0
Flags: W
LayerCount: 2
Fore
SplineSet
254 291 m 257
NamedP: "hr00"
 374 411 l 257
 504 281 l 257
NamedP: "dh01"
 504 1101 l 257
NamedP: "av01"
 728 1101 l 257
 728 281 l 257
NamedP: "dh02"
 858 411 l 257
 978 291 l 257
 688 0 l 257
NamedP: "ab01"
 546 0 l 257
 254 291 l 257
NamedP: "hr00"
EndSplineSet
PickledDataWithLists: "(dp1
S'com.schriftgestaltung.Glyphs.lastChange'
p2
S'2017-07-11 17:15:08 +0000'
p3
s."
EndChar

StartChar: arrowleft
Encoding: 178 8592 178
GlifName: arrowleft
Width: 1233
VWidth: 0
Flags: W
LayerCount: 2
Fore
SplineSet
66 490 m 257
NamedP: "hr00"
 66 632 l 257
 357 923 l 257
NamedP: "av02"
 477 803 l 257
 347 673 l 257
 1167 673 l 257
NamedP: "dv02"
 1167 449 l 257
NamedP: "dv01"
 347 449 l 257
 477 319 l 257
 357 199 l 257
NamedP: "av01"
 66 490 l 257
NamedP: "hr00"
EndSplineSet
PickledDataWithLists: "(dp1
S'com.schriftgestaltung.Glyphs.lastChange'
p2
S'2017-07-11 17:15:08 +0000'
p3
s."
EndChar

StartChar: arrowright
Encoding: 179 8594 179
GlifName: arrowright
Width: 1233
VWidth: 0
Flags: W
LayerCount: 2
Fore
SplineSet
756 319 m 257
NamedP: "hr00"
 886 449 l 257
NamedP: "dv01"
 66 449 l 257
 66 673 l 257
 886 673 l 257
NamedP: "dv02"
 756 803 l 257
 876 923 l 257
NamedP: "av02"
 1167 632 l 257
 1167 490 l 257
 876 199 l 257
NamedP: "av01"
 756 319 l 257
NamedP: "hr00"
EndSplineSet
PickledDataWithLists: "(dp1
S'com.schriftgestaltung.Glyphs.lastChange'
p2
S'2017-07-11 17:15:08 +0000'
p3
s."
EndChar

StartChar: arrowup
Encoding: 180 8593 180
GlifName: arrowup
Width: 1233
VWidth: 0
Flags: W
LayerCount: 2
Fore
SplineSet
504 820 m 257
NamedP: "hr00"
 374 690 l 257
 254 810 l 257
 546 1101 l 257
NamedP: "av01"
 688 1101 l 257
 978 810 l 257
 858 690 l 257
 728 820 l 257
NamedP: "dh01"
 728 0 l 257
NamedP: "ab01"
 504 0 l 257
 504 820 l 257
NamedP: "hr00"
EndSplineSet
PickledDataWithLists: "(dp1
S'com.schriftgestaltung.Glyphs.lastChange'
p2
S'2017-07-11 17:15:08 +0000'
p3
s."
EndChar

StartChar: arrowupdn
Encoding: 181 8597 181
GlifName: arrowupdn
Width: 1233
VWidth: 0
Flags: W
LayerCount: 2
Fore
SplineSet
254 291 m 257
NamedP: "hr00"
 374 411 l 257
 504 281 l 257
NamedP: "dh01"
 504 820 l 257
NamedP: "iv01"
 374 690 l 257
 254 810 l 257
 546 1101 l 257
NamedP: "av01"
 688 1101 l 257
 978 810 l 257
 858 690 l 257
 728 820 l 257
NamedP: "iv02"
 728 281 l 257
NamedP: "dh02"
 858 411 l 257
 978 291 l 257
 688 0 l 257
NamedP: "ab01"
 546 0 l 257
 254 291 l 257
NamedP: "hr00"
EndSplineSet
PickledDataWithLists: "(dp1
S'com.schriftgestaltung.Glyphs.lastChange'
p2
S'2017-07-11 17:15:08 +0000'
p3
s."
EndChar

StartChar: arrowupdnbse
Encoding: 182 8616 182
GlifName: arrowupdnbse
Width: 1233
VWidth: 0
Flags: W
LayerCount: 2
Fore
SplineSet
254 194 m 257
NamedP: "hr00"
 546 194 l 257
NamedP: "ih01"
 254 485 l 257
 374 605 l 257
 504 475 l 257
NamedP: "dh01"
 504 820 l 257
NamedP: "iv01"
 374 690 l 257
 254 810 l 257
 546 1101 l 257
NamedP: "av01"
 688 1101 l 257
 978 810 l 257
 858 690 l 257
 728 820 l 257
NamedP: "iv02"
 728 475 l 257
NamedP: "dh02"
 858 605 l 257
 978 485 l 257
 688 194 l 257
NamedP: "ih02"
 978 194 l 257
NamedP: "sv01"
 978 0 l 257
NamedP: "ab01"
 254 0 l 257
 254 194 l 257
NamedP: "hr00"
EndSplineSet
PickledDataWithLists: "(dp1
S'com.schriftgestaltung.Glyphs.lastChange'
p2
S'2017-07-11 17:15:08 +0000'
p3
s."
EndChar

StartChar: asciicircum
Encoding: 183 94 183
GlifName: asciicircum
Width: 1233
VWidth: 0
Flags: W
LayerCount: 2
Fore
SplineSet
494 1493 m 257
NamedP: "hr00"
 739 1493 l 257
 1176 936 l 257
NamedP: "av01"
 934 936 l 257
 616 1237 l 257
 299 936 l 257
NamedP: "av02"
 57 936 l 257
 494 1493 l 257
NamedP: "hr00"
EndSplineSet
PickledDataWithLists: "(dp1
S'com.schriftgestaltung.Glyphs.lastChange'
p2
S'2017-07-11 17:15:08 +0000'
p3
s."
EndChar

StartChar: asciitilde
Encoding: 184 126 184
GlifName: asciitilde
Width: 1233
VWidth: 0
Flags: W
LayerCount: 2
Fore
SplineSet
1165 873 m 257
NamedP: "hr00"
 1160 696 1145 571 1094 483 c 256
 1095 486 l 256
 1042 378 953 324 830 324 c 256
 771 324 721 337 678 362 c 256
 639 385 594 431 545 500 c 256
 499 565 467 604 448 619 c 257
 431 630 417 637 404 637 c 256
 375 637 356 624 345 597 c 257
 345 598 l 257
 326 553 313 463 307 330 c 257
 68 330 l 257
 72 499 96 628 139 717 c 257
 200 824 287 877 399 877 c 256
 454 877 503 864 546 837 c 256
 590 810 640 763 684 702 c 257
 683 703 l 257
NamedP: "hr01"
 717 657 748 620 777 591 c 256
 795 573 812 564 827 564 c 256
 895 564 921 662 924 873 c 257
 1165 873 l 257
NamedP: "hr00"
EndSplineSet
PickledDataWithLists: "(dp1
S'com.schriftgestaltung.Glyphs.lastChange'
p2
S'2017-07-11 17:15:08 +0000'
p3
s."
EndChar

StartChar: asterisk
Encoding: 185 42 185
GlifName: asterisk
Width: 1233
VWidth: 0
Flags: W
LayerCount: 2
Fore
SplineSet
230 467 m 257
NamedP: "hr00"
 470 835 l 257
 109 992 l 257
 155 1122 l 257
 526 1000 l 257
NamedP: "iv01"
 546 1420 l 257
NamedP: "at01"
 682 1420 l 257
 702 1000 l 257
NamedP: "iv02"
 1073 1122 l 257
 1119 992 l 257
 758 835 l 257
 998 467 l 257
 881 383 l 257
NamedP: "av01"
 614 736 l 257
NamedP: "iv03"
 347 383 l 257
NamedP: "av02"
 230 467 l 257
NamedP: "hr00"
EndSplineSet
PickledDataWithLists: "(dp1
S'com.schriftgestaltung.Glyphs.lastChange'
p2
S'2017-07-11 17:15:08 +0000'
p3
s."
EndChar

StartChar: asteriskmath
Encoding: 186 8727 186
GlifName: asteriskmath
Width: 1233
VWidth: 0
Flags: W
LayerCount: 2
Fore
SplineSet
528 502 m 257
NamedP: "hr00"
 197 318 l 257
 121 459 l 257
 453 633 l 257
NamedP: "iv01"
 121 806 l 257
 197 947 l 257
 528 765 l 257
NamedP: "sh01"
 528 1109 l 257
NamedP: "av01"
 700 1109 l 257
NamedP: "sh02"
 700 765 l 257
NamedP: "iv02"
 1032 947 l 257
 1108 806 l 257
 778 633 l 257
NamedP: "iv03"
 1108 459 l 257
 1032 318 l 257
 700 502 l 257
NamedP: "dh01"
 700 158 l 257
NamedP: "av02"
 528 158 l 257
 528 502 l 257
NamedP: "hr00"
EndSplineSet
PickledDataWithLists: "(dp1
S'com.schriftgestaltung.Glyphs.lastChange'
p2
S'2017-07-11 17:15:08 +0000'
p3
s."
EndChar

StartChar: at
Encoding: 187 64 187
GlifName: at
Width: 1233
VWidth: 0
Flags: W
LayerCount: 2
Fore
SplineSet
599 -319 m 256
NamedP: "hr00"
 416 -319 262 -253 153 -128 c 256
 41 0 -14 174 -14 387 c 256
NamedP: "dh01"
 -14 496 1 603 30 709 c 256
 61 817 105 919 158 1004 c 256
 235 1127 329 1224 442 1293 c 256
 550 1360 670 1395 799 1395 c 256
NamedP: "dv03"
 928 1395 1036 1360 1112 1293 c 256
 1193 1221 1229 1126 1229 1023 c 256
NamedP: "dh06"
 1229 1006 1229 979 1226 960 c 256
 1225 947 1222 932 1214 892 c 258
 1067 135 l 257
 870 135 l 257
 887 217 l 257
NamedP: "ih01"
 859 185 826 160 788 142 c 256
 741 119 700 115 664 115 c 256
NamedP: "dv04"
 576 115 503 146 451 203 c 256
 395 264 371 348 371 448 c 256
NamedP: "dh03"
 371 593 421 728 498 821 c 256
 585 925 698 973 810 973 c 256
NamedP: "dv07"
 857 973 898 965 933 949 c 256
 969 932 997 905 1014 877 c 257
NamedP: "ih02"
 1027 921 1032 973 1032 1004 c 256
NamedP: "dh05"
 1032 1134 948 1206 798 1206 c 256
NamedP: "dv02"
 640 1206 483 1117 365 961 c 256
 297 872 254 777 226 690 c 256
 194 591 178 490 178 388 c 256
NamedP: "dh02"
 178 237 214 105 295 9 c 256
 372 -83 481 -131 614 -131 c 256
NamedP: "dv01"
 719 -131 828 -99 936 -35 c 257
 999 -209 l 257
 929 -246 862 -274 797 -293 c 256
 740 -309 671 -319 599 -319 c 256
NamedP: "hr00"
724 301 m 256
NamedP: "dv05"
 792 301 854 335 898 392 c 256
 945 453 969 536 969 616 c 256
 969 676 956 713 929 742 c 256
 902 771 864 786 817 786 c 256
NamedP: "dv06"
 749 786 689 756 642 697 c 256
 595 637 571 558 571 481 c 256
NamedP: "dh04"
 571 430 580 382 611 347 c 256
 634 320 672 301 724 301 c 256
NamedP: "dv05"
EndSplineSet
PickledDataWithLists: "(dp1
S'com.schriftgestaltung.Glyphs.lastChange'
p2
S'2017-07-11 17:15:08 +0000'
p3
s."
EndChar

StartChar: atilde
Encoding: 188 227 188
GlifName: atilde
Width: 1233
VWidth: 0
Flags: W
LayerCount: 2
Fore
SplineSet
911 1297 m 256
NamedP: "sv02"
 863 1297 823 1311 770 1354 c 257
 721 1391 l 257
 717 1395 719 1392 716 1395 c 256
 693 1412 670 1428 643 1428 c 256
 596 1428 562 1380 547 1299 c 257
NamedP: "sv01"
 408 1299 l 257
 421 1386 450 1455 495 1506 c 256
 540 1557 596 1583 656 1583 c 256
NamedP: "av01"
 709 1583 734 1570 799 1522 c 258
 850 1483 l 258
 876 1462 899 1452 921 1452 c 256
 948 1452 968 1465 984 1486 c 256
 1001 1508 1013 1540 1020 1581 c 257
NamedP: "av02"
 1159 1581 l 257
 1130 1394 1044 1297 911 1297 c 256
NamedP: "sv02"
379 -29 m 256
NamedP: "dv01"
 279 -29 195 -2 135 58 c 256
 72 119 47 204 47 300 c 256
NamedP: "dh01"
 47 436 99 548 203 624 c 256
 306 699 456 737 651 737 c 258
 844 737 l 257
NamedP: "dv04"
 852 786 l 258
 853 793 854 797 854 798 c 257
 854 815 l 258
 854 891 784 932 657 932 c 256
NamedP: "sv03"
 600 932 538 923 470 904 c 256
 403 885 335 859 248 819 c 257
NamedP: "hr02"
 295 1069 l 257
 372 1096 443 1115 509 1128 c 256
 577 1141 637 1147 705 1147 c 256
NamedP: "at01"
 850 1147 956 1120 1029 1071 c 256
 1109 1018 1141 944 1141 848 c 256
 1141 824 1139 793 1134 756 c 256
 1129 718 1125 690 1114 639 c 257
 991 0 l 257
NamedP: "ab01"
 729 0 l 257
 725 125 l 257
NamedP: "iv01"
 678 72 627 34 572 10 c 256
NamedP: "hr03"
 513 -17 447 -29 379 -29 c 256
NamedP: "dv01"
501 172 m 256
NamedP: "dv02"
 573 172 641 202 694 265 c 256
NamedP: "hr04"
 745 324 784 411 803 530 c 257
NamedP: "dv03"
 690 530 l 258
 575 530 490 513 435 478 c 256
 379 443 352 389 352 321 c 256
NamedP: "dh02"
 352 230 410 172 501 172 c 256
NamedP: "dv02"
EndSplineSet
PickledDataWithLists: "(dp1
S'com.schriftgestaltung.Glyphs.lastChange'
p2
S'2017-07-11 17:15:08 +0000'
p3
s."
EndChar

StartChar: b
Encoding: 189 98 189
GlifName: b
Width: 1233
VWidth: 0
Flags: W
LayerCount: 2
Fore
SplineSet
651 -29 m 256
NamedP: "dv01"
 503 -29 404 56 381 207 c 257
NamedP: "iv01"
 311 0 l 257
NamedP: "ab01"
 47 0 l 257
 350 1556 l 257
NamedP: "at01"
 643 1556 l 257
 524 952 l 257
NamedP: "ih01"
 566 1016 615 1065 670 1098 c 256
 726 1131 785 1147 848 1147 c 256
NamedP: "at02"
 943 1147 1024 1111 1081 1038 c 256
 1141 962 1165 856 1165 732 c 256
NamedP: "sh01"
 1165 655 1155 566 1135 479 c 256
 1118 407 1089 320 1049 244 c 256
NamedP: "hr01"
 957 73 812 -29 651 -29 c 256
NamedP: "dv01"
599 209 m 256
NamedP: "dv02"
 675 209 743 262 792 351 c 256
 843 443 870 563 870 682 c 256
NamedP: "dh02"
 870 762 857 814 829 851 c 256
 801 888 763 907 714 907 c 256
NamedP: "sv01"
 643 907 572 865 516 769 c 256
 464 680 434 559 434 444 c 256
NamedP: "dh01"
 434 360 450 306 478 269 c 256
 507 230 550 209 599 209 c 256
NamedP: "dv02"
EndSplineSet
PickledDataWithLists: "(dp1
S'com.schriftgestaltung.Glyphs.lastChange'
p2
S'2017-07-11 17:15:08 +0000'
p3
s."
EndChar

StartChar: backslash
Encoding: 190 92 190
GlifName: backslash
Width: 1233
VWidth: 0
Flags: W
LayerCount: 2
Fore
SplineSet
112 1493 m 257
NamedP: "hr00"
 335 1493 l 257
 1121 -190 l 257
 898 -190 l 257
 112 1493 l 257
NamedP: "hr00"
EndSplineSet
PickledDataWithLists: "(dp1
S'com.schriftgestaltung.Glyphs.lastChange'
p2
S'2017-07-11 17:15:08 +0000'
p3
s."
EndChar

StartChar: bar
Encoding: 191 124 191
GlifName: bar
Width: 1233
VWidth: 0
Flags: W
LayerCount: 2
Fore
SplineSet
502 1565 m 257
NamedP: "hr00"
 729 1565 l 257
 729 654 l 257
 502 654 l 257
 502 1565 l 257
NamedP: "hr00"
502 427 m 257
 729 427 l 257
 729 -483 l 257
 502 -483 l 257
 502 427 l 257
EndSplineSet
PickledDataWithLists: "(dp1
S'com.schriftgestaltung.Glyphs.lastChange'
p2
S'2017-07-11 17:15:08 +0000'
p3
s."
EndChar

StartChar: beta
Encoding: 192 946 192
GlifName: beta
Width: 1233
VWidth: 0
Flags: W
LayerCount: 2
Fore
SplineSet
258 1113 m 258
NamedP: "hr00"
 318 1418 493 1569 774 1569 c 256
NamedP: "at01"
 1070 1569 1177 1399 1177 1216 c 256
NamedP: "sh01"
 1177 1057 1095 890 978 810 c 257
NamedP: "ih01"
 1099 767 1145 674 1145 566 c 256
NamedP: "dh01"
 1145 531 1141 489 1134 453 c 256
 1086 177 918 -10 643 -21 c 257
NamedP: "hr01"
 632 -21 632 -22 613 -22 c 256
NamedP: "ab02"
 518 -22 417 4 346 69 c 257
NamedP: "iv01"
 249 -426 l 257
NamedP: "ab01"
 -42 -426 l 257
 258 1113 l 258
NamedP: "hr00"
410 402 m 257
 458 296 554 234 636 234 c 256
NamedP: "sv01"
 722 234 802 299 832 449 c 256
NamedP: "hr02"
 836 470 838 489 838 507 c 256
NamedP: "hr03"
 838 608 767 658 624 658 c 256
NamedP: "dv01"
 613 658 603 658 592 657 c 257
 635 880 l 257
NamedP: "dv02"
 782 875 876 1035 876 1165 c 256
NamedP: "hr04"
 876 1255 831 1332 734 1332 c 256
NamedP: "sv02"
 639 1332 578 1260 547 1107 c 257
 410 402 l 257
EndSplineSet
PickledDataWithLists: "(dp1
S'com.schriftgestaltung.Glyphs.lastChange'
p2
S'2017-07-11 17:15:08 +0000'
p3
s."
EndChar

StartChar: block
Encoding: 193 9608 193
GlifName: block
Width: 1233
VWidth: 0
Flags: W
LayerCount: 2
Fore
SplineSet
0 1950 m 257
NamedP: "hr00"
 1233 1950 l 257
 1233 -512 l 257
 0 -512 l 257
 0 1950 l 257
NamedP: "hr00"
EndSplineSet
PickledDataWithLists: "(dp1
S'com.schriftgestaltung.Glyphs.lastChange'
p2
S'2017-07-11 17:15:08 +0000'
p3
s."
EndChar

StartChar: braceleft
Encoding: 194 123 194
GlifName: braceleft
Width: 1233
VWidth: 0
Flags: W
LayerCount: 2
Fore
SplineSet
644 -334 m 257
NamedP: "dv01"
 373 -327 289 -278 280 -101 c 257
NamedP: "dh01"
 280 -84 281 -72 284 -49 c 257
NamedP: "sh01"
 284 -41 290 1 298 35 c 257
 341 250 l 258
 343 260 351 304 354 328 c 256
 357 351 358 365 358 377 c 256
NamedP: "ih01"
 358 433 338 465 295 486 c 256
 259 505 197 516 113 516 c 258
NamedP: "hr01"
 51 516 l 257
 88 707 l 257
NamedP: "dv02"
 179 707 l 258
 274 707 343 725 386 762 c 256
 429 799 460 869 480 973 c 258
 521 1188 l 258
 550 1341 597 1437 658 1484 c 256
 720 1532 838 1556 1011 1556 c 258
NamedP: "at01"
 1160 1556 l 257
 1124 1366 l 257
NamedP: "sv01"
 1001 1366 l 258
 926 1366 881 1351 852 1323 c 256
 821 1294 800 1239 781 1139 c 258
 743 930 l 258
 724 826 692 744 648 696 c 256
 607 651 543 623 456 612 c 257
NamedP: "ih02"
 520 598 566 577 593 548 c 256
 620 521 634 485 634 428 c 256
NamedP: "sh02"
 634 413 633 387 630 364 c 256
 627 347 625 326 618 291 c 258
 577 86 l 257
 569 51 569 49 564 12 c 256
 561 -11 560 -19 560 -32 c 256
NamedP: "dh02"
 560 -75 571 -101 594 -118 c 256
 617 -135 655 -143 708 -143 c 258
NamedP: "hr02"
 829 -143 l 257
 792 -334 l 257
NamedP: "sv02"
 644 -334 l 257
NamedP: "dv01"
EndSplineSet
PickledDataWithLists: "(dp1
S'com.schriftgestaltung.Glyphs.lastChange'
p2
S'2017-07-11 17:15:08 +0000'
p3
s."
EndChar

StartChar: braceright
Encoding: 195 125 195
GlifName: braceright
Width: 1233
VWidth: 0
Flags: W
LayerCount: 2
Fore
SplineSet
56 -143 m 257
NamedP: "hr00"
 179 -143 l 258
NamedP: "dv02"
 243 -143 297 -128 326 -100 c 256
 356 -71 380 -9 398 86 c 258
 437 291 l 258
 457 396 488 476 532 524 c 256
 573 569 637 599 724 612 c 257
NamedP: "ih01"
 661 623 615 642 588 670 c 256
 560 698 546 739 546 792 c 256
NamedP: "dh01"
 546 807 547 828 550 852 c 257
NamedP: "sh01"
 553 867 557 903 562 930 c 258
 603 1139 l 257
 610 1163 612 1183 616 1214 c 256
 619 1234 620 1242 620 1247 c 256
 620 1252 619 1252 619 1257 c 256
 619 1294 609 1325 586 1342 c 256
 564 1358 526 1366 472 1366 c 258
NamedP: "sv01"
 351 1366 l 257
 388 1556 l 257
NamedP: "at01"
 535 1556 l 258
 671 1556 767 1540 822 1508 c 256
 878 1476 904 1419 904 1351 c 256
 904 1318 897 1269 884 1202 c 258
 881 1187 l 257
 840 972 l 258
 836 951 833 927 830 911 c 256
 827 890 826 877 826 864 c 256
NamedP: "dh02"
 826 793 854 762 889 742 c 256
 930 719 990 707 1067 707 c 258
NamedP: "dv04"
 1129 707 l 257
 1092 516 l 257
NamedP: "dv03"
 1000 516 l 258
 906 516 837 497 794 458 c 256
 749 419 718 349 699 250 c 258
 658 35 l 258
 630 -113 583 -211 516 -260 c 256
 449 -309 334 -334 169 -334 c 258
NamedP: "dv01"
 19 -334 l 257
 56 -143 l 257
NamedP: "hr00"
EndSplineSet
PickledDataWithLists: "(dp1
S'com.schriftgestaltung.Glyphs.lastChange'
p2
S'2017-07-11 17:15:08 +0000'
p3
s."
EndChar

StartChar: bracketleft
Encoding: 196 91 196
GlifName: bracketleft
Width: 1233
VWidth: 0
Flags: HWO
LayerCount: 2
Fore
SplineSet
549 1651 m 257
NamedP: "hr00"
 1204 1651 l 257
NamedP: "dv04"
 1176 1478 l 257
NamedP: "dv03"
 756 1478 l 257
 505 -112 l 257
 925 -112 l 257
NamedP: "dv02"
 897 -285 l 257
NamedP: "dv01"
 242 -285 l 257
 549 1651 l 257
NamedP: "hr00"
EndSplineSet
PickledDataWithLists: "(dp1
S'com.schriftgestaltung.Glyphs.lastChange'
p2
S'2017-07-11 17:15:08 +0000'
p3
s."
EndChar

StartChar: bracketright
Encoding: 197 93 197
GlifName: bracketright
Width: 1233
VWidth: 0
Flags: HW
LayerCount: 2
Fore
SplineSet
273 -112 m 257
NamedP: "hr00"
 693 -112 l 261
NamedP: "dv02"
 944 1477 l 261
 524 1477 l 257
NamedP: "dv03"
 552 1650 l 257
NamedP: "dv04"
 1207 1650 l 257
 900 -285 l 257
NamedP: "dv01"
 245 -285 l 257
 273 -112 l 257
NamedP: "hr00"
EndSplineSet
PickledDataWithLists: "(dp1
S'com.schriftgestaltung.Glyphs.lastChange'
p2
S'2017-07-11 17:15:08 +0000'
p3
s."
EndChar

StartChar: breve
Encoding: 198 728 198
GlifName: breve
Width: 1233
VWidth: 0
Flags: W
LayerCount: 2
Fore
SplineSet
739 1309 m 256
NamedP: "dv01"
 642 1309 569 1331 520 1375 c 256
 473 1416 446 1477 446 1573 c 258
 446 1606 l 257
 590 1606 l 257
NamedP: "sv01"
 590 1593 l 258
NamedP: "hr01"
 590 1552 605 1520 634 1496 c 256
 663 1472 703 1460 754 1460 c 256
NamedP: "dv02"
 808 1460 855 1473 894 1499 c 256
NamedP: "hr02"
 933 1524 958 1557 977 1606 c 257
NamedP: "sv02"
 1120 1606 l 257
 1101 1511 1060 1440 992 1387 c 256
 926 1335 842 1309 739 1309 c 256
NamedP: "dv01"
EndSplineSet
PickledDataWithLists: "(dp1
S'com.schriftgestaltung.Glyphs.lastChange'
p2
S'2017-07-11 17:15:08 +0000'
p3
s."
EndChar

StartChar: brokenbar
Encoding: 199 166 199
GlifName: brokenbar
Width: 1233
VWidth: 0
Flags: W
LayerCount: 2
Fore
SplineSet
502 1432 m 257
NamedP: "hr00"
 729 1432 l 257
NamedP: "dh01"
 729 674 l 257
 502 674 l 257
 502 1432 l 257
NamedP: "hr00"
502 408 m 257
NamedP: "sh01"
 729 408 l 257
NamedP: "sh02"
 729 -350 l 257
NamedP: "av01"
 502 -350 l 257
 502 408 l 257
NamedP: "sh01"
EndSplineSet
PickledDataWithLists: "(dp1
S'com.schriftgestaltung.Glyphs.lastChange'
p2
S'2017-07-11 17:15:08 +0000'
p3
s."
EndChar

StartChar: bullet
Encoding: 200 8226 200
GlifName: bullet
Width: 1233
VWidth: 0
Flags: W
LayerCount: 2
Fore
SplineSet
614 399 m 256
NamedP: "hr00"
 566 399 520 408 476 427 c 256
 441 442 395 470 360 506 c 256
 327 541 300 582 283 623 c 256
 264 666 256 714 256 762 c 256
 256 811 265 858 284 902 c 256
 303 945 330 985 362 1016 c 256
 395 1048 439 1077 480 1094 c 256
 519 1110 566 1120 617 1120 c 256
NamedP: "at01"
 665 1120 711 1111 755 1093 c 256
 798 1075 837 1049 870 1016 c 256
 903 983 931 942 950 899 c 256
 968 856 977 810 977 762 c 256
 977 713 968 667 950 624 c 256
 935 588 909 545 870 506 c 256
 835 471 799 446 754 427 c 256
 715 411 669 399 614 399 c 256
NamedP: "hr00"
EndSplineSet
PickledDataWithLists: "(dp1
S'com.schriftgestaltung.Glyphs.lastChange'
p2
S'2017-07-11 17:15:08 +0000'
p3
s."
EndChar

StartChar: c
Encoding: 201 99 201
GlifName: c
Width: 1233
VWidth: 0
Flags: W
LayerCount: 2
Fore
SplineSet
621 -29 m 256
NamedP: "hr00"
 481 -29 355 6 263 94 c 256
 171 182 135 305 135 448 c 256
NamedP: "dh01"
 135 636 199 823 318 950 c 256
 438 1079 605 1147 797 1147 c 256
NamedP: "at01"
 864 1147 930 1139 981 1127 c 256
 1036 1114 1091 1092 1142 1063 c 257
 1089 795 l 257
 1049 833 1006 862 960 881 c 256
 916 900 867 909 814 909 c 256
NamedP: "sv01"
 695 909 603 862 538 786 c 256
 466 702 431 590 431 466 c 256
NamedP: "dh02"
 431 289 513 209 675 209 c 256
NamedP: "dv01"
 726 209 774 218 827 235 c 256
 876 251 930 274 997 313 c 257
 941 37 l 257
 889 14 836 -2 783 -13 c 256
 727 -24 673 -29 621 -29 c 256
NamedP: "hr00"
EndSplineSet
PickledDataWithLists: "(dp1
S'com.schriftgestaltung.Glyphs.lastChange'
p2
S'2017-07-11 17:15:08 +0000'
p3
s."
EndChar

StartChar: c6459
Encoding: 202 -1 202
GlifName: c6459
Width: 1233
VWidth: 0
Flags: W
LayerCount: 2
Fore
SplineSet
436 1280 m 258
NamedP: "hr00"
 418 1280 409 1288 409 1304 c 256
 409 1308 409 1311 410 1313 c 258
 448 1499 l 258
 452 1517 463 1526 480 1526 c 258
NamedP: "dv01"
 655 1526 l 258
 673 1526 682 1518 682 1502 c 256
 682 1498 682 1495 681 1493 c 258
 644 1307 l 258
 641 1289 630 1280 612 1280 c 258
 436 1280 l 258
NamedP: "hr00"
832 1280 m 258
NamedP: "sv01"
 814 1280 805 1288 805 1304 c 256
 805 1308 805 1311 806 1313 c 258
 843 1499 l 257
 846 1517 856 1526 875 1526 c 258
NamedP: "sv02"
 1050 1526 l 258
 1070 1526 1081 1513 1077 1493 c 258
 1041 1307 l 258
 1038 1289 1027 1280 1009 1280 c 258
 832 1280 l 258
NamedP: "sv01"
EndSplineSet
PickledDataWithLists: "(dp1
S'com.schriftgestaltung.Glyphs.lastChange'
p2
S'2017-07-11 17:15:08 +0000'
p3
s."
EndChar

StartChar: c6460
Encoding: 203 -1 203
GlifName: c6460
Width: 1233
VWidth: 0
Flags: W
LayerCount: 2
Fore
SplineSet
811 1526 m 257
NamedP: "hr00"
 1092 1526 l 257
 772 1262 l 257
NamedP: "av01"
 565 1262 l 257
 811 1526 l 257
NamedP: "hr00"
EndSplineSet
PickledDataWithLists: "(dp1
S'com.schriftgestaltung.Glyphs.lastChange'
p2
S'2017-07-11 17:15:08 +0000'
p3
s."
EndChar

StartChar: c6461
Encoding: 204 -1 204
GlifName: c6461
Width: 1233
VWidth: 0
Flags: W
LayerCount: 2
Fore
SplineSet
371 1262 m 257
NamedP: "hr00"
 388 1348 419 1414 462 1459 c 256
 505 1504 557 1528 622 1528 c 256
NamedP: "dv02"
 647 1528 671 1524 693 1516 c 256
 712 1509 733 1497 760 1477 c 258
 813 1436 l 257
 822 1428 833 1421 847 1416 c 256
 858 1411 870 1409 881 1409 c 256
 908 1409 929 1419 946 1440 c 256
 964 1461 976 1491 983 1528 c 257
NamedP: "sv01"
 1120 1528 l 257
 1103 1443 1073 1378 1029 1331 c 256
 986 1285 933 1262 870 1262 c 256
NamedP: "sv02"
 843 1262 822 1266 801 1273 c 256
 780 1280 756 1294 731 1313 c 258
 682 1350 l 258
 664 1364 650 1373 641 1376 c 256
 630 1380 618 1382 607 1382 c 256
 579 1382 560 1369 545 1350 c 256
 525 1326 515 1298 508 1262 c 257
NamedP: "dv01"
 371 1262 l 257
NamedP: "hr00"
EndSplineSet
PickledDataWithLists: "(dp1
S'com.schriftgestaltung.Glyphs.lastChange'
p2
S'2017-07-11 17:15:08 +0000'
p3
s."
EndChar

StartChar: c6462
Encoding: 205 -1 205
GlifName: c6462
Width: 1233
VWidth: 0
Flags: W
LayerCount: 2
Fore
SplineSet
543 -29 m 256
NamedP: "hr00"
 391 -29 280 20 208 91 c 256
 123 175 88 293 88 442 c 256
NamedP: "sh01"
 88 631 143 814 254 949 c 256
 361 1078 509 1149 689 1149 c 256
NamedP: "dv03"
 822 1149 942 1110 1025 1030 c 256
 1109 947 1145 828 1145 676 c 256
NamedP: "sh02"
 1145 484 1088 304 980 171 c 257
 867 34 715 -29 543 -29 c 256
NamedP: "hr00"
563 207 m 256
NamedP: "dv01"
 640 207 711 251 767 343 c 256
 818 427 850 544 850 672 c 256
NamedP: "ah01"
 850 764 833 817 804 853 c 256
 771 893 724 911 673 911 c 256
NamedP: "dv02"
 590 911 521 866 466 776 c 256
 411 684 383 561 383 449 c 256
NamedP: "sh03"
 383 377 394 312 431 267 c 256
 459 232 503 207 563 207 c 256
NamedP: "dv01"
EndSplineSet
PickledDataWithLists: "(dp1
S'com.schriftgestaltung.Glyphs.lastChange'
p2
S'2017-07-11 17:15:08 +0000'
p3
s."
EndChar

StartChar: c6469
Encoding: 206 -1 206
GlifName: c6469
Width: 1233
VWidth: 0
Flags: W
LayerCount: 2
Fore
SplineSet
449 1526 m 257
NamedP: "hr00"
 713 1526 l 257
NamedP: "dv02"
 856 1262 l 257
 678 1262 l 257
NamedP: "dv01"
 449 1526 l 257
NamedP: "hr00"
EndSplineSet
PickledDataWithLists: "(dp1
S'com.schriftgestaltung.Glyphs.lastChange'
p2
S'2017-07-11 17:15:08 +0000'
p3
s."
EndChar

StartChar: c6471
Encoding: 207 -1 207
GlifName: c6471
Width: 1233
VWidth: 0
Flags: W
LayerCount: 2
Fore
SplineSet
588 1526 m 257
NamedP: "hr00"
 936 1526 l 257
NamedP: "dv02"
 1087 1262 l 257
 918 1262 l 257
NamedP: "dv01"
 754 1423 l 257
 524 1262 l 257
NamedP: "sv01"
 344 1262 l 257
 588 1526 l 257
NamedP: "hr00"
EndSplineSet
PickledDataWithLists: "(dp1
S'com.schriftgestaltung.Glyphs.lastChange'
p2
S'2017-07-11 17:15:08 +0000'
p3
s."
EndChar

StartChar: c6473
Encoding: 208 -1 208
GlifName: c6473
Width: 1233
VWidth: 0
Flags: W
LayerCount: 2
Fore
SplineSet
410 1526 m 257
NamedP: "hr00"
 580 1526 l 257
 729 1364 l 257
 958 1526 l 257
NamedP: "dv02"
 1139 1526 l 257
 895 1262 l 257
NamedP: "dv01"
 547 1262 l 257
 410 1526 l 257
NamedP: "hr00"
EndSplineSet
PickledDataWithLists: "(dp1
S'com.schriftgestaltung.Glyphs.lastChange'
p2
S'2017-07-11 17:15:08 +0000'
p3
s."
EndChar

StartChar: c6476
Encoding: 209 -1 209
GlifName: c6476
Width: 1233
VWidth: 0
Flags: W
LayerCount: 2
Fore
SplineSet
720 1262 m 256
NamedP: "dv01"
 624 1262 557 1285 508 1330 c 256
 459 1375 434 1439 434 1522 c 258
 434 1526 l 257
 577 1526 l 257
NamedP: "sv01"
 584 1486 601 1457 628 1439 c 256
NamedP: "hr01"
 655 1420 694 1411 745 1411 c 256
NamedP: "dv02"
 798 1411 836 1421 872 1442 c 256
NamedP: "hr02"
 908 1463 933 1491 948 1526 c 257
NamedP: "sv02"
 1102 1526 l 257
 1075 1440 1029 1375 963 1330 c 256
 896 1285 815 1262 720 1262 c 256
NamedP: "dv01"
EndSplineSet
PickledDataWithLists: "(dp1
S'com.schriftgestaltung.Glyphs.lastChange'
p2
S'2017-07-11 17:15:08 +0000'
p3
s."
EndChar

StartChar: c6477
Encoding: 210 -1 210
GlifName: c6477
Width: 1233
VWidth: 0
Flags: W
LayerCount: 2
Fore
SplineSet
617 1280 m 258
NamedP: "hr00"
 597 1280 586 1293 590 1313 c 258
 626 1499 l 257
 629 1517 639 1526 658 1526 c 258
NamedP: "dv01"
 872 1526 l 258
 892 1526 903 1513 899 1493 c 258
 863 1307 l 258
 860 1289 849 1280 831 1280 c 258
NamedP: "sv01"
 617 1280 l 258
NamedP: "hr00"
EndSplineSet
PickledDataWithLists: "(dp1
S'com.schriftgestaltung.Glyphs.lastChange'
p2
S'2017-07-11 17:15:08 +0000'
p3
s."
EndChar

StartChar: c6478
Encoding: 211 -1 211
GlifName: c6478
Width: 1233
VWidth: 0
Flags: W
LayerCount: 2
Fore
SplineSet
47 618 m 257
NamedP: "hr00"
 1106 879 l 257
NamedP: "av01"
 1143 762 l 257
 84 500 l 257
NamedP: "av02"
 47 618 l 257
NamedP: "hr00"
EndSplineSet
PickledDataWithLists: "(dp1
S'com.schriftgestaltung.Glyphs.lastChange'
p2
S'2017-07-11 17:15:08 +0000'
p3
s."
EndChar

StartChar: c6479
Encoding: 212 -1 212
GlifName: c6479
Width: 1233
VWidth: 0
Flags: W
LayerCount: 2
Fore
SplineSet
659 848 m 257
NamedP: "sv02"
 270 848 l 257
 301 1010 l 257
 768 1503 l 257
NamedP: "at01"
 973 1503 l 257
 872 991 l 257
NamedP: "hr01"
 981 991 l 257
 954 848 l 257
NamedP: "sv03"
 846 848 l 257
 811 668 l 257
NamedP: "dv01"
 623 668 l 257
 659 848 l 257
NamedP: "sv02"
686 991 m 257
NamedP: "sv01"
 750 1321 l 257
NamedP: "hr02"
 436 991 l 257
 686 991 l 257
NamedP: "sv01"
EndSplineSet
PickledDataWithLists: "(dp1
S'com.schriftgestaltung.Glyphs.lastChange'
p2
S'2017-07-11 17:15:08 +0000'
p3
s."
EndChar

StartChar: cacute
Encoding: 213 263 213
GlifName: cacute
Width: 1233
VWidth: 0
Flags: W
LayerCount: 2
Fore
SplineSet
948 1673 m 257
NamedP: "hr00"
 1269 1673 l 257
 827 1297 l 257
 630 1297 l 257
NamedP: "iv01"
 948 1673 l 257
NamedP: "hr00"
611 -29 m 256
NamedP: "dv01"
 471 -29 345 6 253 94 c 256
 161 182 125 305 125 448 c 256
NamedP: "dh01"
 125 636 189 823 308 950 c 256
 428 1079 595 1147 787 1147 c 256
NamedP: "at01"
 854 1147 920 1139 971 1127 c 256
 1026 1114 1081 1092 1132 1063 c 257
 1079 795 l 257
 1039 833 996 862 950 881 c 256
 906 900 857 909 804 909 c 256
NamedP: "sv01"
 685 909 593 862 528 786 c 256
 456 702 421 590 421 466 c 256
NamedP: "dh02"
 421 289 503 209 665 209 c 256
NamedP: "dv02"
 716 209 764 218 817 235 c 256
 866 251 920 274 987 313 c 257
 931 37 l 257
 879 14 826 -2 773 -13 c 256
 717 -24 663 -29 611 -29 c 256
NamedP: "dv01"
EndSplineSet
PickledDataWithLists: "(dp1
S'com.schriftgestaltung.Glyphs.lastChange'
p2
S'2017-07-11 17:15:08 +0000'
p3
s."
EndChar

StartChar: caron
Encoding: 214 711 214
GlifName: caron
Width: 1233
VWidth: 0
Flags: W
LayerCount: 2
Fore
SplineSet
414 1638 m 257
NamedP: "hr00"
 588 1638 l 257
 741 1411 l 257
 979 1638 l 257
NamedP: "av02"
 1169 1638 l 257
 838 1262 l 257
NamedP: "av01"
 596 1262 l 257
 414 1638 l 257
NamedP: "hr00"
EndSplineSet
PickledDataWithLists: "(dp1
S'com.schriftgestaltung.Glyphs.lastChange'
p2
S'2017-07-11 17:15:08 +0000'
p3
s."
EndChar

StartChar: carriagereturn
Encoding: 215 8629 215
GlifName: carriagereturn
Width: 1233
VWidth: 0
Flags: W
LayerCount: 2
Fore
SplineSet
64 261 m 257
NamedP: "hr00"
 64 403 l 257
 354 694 l 257
 474 574 l 257
 344 444 l 257
 976 444 l 257
NamedP: "dh01"
 976 861 l 257
NamedP: "av01"
 1200 861 l 257
 1200 220 l 257
NamedP: "dh02"
 344 220 l 257
 474 90 l 257
 354 -30 l 257
NamedP: "av02"
 64 261 l 257
NamedP: "hr00"
EndSplineSet
PickledDataWithLists: "(dp1
S'com.schriftgestaltung.Glyphs.lastChange'
p2
S'2017-07-11 17:15:08 +0000'
p3
s."
EndChar

StartChar: ccaron
Encoding: 216 269 216
GlifName: ccaron
Width: 1233
VWidth: 0
Flags: W
LayerCount: 2
Fore
SplineSet
475 1673 m 257
NamedP: "hr00"
 649 1673 l 257
 802 1446 l 257
 1040 1673 l 257
NamedP: "av01"
 1230 1673 l 257
 899 1297 l 257
 657 1297 l 257
 475 1673 l 257
NamedP: "hr00"
611 -29 m 256
NamedP: "dv01"
 471 -29 345 6 253 94 c 256
 161 182 125 305 125 448 c 256
NamedP: "dh01"
 125 636 189 823 308 950 c 256
 428 1079 595 1147 787 1147 c 256
NamedP: "at01"
 854 1147 920 1139 971 1127 c 256
 1026 1114 1081 1092 1132 1063 c 257
 1079 795 l 257
 1039 833 996 862 950 881 c 256
 906 900 857 909 804 909 c 256
NamedP: "sv01"
 685 909 593 862 528 786 c 256
 456 702 421 590 421 466 c 256
NamedP: "dh02"
 421 289 503 209 665 209 c 256
NamedP: "dv02"
 716 209 764 218 817 235 c 256
 866 251 920 274 987 313 c 257
 931 37 l 257
 879 14 826 -2 773 -13 c 256
 717 -24 663 -29 611 -29 c 256
NamedP: "dv01"
EndSplineSet
PickledDataWithLists: "(dp1
S'com.schriftgestaltung.Glyphs.lastChange'
p2
S'2017-07-11 17:15:08 +0000'
p3
s."
EndChar

StartChar: ccedilla
Encoding: 217 231 217
GlifName: ccedilla
Width: 1233
VWidth: 0
Flags: W
LayerCount: 2
Fore
SplineSet
809 909 m 256
NamedP: "hr00"
 690 909 598 862 533 786 c 256
 461 702 426 590 426 466 c 256
NamedP: "dh02"
 426 289 508 209 670 209 c 256
NamedP: "sv01"
 721 209 769 218 822 235 c 256
 871 251 925 274 992 313 c 257
NamedP: "iv01"
 936 37 l 257
 884 14 831 -2 778 -13 c 256
NamedP: "ab01"
 754 -18 729 -21 705 -24 c 257
NamedP: "ab02"
 720 -47 733 -71 742 -94 c 256
 754 -125 760 -156 760 -185 c 256
 760 -248 736 -303 685 -342 c 256
 636 -381 565 -401 473 -401 c 256
NamedP: "dv01"
 438 -401 399 -398 374 -395 c 256
NamedP: "sv02"
 315 -387 298 -380 275 -375 c 257
 303 -219 l 257
 332 -230 360 -238 387 -245 c 256
 414 -251 439 -254 464 -254 c 256
NamedP: "dv02"
 509 -254 545 -244 568 -227 c 256
 592 -209 604 -184 604 -151 c 256
 604 -132 600 -112 591 -90 c 256
 584 -74 575 -54 562 -27 c 257
NamedP: "ab03"
 443 -19 338 18 258 94 c 256
 166 182 130 305 130 448 c 256
NamedP: "dh01"
 130 636 194 823 313 950 c 256
 433 1079 600 1147 792 1147 c 256
NamedP: "at01"
 859 1147 925 1139 976 1127 c 256
 1031 1114 1086 1092 1137 1063 c 257
 1084 795 l 257
NamedP: "iv02"
 1044 833 1001 862 955 881 c 256
 911 900 862 909 809 909 c 256
NamedP: "hr00"
EndSplineSet
PickledDataWithLists: "(dp1
S'com.schriftgestaltung.Glyphs.lastChange'
p2
S'2017-07-11 17:15:08 +0000'
p3
s."
EndChar

StartChar: ccircumflex
Encoding: 218 265 218
GlifName: ccircumflex
Width: 1233
VWidth: 0
Flags: W
LayerCount: 2
Fore
SplineSet
752 1596 m 257
NamedP: "hr00"
 993 1596 l 257
 1191 1297 l 257
 1013 1297 l 257
 843 1444 l 257
 616 1297 l 257
 438 1297 l 257
 752 1596 l 257
NamedP: "hr00"
317 30 m 256
 188 104 124 227 124 399 c 256
 124 443 130 496 141 559 c 257
 165 680 208 785 269 875 c 257
 393 1052 579 1149 806 1149 c 256
 929 1149 1032 1122 1132 1063 c 257
 1080 795 l 257
 1007 871 914 909 802 909 c 256
 611 909 481 783 438 559 c 256
 430 519 426 482 426 449 c 256
 426 294 510 211 667 211 c 256
 780 211 894 250 989 326 c 257
 936 57 l 257
 829 1 706 -29 581 -29 c 256
 472 -29 384 -9 317 30 c 256
EndSplineSet
PickledDataWithLists: "(dp1
S'com.schriftgestaltung.Glyphs.lastChange'
p2
S'2017-07-11 17:15:08 +0000'
p3
s."
EndChar

StartChar: cdotaccent
Encoding: 219 267 219
GlifName: cdotaccent
Width: 1233
VWidth: 0
Flags: W
LayerCount: 2
Fore
SplineSet
677 1347 m 258
NamedP: "hr00"
 656 1347 647 1360 651 1380 c 258
 688 1566 l 257
 691 1584 701 1593 720 1593 c 258
NamedP: "dv03"
 932 1593 l 258
 952 1593 963 1580 959 1560 c 258
 923 1374 l 258
 920 1356 909 1347 891 1347 c 258
 677 1347 l 258
NamedP: "hr00"
608 -29 m 256
NamedP: "dv01"
 307 -29 125 134 125 457 c 256
NamedP: "dh01"
 125 848 392 1147 795 1147 c 256
NamedP: "at01"
 916 1147 1031 1120 1132 1063 c 257
 1079 795 l 257
 999 871 908 909 805 909 c 256
NamedP: "sv01"
 577 909 421 723 421 472 c 256
NamedP: "dh02"
 421 291 500 209 661 209 c 256
NamedP: "dv02"
 760 209 858 240 987 313 c 257
 931 37 l 257
 828 -7 720 -29 608 -29 c 256
NamedP: "dv01"
EndSplineSet
PickledDataWithLists: "(dp1
S'com.schriftgestaltung.Glyphs.lastChange'
p2
S'2017-07-11 17:15:08 +0000'
p3
s."
EndChar

StartChar: cedilla
Encoding: 220 184 220
GlifName: cedilla
Width: 1233
VWidth: 0
Flags: W
LayerCount: 2
Fore
SplineSet
349 -401 m 256
NamedP: "dv01"
 314 -401 272 -398 249 -395 c 256
 233 -392 169 -383 150 -375 c 257
 178 -219 l 257
 207 -230 235 -238 262 -245 c 256
 289 -251 314 -254 339 -254 c 256
NamedP: "dv02"
 384 -254 420 -244 443 -227 c 256
 467 -209 479 -184 479 -151 c 256
 479 -132 475 -112 466 -90 c 256
 458 -69 443 -37 422 0 c 257
NamedP: "hr01"
 563 0 l 257
 587 -33 605 -64 617 -94 c 256
 629 -125 635 -156 635 -185 c 256
 635 -248 611 -303 560 -342 c 256
 511 -381 438 -401 349 -401 c 256
NamedP: "dv01"
EndSplineSet
PickledDataWithLists: "(dp1
S'com.schriftgestaltung.Glyphs.lastChange'
p2
S'2017-07-11 17:15:08 +0000'
p3
s."
EndChar

StartChar: cent
Encoding: 221 162 221
GlifName: cent
Width: 1233
VWidth: 0
Flags: W
LayerCount: 2
Fore
SplineSet
506 -25 m 257
NamedP: "hr00"
 376 -10 277 37 208 116 c 256
 139 196 104 298 104 438 c 256
NamedP: "dh01"
 104 541 123 635 159 727 c 256
 198 823 252 907 315 971 c 256
 364 1022 424 1067 503 1099 c 256
 571 1127 649 1144 733 1145 c 257
 788 1432 l 257
NamedP: "av01"
 930 1432 l 257
 875 1145 l 257
 911 1142 950 1136 985 1125 c 256
 1023 1114 1062 1098 1102 1077 c 257
 1049 813 l 257
NamedP: "iv01"
 1018 840 984 862 949 877 c 256
 914 892 875 902 830 907 c 257
 695 215 l 257
NamedP: "iv02"
 738 218 781 228 824 243 c 256
 869 259 909 280 952 307 c 257
NamedP: "iv03"
 901 43 l 257
 860 22 819 6 776 -5 c 256
 733 -16 690 -23 647 -25 c 257
 592 -313 l 257
NamedP: "av02"
 451 -313 l 257
 506 -25 l 257
NamedP: "hr00"
688 907 m 257
NamedP: "iv04"
 597 897 521 849 459 762 c 256
 398 677 365 576 365 463 c 256
NamedP: "dh02"
 365 383 382 329 417 285 c 256
 450 242 492 218 552 215 c 257
 688 907 l 257
NamedP: "iv04"
EndSplineSet
PickledDataWithLists: "(dp1
S'com.schriftgestaltung.Glyphs.lastChange'
p2
S'2017-07-11 17:15:08 +0000'
p3
s."
EndChar

StartChar: chi
Encoding: 222 967 222
GlifName: chi
Width: 1233
VWidth: 0
Flags: W
LayerCount: 2
Fore
SplineSet
435 348 m 257
NamedP: "hr00"
 330 752 l 258
 317 802 300 837 279 856 c 256
 262 872 238 885 222 885 c 258
 143 885 l 257
 188 1120 l 257
NamedP: "at01"
 305 1120 l 258
 440 1120 549 1045 610 808 c 258
 648 660 l 257
NamedP: "iv01"
 962 1120 l 257
NamedP: "at02"
 1259 1120 l 257
 730 345 l 257
 834 -58 l 258
 845 -101 860 -139 885 -162 c 256
 902 -178 926 -191 942 -191 c 258
 1022 -191 l 257
 977 -426 l 257
NamedP: "ab01"
 859 -426 l 258
 725 -426 615 -354 554 -114 c 258
 516 32 l 257
NamedP: "iv02"
 203 -426 l 257
NamedP: "ab02"
 -94 -426 l 257
 435 348 l 257
NamedP: "hr00"
EndSplineSet
PickledDataWithLists: "(dp1
S'com.schriftgestaltung.Glyphs.lastChange'
p2
S'2017-07-11 17:15:08 +0000'
p3
s."
EndChar

StartChar: circle
Encoding: 223 9675 223
GlifName: circle
Width: 1233
VWidth: 0
Flags: W
LayerCount: 2
Fore
SplineSet
617 -84 m 256
NamedP: "hr00"
 524 -84 413 -55 310 2 c 256
 118 109 6 301 6 532 c 256
NamedP: "sh01"
 6 765 118 953 310 1062 c 256
 413 1119 524 1148 617 1148 c 256
NamedP: "dv03"
 710 1148 818 1120 922 1061 c 256
 1117 952 1227 772 1227 532 c 256
NamedP: "sh02"
 1227 292 1117 112 922 3 c 256
 818 -56 710 -84 617 -84 c 256
NamedP: "hr00"
616 79 m 256
NamedP: "dv01"
 691 79 766 100 841 143 c 256
 990 228 1066 357 1066 532 c 256
NamedP: "ah01"
 1066 619 1047 695 1010 760 c 256
 972 825 916 878 841 921 c 256
 766 964 691 985 616 985 c 256
NamedP: "dv02"
 541 985 467 964 392 921 c 256
 243 836 167 707 167 532 c 256
NamedP: "sh03"
 167 445 186 369 224 304 c 256
 261 239 317 186 392 143 c 256
 467 100 541 79 616 79 c 256
NamedP: "dv01"
EndSplineSet
PickledDataWithLists: "(dp1
S'com.schriftgestaltung.Glyphs.lastChange'
p2
S'2017-07-11 17:15:08 +0000'
p3
s."
EndChar

StartChar: circlemultiply
Encoding: 224 8855 224
GlifName: circlemultiply
Width: 1233
VWidth: 0
Flags: W
LayerCount: 2
Fore
SplineSet
617 52 m 256
NamedP: "hr00"
 448 52 302 121 198 225 c 256
 82 341 26 488 26 643 c 256
NamedP: "sh01"
 26 810 90 954 198 1061 c 256
 254 1117 320 1160 391 1191 c 256
 461 1220 536 1235 615 1235 c 256
NamedP: "dv03"
 772 1235 922 1175 1035 1062 c 256
 1140 957 1207 810 1207 643 c 256
NamedP: "sh02"
 1207 487 1150 340 1035 225 c 256
 931 121 786 52 617 52 c 256
NamedP: "hr00"
616 246 m 256
NamedP: "dv01"
 721 246 822 289 897 362 c 256
 969 434 1012 533 1012 646 c 256
NamedP: "ah01"
 1012 747 977 844 896 924 c 256
 853 967 809 992 768 1011 c 256
 721 1031 671 1041 619 1041 c 256
NamedP: "dv02"
 515 1041 412 1001 336 925 c 256
 259 848 221 746 221 642 c 256
NamedP: "sh03"
 221 530 264 434 337 362 c 256
 412 289 509 246 616 246 c 256
NamedP: "dv01"
313 458 m 257
 497 642 l 257
 312 827 l 257
 432 948 l 257
 617 762 l 257
 802 947 l 257
 922 827 l 257
 737 642 l 257
 921 459 l 257
 800 339 l 257
 617 522 l 257
 433 338 l 257
 313 458 l 257
EndSplineSet
PickledDataWithLists: "(dp1
S'com.schriftgestaltung.Glyphs.lastChange'
p2
S'2017-07-11 17:15:08 +0000'
p3
s."
EndChar

